<svg width="14" height="14" viewBox="0 0 14 14" fill="none" xmlns="http://www.w3.org/2000/svg">
<path d="M7 0C10.8661 0 14 3.1339 14 7C14 10.8661 10.8661 14 7 14C3.1339 14 0 10.8661 0 7C0 3.1339 3.1339 0 7 0ZM7 9.1C6.81435 9.1 6.6363 9.17375 6.50503 9.30503C6.37375 9.4363 6.3 9.61435 6.3 9.8C6.3 9.98565 6.37375 10.1637 6.50503 10.295C6.6363 10.4263 6.81435 10.5 7 10.5C7.18565 10.5 7.3637 10.4263 7.49497 10.295C7.62625 10.1637 7.7 9.98565 7.7 9.8C7.7 9.61435 7.62625 9.4363 7.49497 9.30503C7.3637 9.17375 7.18565 9.1 7 9.1ZM7 2.8C6.82855 2.80002 6.66306 2.86297 6.53494 2.9769C6.40681 3.09083 6.32496 3.24782 6.3049 3.4181L6.3 3.5V7.7C6.3002 7.87842 6.36852 8.05002 6.49099 8.17976C6.61347 8.30949 6.78087 8.38756 6.95898 8.39802C7.13709 8.40848 7.31247 8.35053 7.44928 8.23601C7.5861 8.1215 7.67403 7.95907 7.6951 7.7819L7.7 7.7V3.5C7.7 3.31435 7.62625 3.1363 7.49497 3.00503C7.3637 2.87375 7.18565 2.8 7 2.8Z" fill="#9B9CA2"/>
</svg>
