<svg width="350" height="304" viewBox="0 0 350 304" fill="none" xmlns="http://www.w3.org/2000/svg">
<mask id="path-1-inside-1_802_2789" fill="white">
<path d="M0 8C0 3.58172 3.58172 0 8 0H342C346.418 0 350 3.58172 350 8V42H0V8Z"/>
</mask>
<path d="M-1 8C-1 3.02944 3.02944 -1 8 -1H342C346.971 -1 351 3.02944 351 8H349C349 4.13401 345.866 1 342 1H8C4.13401 1 1 4.13401 1 8H-1ZM1 8M350 42H0H350M-1 42V8C-1 3.02944 3.02944 -1 8 -1V1C4.13401 1 1 4.13401 1 8V42H-1ZM342 -1C346.971 -1 351 3.02944 351 8V42H349V8C349 4.13401 345.866 1 342 1V-1Z" fill="#005158" mask="url(#path-1-inside-1_802_2789)"/>
<path d="M29.8945 19.7246V20.791H27.9941V27.1484H26.6953V14.9121H27.9941V19.7246H29.8945ZM20.2012 16.1016V22.9922C21.9102 22.9922 23.6943 22.8486 25.6426 22.4453L25.793 23.5391C23.7012 23.9629 21.7598 24.0723 19.9277 24.0723H18.916V16.1016H20.2012ZM33.8205 15.6914C35.7072 15.6914 37.1154 16.8809 37.1154 18.6035C37.1154 20.1211 36.0217 21.2217 34.4768 21.4609V23.4023C35.5637 23.3545 36.6506 23.2725 37.6623 23.1426L37.758 24.1133C35.174 24.5645 32.3166 24.5781 30.1975 24.5645L29.9924 23.498C30.9426 23.4912 32.0363 23.4844 33.1779 23.457V21.4609C31.592 21.2354 30.5119 20.1279 30.5256 18.6035C30.5119 16.8809 31.8928 15.6914 33.8205 15.6914ZM33.8205 16.7852C32.6447 16.7988 31.7834 17.5098 31.7834 18.6035C31.7834 19.6973 32.6447 20.4219 33.8205 20.4082C34.9826 20.4219 35.8303 19.6973 35.844 18.6035C35.8303 17.5098 34.9826 16.7988 33.8205 16.7852ZM39.6994 14.9121V19.8887H41.5861V20.9824H39.6994V27.1621H38.4006V14.9121H39.6994ZM51.0514 15.7324V21.0098H45.3229V15.7324H51.0514ZM46.5944 16.7715V19.9707H49.7799V16.7715H46.5944ZM54.4694 14.9121V17.7559H56.2467V18.8359H54.4694V21.8574H53.1705V14.9121H54.4694ZM54.6608 22.541V23.5801H51.3112C51.4889 24.7422 53.0817 25.8154 55.1666 26.123L54.6881 27.1211C52.8287 26.834 51.2975 25.9795 50.5865 24.8105C49.8893 25.9863 48.3649 26.834 46.5123 27.1074L46.0338 26.1094C48.1324 25.8154 49.691 24.7764 49.903 23.5801H46.526V22.541H54.6608ZM61.0477 18.5215C61.0477 20.5723 62.3875 22.6914 64.2743 23.498L63.5633 24.5098C62.1209 23.874 60.9725 22.5273 60.4051 20.8867C59.8377 22.6367 58.6825 24.127 57.2606 24.8242L56.5086 23.7988C58.3543 22.9375 59.7215 20.627 59.7352 18.5215V17.2227H56.9325V16.1426H63.8368V17.2227H61.0477V18.5215ZM66.6805 14.9121V27.1621H65.3817V14.9121H66.6805ZM74.6418 15.5684C76.5012 15.5684 77.8547 16.7578 77.8547 18.4121C77.8547 20.0801 76.5012 21.2559 74.6418 21.2559C72.7961 21.2559 71.4153 20.0801 71.429 18.4121C71.4153 16.7578 72.7961 15.5684 74.6418 15.5684ZM74.6418 16.6484C73.5344 16.6484 72.6868 17.373 72.6868 18.4121C72.6868 19.4512 73.5344 20.1895 74.6418 20.1895C75.7629 20.1895 76.5969 19.4512 76.5969 18.4121C76.5969 17.373 75.7629 16.6484 74.6418 16.6484ZM80.8625 14.9121V17.5918H82.6399V18.6719H80.8625V21.0098H79.5637V14.9121H80.8625ZM73.7395 22.2812V25.7676C74.4573 25.7334 75.2844 25.6309 76.0637 25.3711L76.2551 26.3965C75.1204 26.7793 74.0129 26.834 73.0969 26.834H72.468V22.2812H73.7395ZM82.011 22.3223V23.3203H75.8313V22.3223H78.3059V21.3242H79.5774V22.3223H82.011ZM78.9211 23.6758C80.2747 23.6758 81.2317 24.3594 81.2317 25.4258C81.2317 26.4785 80.2747 27.1484 78.9211 27.1348C77.5403 27.1484 76.5969 26.4785 76.6106 25.4258C76.5969 24.3594 77.5403 23.6758 78.9211 23.6758ZM78.9211 24.6055C78.2375 24.6055 77.759 24.9199 77.759 25.4258C77.759 25.918 78.2375 26.2324 78.9211 26.2324C79.5911 26.2324 80.0696 25.918 80.0696 25.4258C80.0696 24.9199 79.5911 24.6055 78.9211 24.6055ZM92.8413 18.4941V19.5332H84.4057V15.3496H85.6909V18.4941H92.8413ZM94.1264 21.0781V22.1172H82.9155V21.0781H94.1264ZM92.9233 25.8086V26.875H84.31V23.2793H85.6088V25.8086H92.9233ZM101.978 16.7441C101.978 18.4668 103.086 19.998 104.945 20.5996L104.234 21.6113C102.888 21.126 101.896 20.1826 101.363 18.959C100.83 20.3604 99.7635 21.4473 98.287 21.9805L97.5897 20.9414C99.5448 20.2715 100.68 18.6445 100.693 16.7988V15.5957H101.978V16.7441ZM107.844 14.9121V22.1445H106.545V18.4668H103.961V17.4004H106.545V14.9121H107.844ZM103.742 22.4863C106.312 22.4863 107.885 23.334 107.885 24.8242C107.885 26.3008 106.312 27.1484 103.742 27.1348C101.172 27.1484 99.5858 26.3008 99.5995 24.8242C99.5858 23.334 101.172 22.4863 103.742 22.4863ZM103.742 23.498C101.951 23.498 100.885 23.9766 100.885 24.8242C100.885 25.6445 101.951 26.1094 103.742 26.1094C105.533 26.1094 106.599 25.6445 106.599 24.8242C106.599 23.9766 105.533 23.498 103.742 23.498ZM120.52 21.3242V22.3633H115.652V24.6191H114.367V22.3633H109.309V21.3242H120.52ZM119.275 25.8496V26.9023H110.703V23.5527H111.988V25.8496H119.275ZM112.07 15.2949V16.7852H117.744V15.2949H119.043V20.2441H110.785V15.2949H112.07ZM112.07 19.2051H117.744V17.7559H112.07V19.2051Z" fill="black"/>
<rect width="16" height="16" transform="translate(324 29) rotate(-90)" fill="white"/>
<path d="M327.131 23.2271L332.168 18.1396C332.257 18.0501 332.376 18 332.499 18C332.623 18 332.742 18.0501 332.83 18.1396L337.869 23.2271C337.91 23.2686 337.943 23.3183 337.966 23.3732C337.988 23.4282 338 23.4873 338 23.547C338 23.6067 337.988 23.6657 337.966 23.7207C337.943 23.7757 337.91 23.8254 337.869 23.8668C337.784 23.9522 337.671 24 337.553 24C337.435 24 337.321 23.9522 337.237 23.8668L332.499 19.0831L327.763 23.8653C327.679 23.9507 327.565 23.9985 327.447 23.9985C327.329 23.9985 327.216 23.9507 327.131 23.8653C327.09 23.8238 327.057 23.7741 327.034 23.7192C327.012 23.6642 327 23.6051 327 23.5454C327 23.4857 327.012 23.4266 327.034 23.3717C327.057 23.3167 327.09 23.267 327.131 23.2255" fill="#82838A"/>
<mask id="path-5-inside-2_802_2789" fill="white">
<path d="M0 42H350V296C350 300.418 346.418 304 342 304H8C3.58172 304 0 300.418 0 296V42Z"/>
</mask>
<path d="M0 42H350H0M351 296C351 300.971 346.971 305 342 305H8C3.02944 305 -1 300.971 -1 296H1C1 299.866 4.13401 303 8 303H342C345.866 303 349 299.866 349 296H351ZM8 305C3.02944 305 -1 300.971 -1 296V42H1V296C1 299.866 4.13401 303 8 303V305ZM351 42V296C351 300.971 346.971 305 342 305V303C345.866 303 349 299.866 349 296V42H351Z" fill="#005158" mask="url(#path-5-inside-2_802_2789)"/>
<rect x="20.5" y="56" width="14" height="14" rx="2.5" fill="white"/>
<rect x="20.5" y="56" width="14" height="14" rx="2.5" stroke="#83848C"/>
<path d="M57.6484 63.8301V64.8965H54.8047V69.1621H53.4922V64.8965H50.5664V69.1621H49.2266V64.8965H46.4375V63.8301H57.6484ZM52.0156 57.377C54.5996 57.377 56.377 58.4297 56.377 60.084C56.377 61.7109 54.5996 62.75 52.0156 62.7363C49.418 62.75 47.6543 61.7109 47.6543 60.084C47.6543 58.4297 49.418 57.377 52.0156 57.377ZM52.0156 58.416C50.1973 58.4297 48.9805 59.0586 48.9941 60.084C48.9805 61.082 50.1973 61.7109 52.0156 61.7109C53.834 61.7109 55.0508 61.082 55.0508 60.084C55.0508 59.0586 53.834 58.4297 52.0156 58.416ZM68.6565 56.9121V69.1621H67.4123V56.9121H68.6565ZM66.1682 57.1719V68.5469H64.9377V62.3125H63.0373V61.2461H64.9377V57.1719H66.1682ZM61.8342 60.3301C61.8342 62.4219 62.6818 64.5137 64.4045 65.5117L63.6252 66.4688C62.4563 65.7715 61.6496 64.5342 61.2326 63.0508C60.7883 64.6504 59.9543 66.0107 58.758 66.7559L57.965 65.7852C59.7014 64.7324 60.59 62.5039 60.59 60.3301V59.3457H58.3342V58.293H63.9397V59.3457H61.8342V60.3301ZM81.0043 62.7773V63.8164H76.0551V65.1289H79.6371V69.0117H71.1742V65.1289H74.7699V63.8164H69.8344V62.7773H81.0043ZM79.9516 57.2949V58.3477H78.1742V60.6855H79.8969V61.7383H70.9145V60.6855H72.6508V58.3477H70.8598V57.2949H79.9516ZM72.4594 66.1543V67.959H78.3793V66.1543H72.4594ZM73.936 60.6855H76.8754V58.3477H73.936V60.6855Z" fill="black"/>
<rect width="16" height="16" transform="matrix(1.19249e-08 1 1 -1.19249e-08 314 55)" fill="white"/>
<path d="M317.131 60.7729L322.168 65.8604C322.257 65.9499 322.376 66 322.499 66C322.623 66 322.742 65.9499 322.83 65.8604L327.869 60.7729C327.91 60.7314 327.943 60.6817 327.966 60.6268C327.988 60.5718 328 60.5127 328 60.453C328 60.3933 327.988 60.3343 327.966 60.2793C327.943 60.2243 327.91 60.1746 327.869 60.1332C327.784 60.0478 327.671 60 327.553 60C327.435 60 327.321 60.0478 327.237 60.1332L322.499 64.9169L317.763 60.1347C317.679 60.0493 317.565 60.0015 317.447 60.0015C317.329 60.0015 317.216 60.0493 317.131 60.1347C317.09 60.1762 317.057 60.2259 317.034 60.2808C317.012 60.3358 317 60.3949 317 60.4546C317 60.5143 317.012 60.5734 317.034 60.6283C317.057 60.6833 317.09 60.733 317.131 60.7745" fill="#82838A"/>
<rect x="20.5" y="100" width="14" height="14" rx="2.5" fill="white"/>
<rect x="20.5" y="100" width="14" height="14" rx="2.5" stroke="#83848C"/>
<path d="M56.6641 100.926V110.018H55.3652V107.201H52.2344V106.135H55.3652V104.453H52.4121C51.5303 106.36 49.6914 107.796 47.2031 108.582L46.6426 107.557C49.4316 106.654 51.2773 104.993 51.5508 102.908H47.2715V101.869H52.959C52.959 102.402 52.8906 102.915 52.7676 103.4H55.3652V100.926H56.6641ZM56.9785 111.85V112.902H48.7754V109.115H50.0879V111.85H56.9785ZM64.965 102.225V102.977C64.965 104.002 64.965 105.588 64.6096 107.775L63.3244 107.68C63.632 105.718 63.6662 104.303 63.6799 103.277H58.7033V102.225H64.965ZM61.8205 105.725V109.389C63.1262 109.348 64.4524 109.259 65.676 109.102L65.7443 110.072C63.1877 110.482 60.344 110.537 58.1701 110.523L58.0197 109.471C58.7854 109.464 59.6399 109.457 60.5354 109.43V105.725H61.8205ZM67.6858 100.912V105.971H69.5588V107.078H67.6858V113.162H66.3733V100.912H67.6858ZM81.0317 108.186V109.211H78.2153V113.162H76.9028V109.211H73.9496V113.162H72.6508V109.211H69.8207V108.186H81.0317ZM79.7055 101.35V104.631H72.4867V105.984H79.9653V107.037H71.1879V103.66H78.3793V102.416H71.1469V101.35H79.7055Z" fill="black"/>
<rect width="16" height="16" transform="matrix(1.19249e-08 1 1 -1.19249e-08 314 99)" fill="white"/>
<path d="M317.131 104.773L322.168 109.86C322.257 109.95 322.376 110 322.499 110C322.623 110 322.742 109.95 322.83 109.86L327.869 104.773C327.91 104.731 327.943 104.682 327.966 104.627C327.988 104.572 328 104.513 328 104.453C328 104.393 327.988 104.334 327.966 104.279C327.943 104.224 327.91 104.175 327.869 104.133C327.784 104.048 327.671 104 327.553 104C327.435 104 327.321 104.048 327.237 104.133L322.499 108.917L317.763 104.135C317.679 104.049 317.565 104.002 317.447 104.002C317.329 104.002 317.216 104.049 317.131 104.135C317.09 104.176 317.057 104.226 317.034 104.281C317.012 104.336 317 104.395 317 104.455C317 104.514 317.012 104.573 317.034 104.628C317.057 104.683 317.09 104.733 317.131 104.774" fill="#82838A"/>
<rect x="20.5" y="144" width="14" height="14" rx="2.5" fill="white"/>
<rect x="20.5" y="144" width="14" height="14" rx="2.5" stroke="#83848C"/>
<path d="M52.918 145.568V150.613H47.0938V145.568H52.918ZM48.3652 146.621V149.602H51.6328V146.621H48.3652ZM56.5957 144.912V151.188H55.3105V144.912H56.5957ZM56.5957 151.775V154.824H49.8555V156H56.9922V157.039H48.584V153.881H55.3242V152.787H48.5566V151.775H56.5957ZM67.6858 144.912V149.793H69.5861V150.873H67.6858V157.148H66.3869V144.912H67.6858ZM64.4865 146.197C64.4729 149.738 62.9143 152.896 58.8811 154.893L58.1565 153.881C61.2258 152.35 62.8938 150.135 63.1604 147.277H58.7717V146.197H64.4865ZM79.7055 145.363V148.699H72.4867V150.107H79.9653V151.16H71.1879V147.701H78.3793V146.416H71.1469V145.363H79.7055ZM81.0317 152.322V153.361H76.0551V157.189H74.7563V153.361H69.8207V152.322H81.0317Z" fill="black"/>
<rect width="16" height="16" transform="matrix(1.19249e-08 1 1 -1.19249e-08 314 143)" fill="white"/>
<path d="M317.131 148.773L322.168 153.86C322.257 153.95 322.376 154 322.499 154C322.623 154 322.742 153.95 322.83 153.86L327.869 148.773C327.91 148.731 327.943 148.682 327.966 148.627C327.988 148.572 328 148.513 328 148.453C328 148.393 327.988 148.334 327.966 148.279C327.943 148.224 327.91 148.175 327.869 148.133C327.784 148.048 327.671 148 327.553 148C327.435 148 327.321 148.048 327.237 148.133L322.499 152.917L317.763 148.135C317.679 148.049 317.565 148.002 317.447 148.002C317.329 148.002 317.216 148.049 317.131 148.135C317.09 148.176 317.057 148.226 317.034 148.281C317.012 148.336 317 148.395 317 148.455C317 148.514 317.012 148.573 317.034 148.628C317.057 148.683 317.09 148.733 317.131 148.774" fill="#82838A"/>
<rect x="20.5" y="188" width="14" height="14" rx="2.5" fill="white"/>
<rect x="20.5" y="188" width="14" height="14" rx="2.5" stroke="#83848C"/>
<path d="M56.0898 188.912V192.016H57.8535V193.082H56.0898V196.145H54.7773V188.912H56.0898ZM52.125 196.377C54.627 196.377 56.1855 197.252 56.1855 198.756C56.1855 200.26 54.627 201.148 52.125 201.135C49.5957 201.148 48.0098 200.26 48.0098 198.756C48.0098 197.252 49.5957 196.377 52.125 196.377ZM52.125 197.43C50.3477 197.416 49.2812 197.908 49.2949 198.756C49.2812 199.604 50.3477 200.096 52.125 200.096C53.8613 200.096 54.9277 199.604 54.9414 198.756C54.9277 197.908 53.8613 197.416 52.125 197.43ZM52.4395 189.814V190.867H48.2559V194.203C50.6689 194.196 52.0293 194.121 53.5742 193.807L53.6973 194.859C52.0566 195.201 50.5938 195.256 47.9414 195.256H46.9707V189.814H52.4395ZM69.34 196.186V197.211H66.5236V201.162H65.2111V197.211H62.258V201.162H60.9592V197.211H58.1291V196.186H69.34ZM68.0139 189.35V192.631H60.7951V193.984H68.2736V195.037H59.4963V191.66H66.6877V190.416H59.4553V189.35H68.0139Z" fill="black"/>
<rect width="16" height="16" transform="matrix(1.19249e-08 1 1 -1.19249e-08 314 187)" fill="white"/>
<path d="M317.131 192.773L322.168 197.86C322.257 197.95 322.376 198 322.499 198C322.623 198 322.742 197.95 322.83 197.86L327.869 192.773C327.91 192.731 327.943 192.682 327.966 192.627C327.988 192.572 328 192.513 328 192.453C328 192.393 327.988 192.334 327.966 192.279C327.943 192.224 327.91 192.175 327.869 192.133C327.784 192.048 327.671 192 327.553 192C327.435 192 327.321 192.048 327.237 192.133L322.499 196.917L317.763 192.135C317.679 192.049 317.565 192.002 317.447 192.002C317.329 192.002 317.216 192.049 317.131 192.135C317.09 192.176 317.057 192.226 317.034 192.281C317.012 192.336 317 192.395 317 192.455C317 192.514 317.012 192.573 317.034 192.628C317.057 192.683 317.09 192.733 317.131 192.774" fill="#82838A"/>
<rect x="20.5" y="232" width="14" height="14" rx="2.5" fill="white"/>
<rect x="20.5" y="232" width="14" height="14" rx="2.5" stroke="#83848C"/>
<path d="M50.7441 235.51C50.7441 236.959 51.9336 238.244 53.793 238.764L53.1914 239.789C51.7559 239.379 50.6758 238.511 50.1152 237.383C49.582 238.613 48.5156 239.563 47.0527 240.021L46.4238 238.996C48.2969 238.449 49.459 237.055 49.459 235.51V235.318H46.793V234.279H49.459V232.857H50.7578V234.279H53.4102V235.318H50.7441V235.51ZM56.6641 232.912V240.145H55.3652V237.342H53.0684V236.275H55.3652V232.912H56.6641ZM56.6641 240.732V245.012H48.584V240.732H56.6641ZM49.8691 241.785V243.959H55.3926V241.785H49.8691ZM67.6858 232.912V237.793H69.5861V238.873H67.6858V245.148H66.3869V232.912H67.6858ZM64.4865 234.197C64.4729 237.738 62.9143 240.896 58.8811 242.893L58.1565 241.881C61.2258 240.35 62.8938 238.135 63.1604 235.277H58.7717V234.197H64.4865ZM81.0043 237.984V239.023H76.0551V240.09H79.5961V242.961H72.4594V244.041H79.9379V245.039H71.1879V242.018H78.311V241.088H71.1742V240.09H74.7563V239.023H69.8344V237.984H81.0043ZM79.5688 233.309V237.082H71.2699V233.309H79.5688ZM72.5414 234.334V236.057H78.2699V234.334H72.5414Z" fill="black"/>
<rect width="16" height="16" transform="matrix(1.19249e-08 1 1 -1.19249e-08 314 231)" fill="white"/>
<path d="M317.131 236.773L322.168 241.86C322.257 241.95 322.376 242 322.499 242C322.623 242 322.742 241.95 322.83 241.86L327.869 236.773C327.91 236.731 327.943 236.682 327.966 236.627C327.988 236.572 328 236.513 328 236.453C328 236.393 327.988 236.334 327.966 236.279C327.943 236.224 327.91 236.175 327.869 236.133C327.784 236.048 327.671 236 327.553 236C327.435 236 327.321 236.048 327.237 236.133L322.499 240.917L317.763 236.135C317.679 236.049 317.565 236.002 317.447 236.002C317.329 236.002 317.216 236.049 317.131 236.135C317.09 236.176 317.057 236.226 317.034 236.281C317.012 236.336 317 236.395 317 236.455C317 236.514 317.012 236.573 317.034 236.628C317.057 236.683 317.09 236.733 317.131 236.774" fill="#82838A"/>
<path d="M27 276C30.8661 276 34 279.134 34 283C34 286.866 30.8661 290 27 290C23.1339 290 20 286.866 20 283C20 279.134 23.1339 276 27 276ZM27 285.1C26.8143 285.1 26.6363 285.174 26.505 285.305C26.3737 285.436 26.3 285.614 26.3 285.8C26.3 285.986 26.3737 286.164 26.505 286.295C26.6363 286.426 26.8143 286.5 27 286.5C27.1857 286.5 27.3637 286.426 27.495 286.295C27.6262 286.164 27.7 285.986 27.7 285.8C27.7 285.614 27.6262 285.436 27.495 285.305C27.3637 285.174 27.1857 285.1 27 285.1ZM27 278.8C26.8285 278.8 26.6631 278.863 26.5349 278.977C26.4068 279.091 26.325 279.248 26.3049 279.418L26.3 279.5V283.7C26.3002 283.878 26.3685 284.05 26.491 284.18C26.6135 284.309 26.7809 284.388 26.959 284.398C27.1371 284.408 27.3125 284.351 27.4493 284.236C27.5861 284.122 27.674 283.959 27.6951 283.782L27.7 283.7V279.5C27.7 279.314 27.6262 279.136 27.495 279.005C27.3637 278.874 27.1857 278.8 27 278.8Z" fill="#9B9CA2"/>
<path d="M49.3711 283.027V284.938C50.373 284.896 51.3984 284.809 52.3594 284.668L52.4297 285.348C50.0508 285.781 47.4844 285.793 45.6094 285.793L45.4805 285.031C46.3535 285.025 47.3848 285.02 48.4688 284.984V283.027H49.3711ZM51.8203 278.902V279.664H49.3711C49.3945 281.012 50.5137 282.107 52.0547 282.547L51.6211 283.273C50.3672 282.898 49.3887 282.096 48.9258 281.035C48.4688 282.154 47.4961 282.986 46.2422 283.367L45.7969 282.664C47.3379 282.213 48.4219 281.07 48.4453 279.664H46.0547V278.902H48.4688V277.613H49.3711V278.902H51.8203ZM53.9648 277.531V287.973H53.0508V277.531H53.9648ZM64.2912 277.531V287.949H63.4123V282.488H61.8772V287.41H61.0334V277.766H61.8772V281.727H63.4123V277.531H64.2912ZM59.674 278.809V279.57H56.6858V284.586C58.1213 284.58 59.1174 284.527 60.2717 284.293L60.3537 285.066C59.0998 285.324 58.0334 285.371 56.4397 285.371H55.7717V278.809H59.674ZM71.0924 287.117C69.5573 287.117 68.3971 286.168 68.3385 284.867H69.358C69.4401 285.629 70.1783 286.191 71.0924 286.191C72.194 286.191 72.9908 285.383 72.9908 284.316C72.9908 283.215 72.1588 282.406 71.0221 282.395C70.3073 282.383 69.7565 282.605 69.4401 283.156H68.4205L69.0182 278.516H73.6119V279.453H69.8971L69.5807 281.938H69.6627C70.0377 281.645 70.6119 281.445 71.2096 281.445C72.8268 281.445 74.0221 282.641 74.0221 284.293C74.0221 285.934 72.7799 287.117 71.0924 287.117ZM83.5985 277.531V287.949H82.6961V282.5H81.2547V287.434H80.3758V277.812H81.2547V281.738H82.6961V277.531H83.5985ZM79.1922 278.891C79.1805 281.539 78.2547 284.047 75.2547 285.711L74.7157 285.066C77.1356 283.719 78.1375 281.809 78.2899 279.652H75.1141V278.891H79.1922ZM92.917 277.531V281.832H94.4991V282.605H92.917V287.949H91.9912V277.531H92.917ZM87.8311 278.668C87.8194 281.152 87.2569 283.59 85.3702 285.594L84.6319 285.066C86.208 283.455 86.8409 281.516 86.9639 279.441H84.96V278.668H87.8311ZM90.6905 278.668C90.6787 281.141 90.3155 284.012 88.3702 286.285L87.6202 285.77C89.2491 283.93 89.7412 281.615 89.8233 279.441H88.1592V278.668H90.6905ZM98.3567 280.73C98.3567 282.5 99.6458 284.293 101.181 284.961L100.665 285.688C99.4465 285.131 98.3918 283.93 97.9114 282.488C97.4192 284.018 96.3704 285.348 95.1809 285.945L94.6301 285.219C96.1184 284.504 97.4192 282.535 97.4309 280.73V279.371H94.97V278.609H100.841V279.371H98.3567V280.73ZM103.22 277.531V287.949H102.294V277.531H103.22ZM110.759 279.5C110.759 280.953 111.814 282.324 113.338 282.875L112.822 283.59C111.679 283.133 110.771 282.225 110.326 281.094C109.881 282.354 108.931 283.355 107.701 283.848L107.209 283.098C108.767 282.523 109.845 281.07 109.857 279.465V278.176H110.759V279.5ZM115.834 277.543V285.348H114.908V280.766H112.588V279.992H114.908V277.543H115.834ZM116.068 286.953V287.727H109.095V284.457H110.021V286.953H116.068ZM121.672 278.293V279.066H118.508V280.367H121.555V281.094H118.508V282.535C120.025 282.529 120.974 282.477 122.094 282.254L122.187 283.016C120.969 283.25 119.984 283.309 118.285 283.309H117.629V278.293H121.672ZM126.008 277.543V283.859H125.129V281.012H123.664V283.789H122.808V277.742H123.664V280.262H125.129V277.543H126.008ZM126.008 284.398V287.949H125.105V285.148H118.988V284.398H126.008ZM135.268 277.496V280.027H136.85V280.789H135.268V283.262H134.354V277.496H135.268ZM135.268 283.801V286.109H129.549V287.129H135.654V287.832H128.647V285.43H134.354V284.492H128.623V283.801H135.268ZM133.357 278.48V279.219H127.147V278.48H129.795V277.426H130.709V278.48H133.357ZM130.252 279.688C131.764 279.688 132.748 280.344 132.76 281.398C132.748 282.453 131.764 283.109 130.252 283.109C128.729 283.109 127.732 282.453 127.744 281.398C127.732 280.344 128.729 279.688 130.252 279.688ZM130.252 280.367C129.268 280.367 128.611 280.777 128.623 281.398C128.611 282.031 129.268 282.418 130.252 282.418C131.236 282.418 131.881 282.031 131.893 281.398C131.881 280.777 131.236 280.367 130.252 280.367ZM144.917 278.504C144.917 279.969 146.838 281.246 148.713 281.504L148.338 282.254C146.721 281.984 145.122 281.088 144.448 279.805C143.78 281.094 142.174 281.984 140.557 282.254L140.182 281.504C142.057 281.246 143.967 279.992 143.967 278.504V277.906H144.917V278.504ZM149.182 283.402V284.176H144.87V287.949H143.967V284.176H139.69V283.402H149.182ZM155.784 284.527C155.784 285.447 156.276 286.426 157.272 286.988C158.257 286.373 158.784 285.336 158.784 284.527V283.953H159.686V284.527C159.686 285.594 160.472 286.672 161.808 287.129L161.351 287.809C160.308 287.439 159.575 286.713 159.218 285.84C158.895 286.684 158.257 287.48 157.296 287.891C156.282 287.504 155.638 286.736 155.327 285.863C154.958 286.707 154.237 287.434 153.241 287.809L152.772 287.129C154.085 286.637 154.882 285.523 154.893 284.527V283.953H155.784V284.527ZM160.858 277.543V283.496H159.944V277.543H160.858ZM155.233 278.152C156.815 278.152 157.964 279.137 157.964 280.59C157.964 282.02 156.815 283.004 155.233 283.004C153.651 283.004 152.503 282.02 152.503 280.59C152.503 279.137 153.651 278.152 155.233 278.152ZM155.233 278.938C154.167 278.926 153.393 279.617 153.405 280.59C153.393 281.551 154.167 282.23 155.233 282.242C156.288 282.23 157.061 281.551 157.061 280.59C157.061 279.617 156.288 278.926 155.233 278.938ZM165.021 278.34C166.439 278.352 167.458 279.564 167.61 281.516H169.942V277.531H170.857V287.973H169.942V282.277H167.622C167.511 284.316 166.474 285.594 165.021 285.594C163.485 285.594 162.407 284.188 162.407 281.973C162.407 279.758 163.485 278.352 165.021 278.34ZM165.021 279.16C163.989 279.172 163.286 280.273 163.286 281.973C163.286 283.672 163.989 284.773 165.021 284.773C166.04 284.773 166.755 283.672 166.755 281.973C166.755 280.273 166.04 279.172 165.021 279.16ZM181.722 285.84V286.613H172.183V285.84H174.55V283.027C173.66 282.564 173.12 281.814 173.12 280.871C173.12 279.254 174.702 278.199 176.929 278.188C179.156 278.199 180.738 279.254 180.738 280.871C180.738 281.797 180.216 282.541 179.355 283.004V285.84H181.722ZM176.929 278.949C175.218 278.938 174.011 279.711 174.011 280.871C174.011 282.031 175.218 282.816 176.929 282.816C178.628 282.816 179.847 282.031 179.847 280.871C179.847 279.711 178.628 278.938 176.929 278.949ZM175.452 285.84H178.429V283.355C177.978 283.479 177.474 283.543 176.929 283.543C176.396 283.543 175.898 283.484 175.452 283.367V285.84ZM183.248 287.07C182.837 287.07 182.486 286.73 182.498 286.309C182.486 285.898 182.837 285.559 183.248 285.559C183.658 285.559 183.998 285.898 183.998 286.309C183.998 286.73 183.658 287.07 183.248 287.07Z" fill="#6F7077"/>
<rect x="298" y="272" width="32" height="20" rx="4" fill="#E4ECEC"/>
<path d="M309.276 286.107C307.547 286.107 306.559 284.657 306.559 282.111C306.559 279.587 307.568 278.115 309.276 278.115C310.984 278.115 311.994 279.587 311.994 282.111C311.994 284.657 310.995 286.107 309.276 286.107ZM309.276 285.248C310.394 285.248 311.049 284.12 311.049 282.111C311.049 280.103 310.394 278.953 309.276 278.953C308.159 278.953 307.493 280.103 307.493 282.111C307.493 284.12 308.148 285.248 309.276 285.248ZM315.657 277.857L313.144 287.171H312.306L314.809 277.857H315.657ZM318.676 286.107C317.269 286.107 316.205 285.237 316.152 284.045H317.086C317.162 284.743 317.838 285.259 318.676 285.259C319.686 285.259 320.416 284.518 320.416 283.54C320.416 282.53 319.654 281.789 318.612 281.778C317.956 281.768 317.452 281.972 317.162 282.477H316.227L316.775 278.223H320.986V279.082H317.58L317.29 281.359H317.366C317.709 281.091 318.236 280.908 318.784 280.908C320.266 280.908 321.362 282.004 321.362 283.519C321.362 285.022 320.223 286.107 318.676 286.107Z" fill="#005158"/>
</svg>
