<svg width="390" height="59" viewBox="0 0 390 59" fill="none" xmlns="http://www.w3.org/2000/svg">
<rect width="390" height="59" fill="white"/>
<line x1="-1.31134e-07" y1="17.5001" x2="390" y2="17.5" stroke="#005158" stroke-width="3"/>
<rect x="44" y="9" width="17" height="17" rx="3" fill="#005158"/>
<path d="M53.4727 13.0156V21.5H52.1719V14.3047H52.125L50.0977 15.6289V14.3984L52.207 13.0156H53.4727Z" fill="white"/>
<path d="M23.8564 36.6738C23.8457 38.0059 24.7588 39.2197 26.2412 39.7139L25.7256 40.5195C24.6138 40.1274 23.7759 39.3433 23.3408 38.3389C22.9111 39.4185 22.0679 40.2725 20.9238 40.6807L20.4082 39.8857C21.9121 39.3486 22.8145 38.0488 22.8145 36.6738V35.75H23.8564V36.6738ZM28.3359 41.5293V44.9131H27.3154V42.3564H21.8154V41.5293H28.3359ZM28.3359 35.2881V41.0674H27.3154V35.2881H28.3359ZM37.0158 35.2773V38.0703H38.4231V38.9189H37.0158V42.249H35.9953V35.2773H37.0158ZM34.1799 36.1045V36.9316H30.8928V39.7354C32.7673 39.7407 33.8254 39.6816 35.0285 39.4346L35.1467 40.2617C33.8469 40.5195 32.7082 40.584 30.6457 40.584H29.883V36.1045H34.1799ZM37.424 43.8818V44.709H30.9143V41.5293H31.9348V43.8818H37.424ZM48.4889 35.6855V38.9834H45.7174V40.1006H49.6061V40.9277H40.8297V40.1006H44.7076V38.9834H41.9469V35.6855H48.4889ZM42.9459 36.4912V38.167H47.4791V36.4912H42.9459ZM48.5319 41.8408V44.9131H47.5006V42.6465H41.8073V41.8408H48.5319ZM58.7371 42.9365V43.7744H49.9285V42.9365H52.2918V40.7988H50.702V39.9717H52.1414V36.9746H50.6805V36.1367H57.9315V36.9746H56.4598V39.9717H57.8993V40.7988H56.3201V42.9365H58.7371ZM53.1512 39.9717H55.4608V36.9746H53.1512V39.9717ZM53.3123 42.9365H55.2996V40.7988H53.3123V42.9365ZM59.6075 41.0352C59.6182 39.0156 60.1875 37.3291 61.1973 35.8896H62.25C61.5088 36.9531 60.7998 39.123 60.7998 41.0352C60.7998 42.958 61.5088 45.1172 62.25 46.1914H61.1973C60.1875 44.752 59.6182 43.0654 59.6075 41.0352ZM65.9456 37.0498C65.9456 38.3496 66.8157 39.6172 68.2659 40.1221L67.7073 40.917C66.6545 40.5142 65.8704 39.7192 65.4622 38.7148C65.0432 39.832 64.2214 40.7129 63.0881 41.1426L62.5403 40.3369C64.0334 39.7998 64.925 38.4678 64.9358 37.0176V35.8789H65.9456V37.0498ZM70.5754 35.2988V42.4746H69.5549V38.3281H67.5247V37.4902H69.5549V35.2988H70.5754ZM70.7903 43.8818V44.709H64.2913V41.6689H65.3225V43.8818H70.7903ZM75.8071 35.9756V36.8027H73.0249V37.877H75.6997V38.6611H73.0249V39.832C74.3139 39.8213 75.1626 39.7729 76.1508 39.585L76.2475 40.4229C75.1196 40.6377 74.2065 40.6807 72.6704 40.6699H72.0473V35.9756H75.8071ZM79.8569 35.2988V41.1426H78.8901V38.5752H77.7085V41.0674H76.7524V35.4707H77.7085V37.748H78.8901V35.2988H79.8569ZM79.8569 41.6045V44.9131H78.8471V42.4316H73.3149V41.6045H79.8569ZM83.3913 41.0352C83.3805 43.0654 82.8112 44.752 81.8014 46.1914H80.7487C81.4899 45.1172 82.1989 42.958 82.1989 41.0352C82.1989 39.123 81.4899 36.9531 80.7487 35.8896H81.8014C82.8112 37.3291 83.3805 39.0156 83.3913 41.0352Z" fill="#005158"/>
<rect x="186.5" y="9" width="17" height="17" rx="3" fill="#005158"/>
<path d="M191.75 21.5V20.5625L194.691 17.5977C195.617 16.625 196.086 16.0859 196.086 15.3477C196.086 14.5156 195.406 13.9766 194.516 13.9766C193.578 13.9766 192.969 14.5742 192.969 15.4766H191.75C191.738 13.9297 192.922 12.8984 194.539 12.8984C196.18 12.8984 197.305 13.9297 197.316 15.3125C197.305 16.2617 196.859 17.0117 195.266 18.582L193.543 20.3281V20.3984H197.457V21.5H191.75Z" fill="white"/>
<path d="M174.271 36.7275C174.271 38.0811 175.141 39.2842 176.602 39.7568L176.043 40.5518C174.985 40.1704 174.206 39.4292 173.787 38.4678C173.368 39.5688 172.53 40.4229 171.37 40.8418L170.822 40.0254C172.358 39.499 173.25 38.2207 173.261 36.7705V35.8252H174.271V36.7275ZM178.879 35.2881V40.9707H177.858V38.0811H175.828V37.2432H177.858V35.2881H178.879ZM175.656 41.2393C177.676 41.2393 178.911 41.9053 178.911 43.0762C178.911 44.2363 177.676 44.9023 175.656 44.8916C173.637 44.9023 172.391 44.2363 172.401 43.0762C172.391 41.9053 173.637 41.2393 175.656 41.2393ZM175.656 42.0342C174.249 42.0342 173.411 42.4102 173.411 43.0762C173.411 43.7207 174.249 44.0859 175.656 44.0859C177.063 44.0859 177.901 43.7207 177.901 43.0762C177.901 42.4102 177.063 42.0342 175.656 42.0342ZM188.751 40.3262V41.1426H184.927V42.915H183.917V41.1426H179.943V40.3262H188.751ZM187.774 43.8818V44.709H181.038V42.0771H182.048V43.8818H187.774ZM182.113 35.5889V36.7598H186.571V35.5889H187.591V39.4775H181.103V35.5889H182.113ZM182.113 38.6611H186.571V37.5225H182.113V38.6611ZM194.724 37.0498C194.724 38.3496 195.594 39.6172 197.045 40.1221L196.486 40.917C195.433 40.5142 194.649 39.7192 194.241 38.7148C193.822 39.832 193 40.7129 191.867 41.1426L191.319 40.3369C192.812 39.7998 193.704 38.4678 193.714 37.0176V35.8789H194.724V37.0498ZM199.354 35.2988V42.4746H198.334V38.3281H196.303V37.4902H198.334V35.2988H199.354ZM199.569 43.8818V44.709H193.07V41.6689H194.101V43.8818H199.569ZM208.764 36.6416V37.4688H200.847V36.6416H204.306V35.4277H205.316V36.6416H208.764ZM209.237 43.001V43.8281H200.429V43.001H204.306V41.7227C202.62 41.6206 201.599 40.9546 201.599 39.8857C201.599 38.7256 202.824 38.0488 204.811 38.0488C206.777 38.0488 208.013 38.7256 208.013 39.8857C208.013 40.9546 206.987 41.6206 205.316 41.7227V43.001H209.237ZM204.811 38.8545C203.436 38.8545 202.631 39.2197 202.641 39.8857C202.631 40.5518 203.436 40.917 204.811 40.9277C206.165 40.917 206.971 40.5518 206.971 39.8857C206.971 39.2197 206.165 38.8545 204.811 38.8545ZM217.326 39.7246V40.541H214.415V42.8936H218.336V43.7314H209.527V42.8936H213.405V40.541H210.623V36.0293H217.24V36.8564H211.644V39.7246H217.326Z" fill="#005158"/>
<rect x="329" y="9" width="17" height="17" rx="3" fill="#005158"/>
<path d="M337.262 21.6172C335.504 21.6172 334.25 20.668 334.203 19.2852H335.516C335.562 20.0352 336.301 20.5039 337.25 20.5039C338.27 20.5039 339.02 19.9414 339.02 19.1211C339.02 18.2891 338.316 17.6797 337.109 17.6797H336.383V16.625H337.109C338.07 16.625 338.75 16.0859 338.75 15.2773C338.75 14.5039 338.176 13.9766 337.273 13.9766C336.418 13.9766 335.668 14.4453 335.633 15.2188H334.391C334.426 13.8359 335.703 12.8984 337.285 12.8984C338.949 12.8984 340.004 13.9531 339.992 15.207C340.004 16.168 339.406 16.8711 338.492 17.0938V17.1523C339.652 17.3164 340.32 18.0898 340.32 19.168C340.32 20.5859 339.02 21.6172 337.262 21.6172Z" fill="white"/>
<path d="M331.276 35.7178C332.684 35.7178 333.672 36.4912 333.683 37.6406C333.672 38.6182 332.931 39.3379 331.813 39.5098V40.3584C332.667 40.3154 333.521 40.2402 334.316 40.1221L334.392 40.874C332.372 41.2393 330.105 41.2715 328.451 41.2715L328.344 40.4443C329.063 40.4497 329.907 40.4443 330.793 40.4121V39.5205C329.644 39.3594 328.87 38.6343 328.881 37.6406C328.87 36.4912 329.869 35.7178 331.276 35.7178ZM331.276 36.502C330.428 36.502 329.826 36.9424 329.837 37.6406C329.826 38.3174 330.428 38.7686 331.276 38.7686C332.136 38.7686 332.716 38.3174 332.716 37.6406C332.716 36.9424 332.136 36.502 331.276 36.502ZM335.928 35.2988V38.4785H337.303V39.3379H335.928V42.6572H334.907V35.2988H335.928ZM336.271 43.8711V44.709H329.708V42.0127H330.729V43.8711H336.271ZM346.262 42.9043V43.7637H337.453V42.9043H339.86V41.207H338.528V38.1455H344.178V36.8027H338.506V35.9648H345.188V38.9727H339.537V40.3691H345.413V41.207H343.952V42.9043H346.262ZM340.848 42.9043H342.953V41.207H340.848V42.9043Z" fill="#005158"/>
</svg>
