<svg width="350" height="570" viewBox="0 0 350 570" fill="none" xmlns="http://www.w3.org/2000/svg">
<mask id="path-1-inside-1_806_3060" fill="white">
<path d="M0 8C0 3.58172 3.58172 0 8 0H342C346.418 0 350 3.58172 350 8V42H0V8Z"/>
</mask>
<path d="M-1 8C-1 3.02944 3.02944 -1 8 -1H342C346.971 -1 351 3.02944 351 8H349C349 4.13401 345.866 1 342 1H8C4.13401 1 1 4.13401 1 8H-1ZM1 8M350 42H0H350M-1 42V8C-1 3.02944 3.02944 -1 8 -1V1C4.13401 1 1 4.13401 1 8V42H-1ZM342 -1C346.971 -1 351 3.02944 351 8V42H349V8C349 4.13401 345.866 1 342 1V-1Z" fill="#E3E4E8" mask="url(#path-1-inside-1_806_3060)"/>
<path d="M22.7715 17.1543C22.7715 18.8086 23.8789 20.4219 25.7246 21.0645L25.0137 22.0762C23.6738 21.5635 22.6758 20.5518 22.1562 19.2734C21.623 20.6953 20.5771 21.8164 19.1348 22.3633L18.4375 21.3379C20.3379 20.6543 21.4727 18.959 21.4863 17.1133V15.6641H22.7715V17.1543ZM28.6641 14.9258V24.0586H27.3652V18.7812H24.7812V17.7148H27.3652V14.9258H28.6641ZM28.9375 25.8496V26.9023H20.666V23.0332H21.9785V25.8496H28.9375ZM35.4338 15.7871V16.8398H31.8928V18.207H35.2971V19.2051H31.8928V20.6953C33.5334 20.6816 34.6135 20.6201 35.8713 20.3809L35.9943 21.4473C34.5588 21.7207 33.3967 21.7754 31.4416 21.7617H30.6486V15.7871H35.4338ZM40.5881 14.9258V22.3633H39.3576V19.0957H37.8537V22.2676H36.6369V15.1445H37.8537V18.043H39.3576V14.9258H40.5881ZM40.5881 22.9512V27.1621H39.3029V24.0039H32.2619V22.9512H40.5881ZM48.9711 18.8359V19.8887H46.5785V21.4336C47.6654 21.3857 48.7455 21.3105 49.7504 21.2012L49.8461 22.1582C47.2348 22.5137 44.3637 22.582 42.0668 22.582L41.8891 21.543C42.935 21.5361 44.1039 21.5225 45.2934 21.4883V19.8887H42.9828V15.6914H48.8617V16.7441H44.2817V18.8359H48.9711ZM51.9926 14.9121V24.0996H50.6938V14.9121H51.9926ZM52.3754 25.8496V26.9023H43.9125V23.4434H45.2113V25.8496H52.3754ZM60.8836 16.7441C60.8836 18.4668 61.991 19.998 63.8504 20.5996L63.1395 21.6113C61.7928 21.126 60.8016 20.1826 60.2684 18.959C59.7352 20.3604 58.6688 21.4473 57.1922 21.9805L56.495 20.9414C58.45 20.2715 59.5848 18.6445 59.5985 16.7988V15.5957H60.8836V16.7441ZM66.7489 14.9121V22.1445H65.45V18.4668H62.866V17.4004H65.45V14.9121H66.7489ZM62.6473 22.4863C65.2176 22.4863 66.7899 23.334 66.7899 24.8242C66.7899 26.3008 65.2176 27.1484 62.6473 27.1348C60.077 27.1484 58.491 26.3008 58.5047 24.8242C58.491 23.334 60.077 22.4863 62.6473 22.4863ZM62.6473 23.498C60.8563 23.498 59.7899 23.9766 59.7899 24.8242C59.7899 25.6445 60.8563 26.1094 62.6473 26.1094C64.4383 26.1094 65.5047 25.6445 65.5047 24.8242C65.5047 23.9766 64.4383 23.498 62.6473 23.498ZM79.4248 21.3242V22.3633H74.5577V24.6191H73.2725V22.3633H68.2139V21.3242H79.4248ZM78.1807 25.8496V26.9023H69.6084V23.5527H70.8936V25.8496H78.1807ZM70.9756 15.2949V16.7852H76.6495V15.2949H77.9483V20.2441H69.6905V15.2949H70.9756ZM70.9756 19.2051H76.6495V17.7559H70.9756V19.2051ZM87.1127 16.1016V26H85.5952V17.6055H85.5405L83.1752 19.1504V17.7148L85.6362 16.1016H87.1127ZM99.2829 14.9121V27.1621H98.0387V20.8047H96.5212V26.5742H95.3044V15.2402H96.5212V19.752H98.0387V14.9121H99.2829ZM94.0876 16.4707C94.0739 19.6973 93.0075 22.582 89.5075 24.5645L88.7555 23.6621C91.4762 22.124 92.6247 20.0391 92.8298 17.5371H89.2751V16.4707H94.0876Z" fill="black"/>
<rect width="16" height="16" transform="translate(324 29) rotate(-90)" fill="white"/>
<path d="M327.131 23.2271L332.168 18.1396C332.257 18.0501 332.376 18 332.499 18C332.623 18 332.742 18.0501 332.83 18.1396L337.869 23.2271C337.91 23.2686 337.943 23.3183 337.966 23.3732C337.988 23.4282 338 23.4873 338 23.547C338 23.6067 337.988 23.6657 337.966 23.7207C337.943 23.7757 337.91 23.8254 337.869 23.8668C337.784 23.9522 337.671 24 337.553 24C337.435 24 337.321 23.9522 337.237 23.8668L332.499 19.0831L327.763 23.8653C327.679 23.9507 327.565 23.9985 327.447 23.9985C327.329 23.9985 327.216 23.9507 327.131 23.8653C327.09 23.8238 327.057 23.7741 327.034 23.7192C327.012 23.6642 327 23.6051 327 23.5454C327 23.4857 327.012 23.4266 327.034 23.3717C327.057 23.3167 327.09 23.267 327.131 23.2255" fill="#82838A"/>
<mask id="path-5-inside-2_806_3060" fill="white">
<path d="M0 42H350V172H0V42Z"/>
</mask>
<path d="M350 42H349V172H350H351V42H350ZM0 172H1V42H0H-1V172H0Z" fill="#E3E4E8" mask="url(#path-5-inside-2_806_3060)"/>
<rect x="20.5" y="56" width="14" height="14" rx="2.5" fill="white"/>
<rect x="20.5" y="56" width="14" height="14" rx="2.5" stroke="#83848C"/>
<path d="M57.6484 63.8301V64.8965H54.8047V69.1621H53.4922V64.8965H50.5664V69.1621H49.2266V64.8965H46.4375V63.8301H57.6484ZM52.0156 57.377C54.5996 57.377 56.377 58.4297 56.377 60.084C56.377 61.7109 54.5996 62.75 52.0156 62.7363C49.418 62.75 47.6543 61.7109 47.6543 60.084C47.6543 58.4297 49.418 57.377 52.0156 57.377ZM52.0156 58.416C50.1973 58.4297 48.9805 59.0586 48.9941 60.084C48.9805 61.082 50.1973 61.7109 52.0156 61.7109C53.834 61.7109 55.0508 61.082 55.0508 60.084C55.0508 59.0586 53.834 58.4297 52.0156 58.416ZM68.6565 56.9121V69.1621H67.4123V56.9121H68.6565ZM66.1682 57.1719V68.5469H64.9377V62.3125H63.0373V61.2461H64.9377V57.1719H66.1682ZM61.8342 60.3301C61.8342 62.4219 62.6818 64.5137 64.4045 65.5117L63.6252 66.4688C62.4563 65.7715 61.6496 64.5342 61.2326 63.0508C60.7883 64.6504 59.9543 66.0107 58.758 66.7559L57.965 65.7852C59.7014 64.7324 60.59 62.5039 60.59 60.3301V59.3457H58.3342V58.293H63.9397V59.3457H61.8342V60.3301ZM81.0043 62.7773V63.8164H76.0551V65.1289H79.6371V69.0117H71.1742V65.1289H74.7699V63.8164H69.8344V62.7773H81.0043ZM79.9516 57.2949V58.3477H78.1742V60.6855H79.8969V61.7383H70.9145V60.6855H72.6508V58.3477H70.8598V57.2949H79.9516ZM72.4594 66.1543V67.959H78.3793V66.1543H72.4594ZM73.936 60.6855H76.8754V58.3477H73.936V60.6855Z" fill="black"/>
<rect width="16" height="16" transform="matrix(1.19249e-08 1 1 -1.19249e-08 314 55)" fill="white"/>
<path d="M317.131 60.7729L322.168 65.8604C322.257 65.9499 322.376 66 322.499 66C322.623 66 322.742 65.9499 322.83 65.8604L327.869 60.7729C327.91 60.7314 327.943 60.6817 327.966 60.6268C327.988 60.5718 328 60.5127 328 60.453C328 60.3933 327.988 60.3343 327.966 60.2793C327.943 60.2243 327.91 60.1746 327.869 60.1332C327.784 60.0478 327.671 60 327.553 60C327.435 60 327.321 60.0478 327.237 60.1332L322.499 64.9169L317.763 60.1347C317.679 60.0493 317.565 60.0015 317.447 60.0015C317.329 60.0015 317.216 60.0493 317.131 60.1347C317.09 60.1762 317.057 60.2259 317.034 60.2808C317.012 60.3358 317 60.3949 317 60.4546C317 60.5143 317.012 60.5734 317.034 60.6283C317.057 60.6833 317.09 60.733 317.131 60.7745" fill="#82838A"/>
<rect x="20.5" y="100" width="14" height="14" rx="2.5" fill="white"/>
<rect x="20.5" y="100" width="14" height="14" rx="2.5" stroke="#83848C"/>
<path d="M56.6641 100.926V110.018H55.3652V107.201H52.2344V106.135H55.3652V104.453H52.4121C51.5303 106.36 49.6914 107.796 47.2031 108.582L46.6426 107.557C49.4316 106.654 51.2773 104.993 51.5508 102.908H47.2715V101.869H52.959C52.959 102.402 52.8906 102.915 52.7676 103.4H55.3652V100.926H56.6641ZM56.9785 111.85V112.902H48.7754V109.115H50.0879V111.85H56.9785ZM64.965 102.225V102.977C64.965 104.002 64.965 105.588 64.6096 107.775L63.3244 107.68C63.632 105.718 63.6662 104.303 63.6799 103.277H58.7033V102.225H64.965ZM61.8205 105.725V109.389C63.1262 109.348 64.4524 109.259 65.676 109.102L65.7443 110.072C63.1877 110.482 60.344 110.537 58.1701 110.523L58.0197 109.471C58.7854 109.464 59.6399 109.457 60.5354 109.43V105.725H61.8205ZM67.6858 100.912V105.971H69.5588V107.078H67.6858V113.162H66.3733V100.912H67.6858ZM81.0317 108.186V109.211H78.2153V113.162H76.9028V109.211H73.9496V113.162H72.6508V109.211H69.8207V108.186H81.0317ZM79.7055 101.35V104.631H72.4867V105.984H79.9653V107.037H71.1879V103.66H78.3793V102.416H71.1469V101.35H79.7055Z" fill="black"/>
<rect width="16" height="16" transform="matrix(1.19249e-08 1 1 -1.19249e-08 314 99)" fill="white"/>
<path d="M317.131 104.773L322.168 109.86C322.257 109.95 322.376 110 322.499 110C322.623 110 322.742 109.95 322.83 109.86L327.869 104.773C327.91 104.731 327.943 104.682 327.966 104.627C327.988 104.572 328 104.513 328 104.453C328 104.393 327.988 104.334 327.966 104.279C327.943 104.224 327.91 104.175 327.869 104.133C327.784 104.048 327.671 104 327.553 104C327.435 104 327.321 104.048 327.237 104.133L322.499 108.917L317.763 104.135C317.679 104.049 317.565 104.002 317.447 104.002C317.329 104.002 317.216 104.049 317.131 104.135C317.09 104.176 317.057 104.226 317.034 104.281C317.012 104.336 317 104.395 317 104.455C317 104.514 317.012 104.573 317.034 104.628C317.057 104.683 317.09 104.733 317.131 104.774" fill="#82838A"/>
<rect x="20.5" y="144" width="14" height="14" rx="2.5" fill="white"/>
<rect x="20.5" y="144" width="14" height="14" rx="2.5" stroke="#83848C"/>
<path d="M52.918 145.568V150.613H47.0938V145.568H52.918ZM48.3652 146.621V149.602H51.6328V146.621H48.3652ZM56.5957 144.912V151.188H55.3105V144.912H56.5957ZM56.5957 151.775V154.824H49.8555V156H56.9922V157.039H48.584V153.881H55.3242V152.787H48.5566V151.775H56.5957ZM67.6858 144.912V149.793H69.5861V150.873H67.6858V157.148H66.3869V144.912H67.6858ZM64.4865 146.197C64.4729 149.738 62.9143 152.896 58.8811 154.893L58.1565 153.881C61.2258 152.35 62.8938 150.135 63.1604 147.277H58.7717V146.197H64.4865ZM79.7055 145.363V148.699H72.4867V150.107H79.9653V151.16H71.1879V147.701H78.3793V146.416H71.1469V145.363H79.7055ZM81.0317 152.322V153.361H76.0551V157.189H74.7563V153.361H69.8207V152.322H81.0317Z" fill="black"/>
<rect width="16" height="16" transform="matrix(1.19249e-08 1 1 -1.19249e-08 314 143)" fill="white"/>
<path d="M317.131 148.773L322.168 153.86C322.257 153.95 322.376 154 322.499 154C322.623 154 322.742 153.95 322.83 153.86L327.869 148.773C327.91 148.731 327.943 148.682 327.966 148.627C327.988 148.572 328 148.513 328 148.453C328 148.393 327.988 148.334 327.966 148.279C327.943 148.224 327.91 148.175 327.869 148.133C327.784 148.048 327.671 148 327.553 148C327.435 148 327.321 148.048 327.237 148.133L322.499 152.917L317.763 148.135C317.679 148.049 317.565 148.002 317.447 148.002C317.329 148.002 317.216 148.049 317.131 148.135C317.09 148.176 317.057 148.226 317.034 148.281C317.012 148.336 317 148.395 317 148.455C317 148.514 317.012 148.573 317.034 148.628C317.057 148.683 317.09 148.733 317.131 148.774" fill="#82838A"/>
<rect x="0.5" y="172.5" width="349" height="311" rx="9.5" fill="#FEFFFF"/>
<rect x="0.5" y="172.5" width="349" height="311" rx="9.5" stroke="#005158"/>
<rect x="20" y="187.5" width="15" height="15" rx="3" fill="#005158"/>
<path d="M30.948 192.473C31.1355 192.652 31.143 192.948 30.9643 193.135L26.7974 197.51C26.7536 197.556 26.701 197.593 26.6426 197.618C26.5843 197.643 26.5215 197.656 26.458 197.656C26.3946 197.656 26.3318 197.643 26.2734 197.618C26.2151 197.593 26.1624 197.556 26.1186 197.51L24.0355 195.323C23.9913 195.279 23.9563 195.226 23.9327 195.168C23.909 195.11 23.8972 195.048 23.898 194.986C23.8987 194.923 23.912 194.861 23.937 194.804C23.962 194.747 23.9982 194.695 24.0435 194.652C24.0888 194.609 24.1423 194.575 24.2008 194.553C24.2593 194.531 24.3216 194.52 24.3841 194.523C24.4467 194.525 24.5081 194.54 24.5648 194.566C24.6215 194.593 24.6723 194.63 24.7143 194.677L26.458 196.508L30.2855 192.489C30.3712 192.399 30.4892 192.347 30.6134 192.344C30.7376 192.341 30.858 192.387 30.948 192.473Z" fill="white"/>
<path d="M56.0898 188.912V192.016H57.8535V193.082H56.0898V196.145H54.7773V188.912H56.0898ZM52.125 196.377C54.627 196.377 56.1855 197.252 56.1855 198.756C56.1855 200.26 54.627 201.148 52.125 201.135C49.5957 201.148 48.0098 200.26 48.0098 198.756C48.0098 197.252 49.5957 196.377 52.125 196.377ZM52.125 197.43C50.3477 197.416 49.2812 197.908 49.2949 198.756C49.2812 199.604 50.3477 200.096 52.125 200.096C53.8613 200.096 54.9277 199.604 54.9414 198.756C54.9277 197.908 53.8613 197.416 52.125 197.43ZM52.4395 189.814V190.867H48.2559V194.203C50.6689 194.196 52.0293 194.121 53.5742 193.807L53.6973 194.859C52.0566 195.201 50.5938 195.256 47.9414 195.256H46.9707V189.814H52.4395ZM69.34 196.186V197.211H66.5236V201.162H65.2111V197.211H62.258V201.162H60.9592V197.211H58.1291V196.186H69.34ZM68.0139 189.35V192.631H60.7951V193.984H68.2736V195.037H59.4963V191.66H66.6877V190.416H59.4553V189.35H68.0139Z" fill="black"/>
<rect width="16" height="16" transform="translate(314 203) rotate(-90)" fill="white"/>
<path d="M317.131 197.227L322.168 192.14C322.257 192.05 322.376 192 322.499 192C322.623 192 322.742 192.05 322.83 192.14L327.869 197.227C327.91 197.269 327.943 197.318 327.966 197.373C327.988 197.428 328 197.487 328 197.547C328 197.607 327.988 197.666 327.966 197.721C327.943 197.776 327.91 197.825 327.869 197.867C327.784 197.952 327.671 198 327.553 198C327.435 198 327.321 197.952 327.237 197.867L322.499 193.083L317.763 197.865C317.679 197.951 317.565 197.998 317.447 197.998C317.329 197.998 317.216 197.951 317.131 197.865C317.09 197.824 317.057 197.774 317.034 197.719C317.012 197.664 317 197.605 317 197.545C317 197.486 317.012 197.427 317.034 197.372C317.057 197.317 317.09 197.267 317.131 197.226" fill="#82838A"/>
<path d="M30.0078 235.953V239.125H31.8262V240.027H30.0078V243.213H28.9277V235.953H30.0078ZM26.0977 243.445C28.5723 243.445 30.1035 244.307 30.1035 245.756C30.1035 247.232 28.5723 248.08 26.0977 248.08C23.6094 248.08 22.0645 247.232 22.0645 245.756C22.0645 244.307 23.6094 243.445 26.0977 243.445ZM26.0977 244.334C24.2656 244.32 23.1172 244.867 23.1172 245.756C23.1172 246.658 24.2656 247.219 26.0977 247.219C27.916 247.219 29.0645 246.658 29.0645 245.756C29.0645 244.867 27.916 244.32 26.0977 244.334ZM26.4531 236.883V237.771H22.1055V241.34C24.5664 241.326 25.9883 241.251 27.6152 240.916L27.7246 241.805C26.0293 242.146 24.5664 242.215 21.9961 242.215H21.0527V236.883H26.4531ZM43.299 243.213V244.074H40.3733V248.107H39.3068V244.074H36.1623V248.107H35.0822V244.074H32.1701V243.213H43.299ZM41.9455 236.432V239.549H34.6174V241.066H42.2053V241.955H33.5373V238.715H40.8518V237.32H33.51V236.432H41.9455ZM57.0299 235.953V248.107H55.9498V235.953H57.0299ZM53.4342 237.279C53.4205 240.779 51.7936 243.869 47.7194 245.824L47.1315 244.949C50.4196 243.391 52.0944 241.06 52.3405 238.154H47.692V237.279H53.4342ZM64.9071 237.471C64.8934 238.961 66.9442 240.178 69.0907 240.479L68.6668 241.326C66.7049 241.046 64.8729 240.062 64.2098 238.633C63.5535 240.062 61.7284 241.046 59.7528 241.326L59.3563 240.479C61.5028 240.178 63.5125 238.961 63.5125 237.471V237.443H59.6844V236.568H68.7625V237.443H64.9071V237.471ZM69.7879 242.215V243.104H64.8387V245.592H63.7723V243.104H58.659V242.215H69.7879ZM68.5438 246.945V247.848H60.0809V244.375H61.161V246.945H68.5438ZM83.5461 235.953V242.242H82.4661V239.084H79.759V238.195H82.4661V235.953H83.5461ZM83.5461 242.857V245.756H76.7512V247.082H83.9973V247.943H75.6985V244.936H82.4797V243.719H75.6711V242.857H83.5461ZM77.6125 237.498C77.5989 239.098 78.8567 240.547 80.634 241.135L80.0598 241.969C78.7131 241.49 77.6399 240.533 77.1067 239.303C76.5872 240.69 75.4866 241.75 74.0442 242.27L73.4563 241.408C75.2883 240.807 76.5461 239.275 76.5598 237.498V236.35H77.6125V237.498ZM95.2377 235.953V243.199H94.1577V240.014H91.7104V239.125H94.1577V235.953H95.2377ZM91.2045 243.582C93.7338 243.582 95.2788 244.402 95.2788 245.838C95.2788 247.273 93.7338 248.094 91.2045 248.107C88.6752 248.094 87.1303 247.273 87.1303 245.838C87.1303 244.402 88.6752 243.582 91.2045 243.582ZM91.2045 244.416C89.3452 244.416 88.1831 244.949 88.1967 245.838C88.1831 246.713 89.3452 247.246 91.2045 247.246C93.0639 247.246 94.2124 246.713 94.2124 245.838C94.2124 244.949 93.0639 244.416 91.2045 244.416ZM89.3862 238.182C89.3862 239.768 90.603 241.271 92.3803 241.887L91.8198 242.748C90.4526 242.256 89.393 241.237 88.8803 239.973C88.3471 241.401 87.2192 242.543 85.7768 243.09L85.2163 242.229C87.021 241.572 88.3061 239.932 88.3061 238.195V237.744H85.5581V236.842H92.1069V237.744H89.3862V238.182Z" fill="black"/>
<path d="M100.533 243.766C100.545 241.551 101.142 239.711 102.221 238.152H103.111C102.314 239.312 101.576 241.68 101.576 243.766C101.576 245.852 102.314 248.23 103.111 249.391H102.221C101.142 247.82 100.545 245.98 100.533 243.766ZM106.406 249.52C104.871 249.52 103.828 248.852 103.711 247.668H104.766C104.906 248.312 105.504 248.641 106.406 248.641C107.496 248.641 108.164 248.172 108.164 247.117V245.828H108.082C107.871 246.18 107.461 246.906 106.231 246.906C104.684 246.906 103.524 245.734 103.524 243.73C103.524 241.773 104.649 240.555 106.242 240.555C107.473 240.555 107.871 241.305 108.106 241.645H108.188V240.637H109.172V247.176C109.172 248.816 107.953 249.52 106.406 249.52ZM106.371 246.004C107.531 246.004 108.188 245.172 108.188 243.766C108.188 242.406 107.555 241.457 106.371 241.457C105.152 241.457 104.543 242.488 104.543 243.766C104.543 245.09 105.164 246.004 106.371 246.004ZM112.584 243.766C112.573 245.98 111.975 247.82 110.897 249.391H110.006C110.803 248.23 111.541 245.852 111.541 243.766C111.541 241.68 110.803 239.312 110.006 238.152H110.897C111.975 239.711 112.573 241.551 112.584 243.766Z" fill="#83848C"/>
<path d="M23.5742 293.117C21.6875 293.117 20.6094 291.535 20.6094 288.758C20.6094 286.004 21.7109 284.398 23.5742 284.398C25.4375 284.398 26.5391 286.004 26.5391 288.758C26.5391 291.535 25.4492 293.117 23.5742 293.117ZM23.5742 292.18C24.793 292.18 25.5078 290.949 25.5078 288.758C25.5078 286.566 24.793 285.312 23.5742 285.312C22.3555 285.312 21.6289 286.566 21.6289 288.758C21.6289 290.949 22.3438 292.18 23.5742 292.18ZM30.1272 295.52C28.592 295.52 27.549 294.852 27.4318 293.668H28.4865C28.6272 294.312 29.2248 294.641 30.1272 294.641C31.217 294.641 31.885 294.172 31.885 293.117V291.828H31.8029C31.592 292.18 31.1818 292.906 29.9514 292.906C28.4045 292.906 27.2443 291.734 27.2443 289.73C27.2443 287.773 28.3693 286.555 29.9631 286.555C31.1936 286.555 31.592 287.305 31.8264 287.645H31.9084V286.637H32.8928V293.176C32.8928 294.816 31.674 295.52 30.1272 295.52ZM30.092 292.004C31.2522 292.004 31.9084 291.172 31.9084 289.766C31.9084 288.406 31.2756 287.457 30.092 287.457C28.8733 287.457 28.2639 288.488 28.2639 289.766C28.2639 291.09 28.885 292.004 30.092 292.004Z" fill="#83848C"/>
<path d="M88.9727 284.516V293H87.6719V285.805H87.625L85.5977 287.129V285.898L87.707 284.516H88.9727ZM93.674 293.117C91.7053 293.117 90.5568 291.535 90.5568 288.758C90.5568 286.004 91.7287 284.398 93.674 284.398C95.6193 284.398 96.7912 286.004 96.7912 288.758C96.7912 291.535 95.6311 293.117 93.674 293.117ZM93.674 292.004C94.8225 292.004 95.5022 290.879 95.5022 288.758C95.5022 286.648 94.8108 285.488 93.674 285.488C92.5373 285.488 91.8459 286.648 91.8459 288.758C91.8459 290.879 92.5256 292.004 93.674 292.004ZM100.403 295.52C98.7973 295.52 97.7426 294.805 97.6254 293.621H98.9028C99.0199 294.219 99.5824 294.512 100.414 294.512C101.411 294.512 102.043 294.09 102.043 293.094V291.84H101.961C101.739 292.25 101.282 292.906 100.11 292.906C98.6098 292.906 97.4496 291.781 97.4496 289.754C97.4496 287.727 98.5863 286.555 100.122 286.555C101.305 286.555 101.739 287.27 101.973 287.668H102.055V286.637H103.274V293.141C103.274 294.77 102.043 295.52 100.403 295.52ZM100.391 291.875C101.457 291.875 102.055 291.09 102.055 289.777C102.055 288.488 101.469 287.621 100.391 287.621C99.2778 287.621 98.727 288.559 98.727 289.777C98.727 291.02 99.3012 291.875 100.391 291.875Z" fill="#005158"/>
<line x1="123.5" y1="286.5" x2="123.5" y2="291.5" stroke="#83848C" stroke-linecap="round"/>
<line x1="141.5" y1="286.5" x2="141.5" y2="291.5" stroke="#83848C" stroke-linecap="round"/>
<line x1="159.5" y1="286.5" x2="159.5" y2="291.5" stroke="#83848C" stroke-linecap="round"/>
<line x1="177.5" y1="286.5" x2="177.5" y2="291.5" stroke="#83848C" stroke-linecap="round"/>
<line x1="195.5" y1="286.5" x2="195.5" y2="291.5" stroke="#83848C" stroke-linecap="round"/>
<line x1="213.5" y1="286.5" x2="213.5" y2="291.5" stroke="#83848C" stroke-linecap="round"/>
<line x1="231.5" y1="286.5" x2="231.5" y2="291.5" stroke="#83848C" stroke-linecap="round"/>
<line x1="249.5" y1="286.5" x2="249.5" y2="291.5" stroke="#83848C" stroke-linecap="round"/>
<line x1="267.5" y1="286.5" x2="267.5" y2="291.5" stroke="#83848C" stroke-linecap="round"/>
<path d="M288.562 293.117C287.027 293.117 285.867 292.168 285.809 290.867H286.828C286.91 291.629 287.648 292.191 288.562 292.191C289.664 292.191 290.461 291.383 290.461 290.316C290.461 289.215 289.629 288.406 288.492 288.395C287.777 288.383 287.227 288.605 286.91 289.156H285.891L286.488 284.516H291.082V285.453H287.367L287.051 287.938H287.133C287.508 287.645 288.082 287.445 288.68 287.445C290.297 287.445 291.492 288.641 291.492 290.293C291.492 291.934 290.25 293.117 288.562 293.117ZM295.326 293.117C293.44 293.117 292.362 291.535 292.362 288.758C292.362 286.004 293.463 284.398 295.326 284.398C297.19 284.398 298.291 286.004 298.291 288.758C298.291 291.535 297.201 293.117 295.326 293.117ZM295.326 292.18C296.545 292.18 297.26 290.949 297.26 288.758C297.26 286.566 296.545 285.312 295.326 285.312C294.108 285.312 293.381 286.566 293.381 288.758C293.381 290.949 294.096 292.18 295.326 292.18ZM301.879 295.52C300.344 295.52 299.301 294.852 299.184 293.668H300.239C300.379 294.312 300.977 294.641 301.879 294.641C302.969 294.641 303.637 294.172 303.637 293.117V291.828H303.555C303.344 292.18 302.934 292.906 301.704 292.906C300.157 292.906 298.997 291.734 298.997 289.73C298.997 287.773 300.122 286.555 301.715 286.555C302.946 286.555 303.344 287.305 303.579 287.645H303.661V286.637H304.645V293.176C304.645 294.816 303.426 295.52 301.879 295.52ZM301.844 292.004C303.004 292.004 303.661 291.172 303.661 289.766C303.661 288.406 303.028 287.457 301.844 287.457C300.625 287.457 300.016 288.488 300.016 289.766C300.016 291.09 300.637 292.004 301.844 292.004ZM308.315 292.426V290.152H306.053V289.203H308.315V286.941H309.264V289.203H311.538V290.152H309.264V292.426H308.315Z" fill="#83848C"/>
<line x1="25.5" y1="271.5" x2="295.5" y2="271.5" stroke="#DBDBDB" stroke-width="5" stroke-linecap="round"/>
<line x1="25.5" y1="271.5" x2="92.5" y2="271.5" stroke="#005158" stroke-width="5" stroke-linecap="round"/>
<g filter="url(#filter0_d_806_3060)">
<rect x="84" y="265" width="14" height="14" rx="7" fill="#005158"/>
</g>
<path d="M30.541 324.953V337.107H29.4609V324.953H30.541ZM27.7383 326.279V327.168H26.3574V333.02C27.041 332.972 27.7178 332.91 28.3672 332.828L28.4355 333.635C25.7832 334.045 22.8574 334.086 20.6016 334.1L20.4785 333.184L22.1602 333.17V327.168H20.793V326.279H27.7383ZM23.2129 333.156C23.8965 333.143 24.6006 333.115 25.3047 333.074V327.168H23.2129V333.156ZM41.59 324.953V329.971H43.6272V330.859H41.59V337.107H40.5236V324.953H41.59ZM39.3479 326.908V327.797H32.1154V326.908H35.2463V325.104H36.3127V326.908H39.3479ZM35.7932 328.809C37.5158 328.809 38.76 329.957 38.7736 331.598C38.76 333.238 37.5158 334.387 35.7932 334.387C34.0568 334.387 32.799 333.238 32.8127 331.598C32.799 329.957 34.0568 328.809 35.7932 328.809ZM35.7932 329.711C34.6584 329.711 33.8244 330.504 33.8381 331.598C33.8244 332.705 34.6584 333.484 35.7932 333.471C36.9143 333.484 37.7346 332.705 37.7483 331.598C37.7346 330.504 36.9143 329.711 35.7932 329.711ZM53.6235 326.184V327.4C53.6098 328.891 53.6098 330.559 53.1723 333.006L52.0785 332.883C52.5434 330.559 52.5434 328.85 52.5434 327.4V327.072H45.0512V326.184H53.6235ZM54.9496 334.496V335.385H43.8754V334.496H48.2231V330.148H49.2758V334.496H54.9496ZM68.7078 324.967V331.721H67.6414V324.967H68.7078ZM62.9793 326.607C62.9657 328.289 64.2782 329.807 66.0828 330.395L65.5633 331.242C64.1278 330.757 62.993 329.745 62.4461 328.426C61.8993 329.841 60.7508 330.948 59.3016 331.461L58.7547 330.613C60.5868 329.971 61.8856 328.371 61.8856 326.607V325.418H62.9793V326.607ZM68.7899 332.445V333.32H67.1082V336.068H68.9129V336.943H60.5047V336.068H62.3231V333.32H60.6141V332.445H68.7899ZM63.3758 336.068H66.0418V333.32H63.3758V336.068ZM81.4385 331.365V332.24H70.3643V331.365H81.4385ZM80.208 335.945V336.848H71.7998V333.307H72.8799V335.945H80.208ZM75.9014 325.391C78.5127 325.377 80.1944 326.279 80.1944 327.797C80.1944 329.314 78.5127 330.217 75.9014 330.217C73.2627 330.217 71.5948 329.314 71.5948 327.797C71.5948 326.279 73.2627 325.377 75.9014 325.391ZM75.9014 326.252C73.9463 326.252 72.6885 326.84 72.7022 327.797C72.6885 328.754 73.9463 329.342 75.9014 329.342C77.8428 329.342 79.1006 328.754 79.1006 327.797C79.1006 326.84 77.8428 326.252 75.9014 326.252ZM94.6772 324.953V328.125H96.4956V329.027H94.6772V332.213H93.5971V324.953H94.6772ZM90.767 332.445C93.2417 332.445 94.7729 333.307 94.7729 334.756C94.7729 336.232 93.2417 337.08 90.767 337.08C88.2788 337.08 86.7338 336.232 86.7338 334.756C86.7338 333.307 88.2788 332.445 90.767 332.445ZM90.767 333.334C88.935 333.32 87.7866 333.867 87.7866 334.756C87.7866 335.658 88.935 336.219 90.767 336.219C92.5854 336.219 93.7338 335.658 93.7338 334.756C93.7338 333.867 92.5854 333.32 90.767 333.334ZM91.1225 325.883V326.771H86.7749V330.34C89.2358 330.326 90.6577 330.251 92.2846 329.916L92.394 330.805C90.6987 331.146 89.2358 331.215 86.6655 331.215H85.7221V325.883H91.1225ZM107.968 332.213V333.074H105.043V337.107H103.976V333.074H100.832V337.107H99.7516V333.074H96.8395V332.213H107.968ZM106.615 325.432V328.549H99.2868V330.066H106.875V330.955H98.2067V327.715H105.521V326.32H98.1794V325.432H106.615ZM115.807 327.25C115.807 328.945 117.037 330.545 118.815 331.188L118.213 332.021C116.88 331.488 115.82 330.429 115.301 329.109C114.781 330.579 113.674 331.748 112.238 332.322L111.664 331.447C113.482 330.777 114.74 329.082 114.754 327.209V325.705H115.807V327.25ZM121.727 324.967V334.072H120.647V328.727H117.94V327.824H120.647V324.967H121.727ZM122 335.945V336.848H113.865V333.033H114.945V335.945H122ZM128.606 325.842V326.744H124.914V328.262H128.469V329.109H124.914V330.791C126.685 330.784 127.792 330.723 129.098 330.463L129.207 331.352C127.785 331.625 126.637 331.693 124.655 331.693H123.889V325.842H128.606ZM133.664 324.967V332.336H132.639V329.014H130.93V332.254H129.932V325.199H130.93V328.139H132.639V324.967H133.664ZM133.664 332.965V337.107H132.612V333.84H125.475V332.965H133.664Z" fill="black"/>
<path d="M138.714 332.766C138.725 330.551 139.323 328.711 140.401 327.152H141.292C140.495 328.312 139.757 330.68 139.757 332.766C139.757 334.852 140.495 337.23 141.292 338.391H140.401C139.323 336.82 138.725 334.98 138.714 332.766ZM145.7 332.027V333.938C146.702 333.896 147.727 333.809 148.688 333.668L148.759 334.348C146.38 334.781 143.813 334.793 141.938 334.793L141.809 334.031C142.683 334.025 143.714 334.02 144.798 333.984V332.027H145.7ZM148.149 327.902V328.664H145.7C145.724 330.012 146.843 331.107 148.384 331.547L147.95 332.273C146.696 331.898 145.718 331.096 145.255 330.035C144.798 331.154 143.825 331.986 142.571 332.367L142.126 331.664C143.667 331.213 144.751 330.07 144.774 328.664H142.384V327.902H144.798V326.613H145.7V327.902H148.149ZM150.294 326.531V336.973H149.38V326.531H150.294ZM160.62 326.531V336.949H159.741V331.488H158.206V336.41H157.362V326.766H158.206V330.727H159.741V326.531H160.62ZM156.003 327.809V328.57H153.015V333.586C154.45 333.58 155.446 333.527 156.601 333.293L156.683 334.066C155.429 334.324 154.362 334.371 152.769 334.371H152.101V327.809H156.003ZM164.445 334.266V333.398L168.265 327.516H169.566V333.34H170.75V334.266H169.566V336H168.558V334.266H164.445ZM165.582 333.34H168.558V328.852H168.453L165.582 333.27V333.34ZM180.256 326.531V336.949H179.353V331.5H177.912V336.434H177.033V326.812H177.912V330.738H179.353V326.531H180.256ZM175.849 327.891C175.838 330.539 174.912 333.047 171.912 334.711L171.373 334.066C173.793 332.719 174.795 330.809 174.947 328.652H171.771V327.891H175.849ZM183.926 332.766C183.914 334.98 183.316 336.82 182.238 338.391H181.348C182.144 337.23 182.883 334.852 182.883 332.766C182.883 330.68 182.144 328.312 181.348 327.152H182.238C183.316 328.711 183.914 330.551 183.926 332.766Z" fill="#83848C"/>
<rect x="20.5" y="357.5" width="15" height="15" rx="2.5" fill="white"/>
<rect x="20.5" y="357.5" width="15" height="15" rx="2.5" stroke="#83848C"/>
<path d="M56.5684 358.953V365.242H55.4883V362.084H52.7812V361.195H55.4883V358.953H56.5684ZM56.5684 365.857V368.756H49.7734V370.082H57.0195V370.943H48.7207V367.936H55.502V366.719H48.6934V365.857H56.5684ZM50.6348 360.498C50.6211 362.098 51.8789 363.547 53.6562 364.135L53.082 364.969C51.7354 364.49 50.6621 363.533 50.1289 362.303C49.6094 363.69 48.5088 364.75 47.0664 365.27L46.4785 364.408C48.3105 363.807 49.5684 362.275 49.582 360.498V359.35H50.6348V360.498ZM67.6858 358.953V362.125H69.5178V363.014H67.6858V366.432H66.6193V358.953H67.6858ZM63.8166 366.746C66.3049 366.746 67.8225 367.539 67.8225 368.92C67.8225 370.301 66.3049 371.08 63.8166 371.08C61.301 371.08 59.7697 370.301 59.7834 368.92C59.7697 367.539 61.301 366.746 63.8166 366.746ZM63.8166 367.594C61.9572 367.594 60.8498 368.086 60.8498 368.92C60.8498 369.754 61.9572 370.246 63.8166 370.246C65.635 370.246 66.7561 369.754 66.7561 368.92C66.7561 368.086 65.635 367.594 63.8166 367.594ZM64.3498 359.814V360.689H59.8244V362.248H64.1174V363.109H59.8244V364.723C62.1897 364.736 63.55 364.661 65.1428 364.395L65.2658 365.256C63.5842 365.557 62.1897 365.611 59.674 365.598H58.758V359.814H64.3498Z" fill="black"/>
<path d="M80.6641 360.234V361.934H83.2539V360.234H83.957V364.992H79.9609V360.234H80.6641ZM80.6641 364.359H83.2539V362.531H80.6641V364.359ZM88.1992 359.578V365.777H87.4961V362.941H85.9492V365.707H85.2461V359.777H85.9492V362.32H87.4961V359.578H88.1992ZM88.1992 366.445V369.914H87.4844V367.078H81.2852V366.445H88.1992ZM97.9397 359.578V364.945H97.2014V362.215H94.7873V361.594H97.2014V359.578H97.9397ZM97.9397 365.508V367.863H92.0451V369.152H98.3615V369.762H91.3303V367.277H97.2131V366.117H91.2951V365.508H97.9397ZM92.8186 360.949C92.8186 362.355 94.0022 363.609 95.467 364.102L95.0568 364.688C93.9143 364.266 92.9358 363.41 92.4904 362.309C92.051 363.551 91.0666 364.494 89.842 364.957L89.4318 364.359C90.9318 363.832 92.1037 362.52 92.1154 360.949V359.895H92.8186V360.949ZM107.434 359.578V362.344H109.028V362.965H107.434V365.965H106.696V359.578H107.434ZM104.164 366.246C106.274 366.246 107.539 366.902 107.539 368.062C107.539 369.223 106.274 369.879 104.164 369.879C102.043 369.879 100.754 369.223 100.766 368.062C100.754 366.902 102.043 366.246 104.164 366.246ZM104.164 366.844C102.512 366.844 101.493 367.312 101.493 368.062C101.493 368.824 102.512 369.293 104.164 369.293C105.782 369.293 106.813 368.824 106.813 368.062C106.813 367.312 105.782 366.844 104.164 366.844ZM100.661 364.57C102.77 364.582 103.93 364.535 105.336 364.289L105.418 364.898C103.977 365.156 102.805 365.203 100.661 365.191H99.8988V360.328H104.61V360.938H100.637V362.414H104.434V363.023H100.637V364.57H100.661ZM110.858 368.285L110.003 371.32H109.311L109.967 368.285H110.858ZM123.272 360.516V361.125H114.917V360.516H118.761V359.391H119.487V360.516H123.272ZM119.112 361.594C121.222 361.594 122.429 362.121 122.429 363.117C122.429 364.113 121.222 364.641 119.112 364.641C117.003 364.641 115.796 364.113 115.796 363.117C115.796 362.121 117.003 361.594 119.112 361.594ZM119.112 362.145C117.507 362.145 116.546 362.508 116.558 363.117C116.546 363.727 117.507 364.09 119.112 364.09C120.718 364.09 121.667 363.727 121.679 363.117C121.667 362.508 120.718 362.145 119.112 362.145ZM123.835 365.402V366.012H114.413V365.402H123.835ZM122.558 367.031V369.914H121.819V367.617H115.421V367.031H122.558ZM132.896 359.578V364.945H132.157V362.215H129.743V361.594H132.157V359.578H132.896ZM132.896 365.508V367.863H127.001V369.152H133.318V369.762H126.286V367.277H132.169V366.117H126.251V365.508H132.896ZM127.775 360.949C127.775 362.355 128.958 363.609 130.423 364.102L130.013 364.688C128.87 364.266 127.892 363.41 127.447 362.309C127.007 363.551 126.023 364.494 124.798 364.957L124.388 364.359C125.888 363.832 127.06 362.52 127.072 360.949V359.895H127.775V360.949ZM142.39 359.578V362.344H143.984V362.965H142.39V365.965H141.652V359.578H142.39ZM139.121 366.246C141.23 366.246 142.496 366.902 142.496 368.062C142.496 369.223 141.23 369.879 139.121 369.879C136.999 369.879 135.71 369.223 135.722 368.062C135.71 366.902 136.999 366.246 139.121 366.246ZM139.121 366.844C137.468 366.844 136.449 367.312 136.449 368.062C136.449 368.824 137.468 369.293 139.121 369.293C140.738 369.293 141.769 368.824 141.769 368.062C141.769 367.312 140.738 366.844 139.121 366.844ZM135.617 364.57C137.726 364.582 138.886 364.535 140.292 364.289L140.374 364.898C138.933 365.156 137.761 365.203 135.617 365.191H134.855V360.328H139.566V360.938H135.593V362.414H139.39V363.023H135.593V364.57H135.617Z" fill="#82838A"/>
<rect x="20" y="389" width="16" height="16" rx="3" fill="#005158"/>
<path d="M31.6778 394.305C31.8778 394.495 31.8858 394.811 31.6951 395.011L27.2505 399.678C27.2038 399.727 27.1476 399.766 27.0854 399.793C27.0231 399.819 26.9562 399.833 26.8885 399.833C26.8208 399.833 26.7538 399.819 26.6915 399.793C26.6293 399.766 26.5732 399.727 26.5265 399.678L24.3045 397.345C24.2572 397.298 24.2199 397.242 24.1947 397.18C24.1695 397.118 24.157 397.052 24.1577 396.985C24.1585 396.918 24.1727 396.852 24.1993 396.791C24.226 396.73 24.2646 396.675 24.3129 396.629C24.3613 396.583 24.4183 396.547 24.4807 396.523C24.5431 396.5 24.6096 396.489 24.6763 396.491C24.743 396.494 24.8085 396.51 24.869 396.538C24.9295 396.566 24.9837 396.606 25.0285 396.655L26.8885 398.609L30.9711 394.322C31.0626 394.226 31.1884 394.17 31.3209 394.167C31.4534 394.164 31.5818 394.213 31.6778 394.305Z" fill="white"/>
<path d="M49.4043 391.719C51.0039 391.719 52.1934 392.908 52.1934 394.59C52.1934 396.285 51.0039 397.434 49.4043 397.434C47.7773 397.434 46.6152 396.285 46.6289 394.59C46.6152 392.908 47.7773 391.719 49.4043 391.719ZM49.4043 392.648C48.3652 392.648 47.5859 393.469 47.5996 394.59C47.5859 395.711 48.3652 396.531 49.4043 396.531C50.4434 396.531 51.1953 395.711 51.209 394.59C51.1953 393.469 50.4434 392.648 49.4043 392.648ZM56.8145 390.967V398.199H55.7891V394.986H54.1758V398.117H53.1641V391.199H54.1758V394.098H55.7891V390.967H56.8145ZM56.8145 398.883V403.107H55.7617V399.744H48.625V398.883H56.8145ZM62.2443 392.922C62.2443 394.576 63.5022 396.094 65.2658 396.695L64.6779 397.543C63.3313 397.051 62.2717 396.046 61.7385 394.781C61.219 396.21 60.1389 397.338 58.717 397.885L58.1428 397.023C59.9611 396.34 61.1779 394.713 61.1916 392.84V391.582H62.2443V392.922ZM67.6858 390.953V394.125H69.5178V395.027H67.6858V398.35H66.6193V390.953H67.6858ZM63.7893 398.664C66.2912 398.664 67.7951 399.471 67.7951 400.865C67.7951 402.287 66.2912 403.08 63.7893 403.08C61.2873 403.08 59.7561 402.287 59.7561 400.865C59.7561 399.471 61.2873 398.664 63.7893 398.664ZM63.7893 399.525C61.9572 399.525 60.8225 400.031 60.8361 400.865C60.8225 401.727 61.9572 402.219 63.7893 402.232C65.635 402.219 66.7561 401.727 66.7561 400.865C66.7561 400.031 65.635 399.525 63.7893 399.525ZM76.6156 392.307V392.936C76.602 393.893 76.602 395.506 76.2602 397.762L75.1801 397.666C75.5082 395.629 75.5356 394.152 75.5356 393.182H70.436V392.307H76.6156ZM73.4301 395.779V399.471C74.7768 399.423 76.1576 399.334 77.4223 399.184L77.477 399.99C74.9203 400.387 72.0629 400.441 69.8891 400.428L69.7524 399.539C70.5522 399.532 71.4408 399.525 72.3774 399.498V395.779H73.4301ZM79.2543 390.953V396.039H81.2231V396.969H79.2543V403.107H78.1879V390.953H79.2543ZM91.0826 390.953V394.125H92.901V395.027H91.0826V398.213H90.0026V390.953H91.0826ZM87.1725 398.445C89.6471 398.445 91.1783 399.307 91.1783 400.756C91.1783 402.232 89.6471 403.08 87.1725 403.08C84.6842 403.08 83.1393 402.232 83.1393 400.756C83.1393 399.307 84.6842 398.445 87.1725 398.445ZM87.1725 399.334C85.3405 399.32 84.192 399.867 84.192 400.756C84.192 401.658 85.3405 402.219 87.1725 402.219C88.9908 402.219 90.1393 401.658 90.1393 400.756C90.1393 399.867 88.9908 399.32 87.1725 399.334ZM87.528 391.883V392.771H83.1803V396.34C85.6412 396.326 87.0631 396.251 88.6901 395.916L88.7994 396.805C87.1041 397.146 85.6412 397.215 83.0709 397.215H82.1276V391.883H87.528Z" fill="black"/>
<rect x="20.5" y="421.5" width="15" height="15" rx="2.5" fill="white"/>
<rect x="20.5" y="421.5" width="15" height="15" rx="2.5" stroke="#83848C"/>
<path d="M56.8828 422.953V435.107H55.8574V428.736H54.0664V434.479H53.082V423.227H54.0664V427.848H55.8574V422.953H56.8828ZM51.4961 424.443V425.332H48.0098V431.184C49.6846 431.177 50.8467 431.115 52.1934 430.842L52.2891 431.744C50.8262 432.045 49.582 432.1 47.7227 432.1H46.9434V424.443H51.4961ZM61.7385 426.699C61.7385 428.654 62.7365 430.65 64.3908 431.539L63.7756 432.346C62.5656 431.689 61.6906 430.432 61.2463 428.969C60.8088 430.527 59.9406 431.881 58.7307 432.619L58.0881 431.799C59.7424 430.842 60.7131 428.709 60.7268 426.699V426.098H58.4162V425.209H60.7268V423.404H61.7522V425.209H64.0217V426.098H61.7385V426.699ZM68.5744 422.953V435.107H67.549V422.953H68.5744ZM66.1135 423.254V434.479H65.1018V428.668H63.1877V427.752H65.1018V423.254H66.1135ZM79.391 422.953V426.125H81.2094V427.027H79.391V430.213H78.311V422.953H79.391ZM75.4809 430.445C77.9555 430.445 79.4867 431.307 79.4867 432.756C79.4867 434.232 77.9555 435.08 75.4809 435.08C72.9926 435.08 71.4477 434.232 71.4477 432.756C71.4477 431.307 72.9926 430.445 75.4809 430.445ZM75.4809 431.334C73.6488 431.32 72.5004 431.867 72.5004 432.756C72.5004 433.658 73.6488 434.219 75.4809 434.219C77.2992 434.219 78.4477 433.658 78.4477 432.756C78.4477 431.867 77.2992 431.32 75.4809 431.334ZM75.8363 423.883V424.771H71.4887V428.34C73.9496 428.326 75.3715 428.251 76.9985 427.916L77.1078 428.805C75.4125 429.146 73.9496 429.215 71.3793 429.215H70.436V423.883H75.8363Z" fill="black"/>
<path d="M94.8438 426.871C94.8438 428.547 96.1562 430.375 97.5859 431.066L97.1523 431.652C96.0039 431.072 94.9551 429.807 94.4922 428.371C94.0176 429.924 92.8926 431.307 91.7617 431.91L91.3047 431.324C92.7109 430.621 94.1172 428.652 94.1289 426.871V425.289H91.668V424.656H97.2578V425.289H94.8438V426.871ZM99.4141 423.578V427.832H101.195V428.465H99.4141V433.914H98.6758V423.578H99.4141ZM104.338 423.977C105.885 423.988 106.987 424.914 106.998 426.25C106.987 427.598 105.885 428.512 104.338 428.512C102.791 428.512 101.678 427.598 101.69 426.25C101.678 424.914 102.791 423.988 104.338 423.977ZM104.338 424.609C103.225 424.609 102.405 425.301 102.416 426.25C102.405 427.199 103.225 427.891 104.338 427.891C105.451 427.891 106.283 427.199 106.283 426.25C106.283 425.301 105.451 424.609 104.338 424.609ZM109.916 423.578V428.922H109.178V423.578H109.916ZM109.916 429.449V431.84H104.01V433.152H110.315V433.762H103.295V431.266H109.19V430.059H103.26V429.449H109.916ZM119.879 423.578V433.926H119.153V423.578H119.879ZM112.848 430.762C114.547 430.762 116.129 430.691 118.063 430.375L118.133 431.008C116.176 431.312 114.594 431.395 112.848 431.395H111.993V427.527H116.012V425.195H111.981V424.562H116.75V428.148H112.754V430.762H112.848ZM129.62 426.871V427.434H126.421V428.488H130.768V429.074H121.346V428.488H125.682V427.434H122.612V423.789H129.573V424.363H123.362V425.301H129.28V425.863H123.362V426.871H129.62ZM129.526 429.906V432.062H123.256V433.199H129.854V433.785H122.542V431.5H128.811V430.469H122.506V429.906H129.526ZM132.821 432.285L131.966 435.32H131.274L131.931 432.285H132.821ZM144.427 423.578V425.898H146.021V426.52H144.427V428.875H143.689V423.578H144.427ZM144.427 429.391V431.805H138.661V433.152H144.825V433.762H137.935V431.23H143.689V430H137.911V429.391H144.427ZM139.271 423.977C140.818 423.977 141.919 424.902 141.931 426.25C141.919 427.609 140.818 428.535 139.271 428.535C137.736 428.535 136.611 427.609 136.611 426.25C136.611 424.902 137.736 423.977 139.271 423.977ZM139.271 424.598C138.157 424.598 137.337 425.301 137.337 426.25C137.337 427.211 138.157 427.926 139.271 427.926C140.384 427.926 141.204 427.211 141.204 426.25C141.204 425.301 140.384 424.598 139.271 424.598ZM155.785 428.371V428.969H151.414V429.977H154.589V432.098H148.238V433.223H154.941V433.785H147.511V431.559H153.851V430.551H147.488V429.977H150.687V428.969H146.328V428.371H155.785ZM154.554 423.918V425.957H148.296V426.988H154.73V427.551H147.57V425.43H153.816V424.469H147.535V423.918H154.554ZM165.771 431.957V432.59H156.302V431.957H160.638V429.871H157.521V426.777H163.814V424.996H157.486V424.375H164.541V427.398H158.248V429.25H164.787V429.871H161.377V431.957H165.771ZM171.328 425.148C171.328 427 173.578 428.57 175.207 428.875L174.844 429.508C173.385 429.145 171.609 428.014 170.953 426.426C170.297 428.014 168.521 429.145 167.062 429.508L166.711 428.875C168.34 428.559 170.555 427.012 170.566 425.148V424.328H171.328V425.148ZM175.734 431.84V432.461H166.266V431.84H175.734ZM188.137 428.559V429.191H178.715V428.559H188.137ZM187.024 426.871V427.48H179.922V424.035H186.953V424.668H180.649V426.871H187.024ZM183.426 430.176C185.629 430.188 186.965 430.855 186.965 432.039C186.965 433.223 185.629 433.879 183.426 433.879C181.2 433.879 179.864 433.223 179.864 432.039C179.864 430.855 181.2 430.188 183.426 430.176ZM183.426 430.773C181.692 430.785 180.614 431.254 180.614 432.039C180.614 432.824 181.692 433.281 183.426 433.281C185.137 433.281 186.227 432.824 186.227 432.039C186.227 431.254 185.137 430.785 183.426 430.773Z" fill="#82838A"/>
<rect x="20.5" y="453.5" width="15" height="15" rx="2.5" fill="white"/>
<rect x="20.5" y="453.5" width="15" height="15" rx="2.5" stroke="#83848C"/>
<path d="M56.5273 454.967V463.854H55.4609V454.967H56.5273ZM56.9102 465.945V466.848H48.6797V462.951H49.7461V465.945H56.9102ZM49.9648 455.814C51.7832 455.814 53.1504 457.045 53.1504 458.795C53.1504 460.572 51.7832 461.789 49.9648 461.789C48.1465 461.789 46.7793 460.572 46.7793 458.795C46.7793 457.045 48.1465 455.814 49.9648 455.814ZM49.9648 456.758C48.7344 456.758 47.8184 457.605 47.832 458.795C47.8184 460.012 48.7344 460.846 49.9648 460.846C51.168 460.846 52.0977 460.012 52.0977 458.795C52.0977 457.605 51.168 456.758 49.9648 456.758ZM63.6799 462.637C66.2912 462.637 67.9455 463.457 67.9455 464.865C67.9455 466.26 66.2912 467.08 63.6799 467.08C61.0822 467.08 59.4279 466.26 59.4279 464.865C59.4279 463.457 61.0822 462.637 63.6799 462.637ZM63.6799 463.457C61.7385 463.471 60.4807 464.004 60.4943 464.865C60.4807 465.713 61.7385 466.232 63.6799 466.232C65.6213 466.232 66.8654 465.713 66.8791 464.865C66.8654 464.004 65.6213 463.471 63.6799 463.457ZM67.8498 455.582V456.607C67.8498 457.592 67.8498 458.576 67.508 459.834L66.4553 459.711C66.7834 458.453 66.7834 457.564 66.7834 456.607V456.457H59.51V455.582H67.8498ZM69.258 460.627V461.502H58.1975V460.627H62.7775V458.275H63.8303V460.627H69.258ZM79.3774 454.953V457.934H81.2094V458.822H79.3774V461.857H78.311V454.953H79.3774ZM76.0551 455.746C76.0414 458.809 73.8949 460.996 70.2992 461.98L69.8617 461.119C72.8559 460.312 74.6811 458.692 74.9067 456.635H70.4086V455.746H76.0551ZM79.3774 462.418V466.943H71.6801V462.418H79.3774ZM72.7465 463.307V466.068H78.311V463.307H72.7465ZM87.8971 456.156V464.059H82.278V456.156H87.8971ZM83.3307 457.018V463.184H86.8444V457.018H83.3307ZM91.5885 454.953V467.135H90.5084V454.953H91.5885ZM104.388 464.701V465.604H93.2586V464.701H96.3895V462.391H94.6532V458.645H101.927V456.744H94.6258V455.855H102.979V459.533H95.7196V461.502H103.266V462.391H101.366V464.701H104.388ZM97.4422 464.701H100.313V462.391H97.4422V464.701Z" fill="black"/>
<path d="M117.211 456.398C118.723 456.398 119.789 457.793 119.789 459.973C119.789 462.152 118.723 463.547 117.211 463.547C115.699 463.547 114.645 462.152 114.656 459.973C114.645 457.793 115.699 456.398 117.211 456.398ZM117.211 457.055C116.121 457.055 115.348 458.25 115.348 459.973C115.348 461.707 116.121 462.891 117.211 462.891C118.324 462.891 119.074 461.707 119.086 459.973C119.074 458.25 118.324 457.055 117.211 457.055ZM122.414 455.578V459.785H124.195V460.418H122.414V465.914H121.676V455.578H122.414ZM129.483 457.148C129.483 459 131.733 460.57 133.362 460.875L132.998 461.508C131.539 461.145 129.764 460.014 129.108 458.426C128.451 460.014 126.676 461.145 125.217 461.508L124.865 460.875C126.494 460.559 128.709 459.012 128.721 457.148V456.328H129.483V457.148ZM133.889 463.84V464.461H124.42V463.84H133.889ZM140.336 456.75V457.371H139.118V462.504C139.721 462.463 140.319 462.41 140.887 462.34L140.934 462.902C138.719 463.242 136.211 463.277 134.36 463.289L134.254 462.633L135.719 462.621V457.371H134.512V456.75H140.336ZM142.34 455.578V459.785H144.122V460.418H142.34V465.914H141.602V455.578H142.34ZM136.446 462.609C137.084 462.604 137.741 462.58 138.403 462.539V457.371H136.446V462.609ZM145.624 460.488C147.733 460.488 148.893 460.453 150.299 460.184L150.381 460.805C148.94 461.062 147.768 461.109 145.624 461.098H144.862V456.223H149.573V456.867H145.6V458.32H149.397V458.941H145.6V460.488H145.624ZM152.397 462.246V465.762H145.94V462.246H152.397ZM146.655 462.844V465.152H151.659V462.844H146.655ZM152.397 455.578V458.191H153.991V458.824H152.397V461.672H151.659V455.578H152.397ZM155.821 464.285L154.966 467.32H154.274L154.931 464.285H155.821ZM164.474 456.586C164.474 458.121 166.583 459.352 168.282 459.609L167.978 460.219C166.454 459.943 164.743 459.041 164.099 457.711C163.454 459.053 161.743 459.938 160.22 460.219L159.904 459.609C161.615 459.352 163.712 458.156 163.712 456.586V455.965H164.474V456.586ZM168.798 461.461V462.094H164.427V465.914H163.712V462.094H159.376V461.461H168.798ZM177.519 456.68V457.98C177.519 459.504 177.519 460.91 177.097 462.961L176.359 462.891C176.587 461.859 176.699 460.963 176.757 460.125L170.335 460.477L170.218 459.855L176.781 459.562C176.798 459.023 176.798 458.508 176.804 457.98V457.312H170.488V456.68H177.519ZM178.761 463.758V464.391H169.339V463.758H178.761ZM187.353 455.578V457.934H188.959V458.555H187.353V461.039H186.615V455.578H187.353ZM187.353 461.52V463.863H181.611V465.176H187.763V465.785H180.884V463.301H186.615V462.117H180.861V461.52H187.353ZM180.58 459.973C182.42 459.973 183.791 459.902 185.502 459.645L185.56 460.242C183.838 460.512 182.443 460.582 180.58 460.57H179.783V457.957H183.697V456.668H179.759V456.082H184.424V458.531H180.521V459.973H180.58ZM198.734 463.957V464.59H189.266V463.957H193.601V461.871H190.484V458.777H196.777V456.996H190.449V456.375H197.504V459.398H191.211V461.25H197.75V461.871H194.34V463.957H198.734ZM204.291 457.148C204.291 459 206.541 460.57 208.17 460.875L207.807 461.508C206.348 461.145 204.572 460.014 203.916 458.426C203.26 460.014 201.484 461.145 200.025 461.508L199.674 460.875C201.303 460.559 203.518 459.012 203.529 457.148V456.328H204.291V457.148ZM208.697 463.84V464.461H199.229V463.84H208.697Z" fill="#82838A"/>
<mask id="path-50-inside-3_806_3060" fill="white">
<path d="M0 484H350V562C350 566.418 346.418 570 342 570H8C3.58172 570 0 566.418 0 562V484Z"/>
</mask>
<path d="M0 484H350H0M351 562C351 566.971 346.971 571 342 571H8C3.02944 571 -1 566.971 -1 562H1C1 565.866 4.13401 569 8 569H342C345.866 569 349 565.866 349 562H351ZM8 571C3.02944 571 -1 566.971 -1 562V484H1V562C1 565.866 4.13401 569 8 569V571ZM351 484V562C351 566.971 346.971 571 342 571V569C345.866 569 349 565.866 349 562V484H351Z" fill="#E3E4E8" mask="url(#path-50-inside-3_806_3060)"/>
<rect x="20.5" y="498" width="14" height="14" rx="2.5" fill="white"/>
<rect x="20.5" y="498" width="14" height="14" rx="2.5" stroke="#83848C"/>
<path d="M50.7441 501.51C50.7441 502.959 51.9336 504.244 53.793 504.764L53.1914 505.789C51.7559 505.379 50.6758 504.511 50.1152 503.383C49.582 504.613 48.5156 505.563 47.0527 506.021L46.4238 504.996C48.2969 504.449 49.459 503.055 49.459 501.51V501.318H46.793V500.279H49.459V498.857H50.7578V500.279H53.4102V501.318H50.7441V501.51ZM56.6641 498.912V506.145H55.3652V503.342H53.0684V502.275H55.3652V498.912H56.6641ZM56.6641 506.732V511.012H48.584V506.732H56.6641ZM49.8691 507.785V509.959H55.3926V507.785H49.8691ZM67.6858 498.912V503.793H69.5861V504.873H67.6858V511.148H66.3869V498.912H67.6858ZM64.4865 500.197C64.4729 503.738 62.9143 506.896 58.8811 508.893L58.1565 507.881C61.2258 506.35 62.8938 504.135 63.1604 501.277H58.7717V500.197H64.4865ZM81.0043 503.984V505.023H76.0551V506.09H79.5961V508.961H72.4594V510.041H79.9379V511.039H71.1879V508.018H78.311V507.088H71.1742V506.09H74.7563V505.023H69.8344V503.984H81.0043ZM79.5688 499.309V503.082H71.2699V499.309H79.5688ZM72.5414 500.334V502.057H78.2699V500.334H72.5414Z" fill="black"/>
<rect width="16" height="16" transform="matrix(1.19249e-08 1 1 -1.19249e-08 314 497)" fill="white"/>
<path d="M317.131 502.773L322.168 507.86C322.257 507.95 322.376 508 322.499 508C322.623 508 322.742 507.95 322.83 507.86L327.869 502.773C327.91 502.731 327.943 502.682 327.966 502.627C327.988 502.572 328 502.513 328 502.453C328 502.393 327.988 502.334 327.966 502.279C327.943 502.224 327.91 502.175 327.869 502.133C327.784 502.048 327.671 502 327.553 502C327.435 502 327.321 502.048 327.237 502.133L322.499 506.917L317.763 502.135C317.679 502.049 317.565 502.002 317.447 502.002C317.329 502.002 317.216 502.049 317.131 502.135C317.09 502.176 317.057 502.226 317.034 502.281C317.012 502.336 317 502.395 317 502.455C317 502.514 317.012 502.573 317.034 502.628C317.057 502.683 317.09 502.733 317.131 502.774" fill="#82838A"/>
<path d="M27 542C30.8661 542 34 545.134 34 549C34 552.866 30.8661 556 27 556C23.1339 556 20 552.866 20 549C20 545.134 23.1339 542 27 542ZM27 551.1C26.8143 551.1 26.6363 551.174 26.505 551.305C26.3737 551.436 26.3 551.614 26.3 551.8C26.3 551.986 26.3737 552.164 26.505 552.295C26.6363 552.426 26.8143 552.5 27 552.5C27.1857 552.5 27.3637 552.426 27.495 552.295C27.6262 552.164 27.7 551.986 27.7 551.8C27.7 551.614 27.6262 551.436 27.495 551.305C27.3637 551.174 27.1857 551.1 27 551.1ZM27 544.8C26.8285 544.8 26.6631 544.863 26.5349 544.977C26.4068 545.091 26.325 545.248 26.3049 545.418L26.3 545.5V549.7C26.3002 549.878 26.3685 550.05 26.491 550.18C26.6135 550.309 26.7809 550.388 26.959 550.398C27.1371 550.408 27.3125 550.351 27.4493 550.236C27.5861 550.122 27.674 549.959 27.6951 549.782L27.7 549.7V545.5C27.7 545.314 27.6262 545.136 27.495 545.005C27.3637 544.874 27.1857 544.8 27 544.8Z" fill="#9B9CA2"/>
<path d="M49.3711 549.027V550.938C50.373 550.896 51.3984 550.809 52.3594 550.668L52.4297 551.348C50.0508 551.781 47.4844 551.793 45.6094 551.793L45.4805 551.031C46.3535 551.025 47.3848 551.02 48.4688 550.984V549.027H49.3711ZM51.8203 544.902V545.664H49.3711C49.3945 547.012 50.5137 548.107 52.0547 548.547L51.6211 549.273C50.3672 548.898 49.3887 548.096 48.9258 547.035C48.4688 548.154 47.4961 548.986 46.2422 549.367L45.7969 548.664C47.3379 548.213 48.4219 547.07 48.4453 545.664H46.0547V544.902H48.4688V543.613H49.3711V544.902H51.8203ZM53.9648 543.531V553.973H53.0508V543.531H53.9648ZM64.2912 543.531V553.949H63.4123V548.488H61.8772V553.41H61.0334V543.766H61.8772V547.727H63.4123V543.531H64.2912ZM59.674 544.809V545.57H56.6858V550.586C58.1213 550.58 59.1174 550.527 60.2717 550.293L60.3537 551.066C59.0998 551.324 58.0334 551.371 56.4397 551.371H55.7717V544.809H59.674ZM71.0924 553.117C69.5573 553.117 68.3971 552.168 68.3385 550.867H69.358C69.4401 551.629 70.1783 552.191 71.0924 552.191C72.194 552.191 72.9908 551.383 72.9908 550.316C72.9908 549.215 72.1588 548.406 71.0221 548.395C70.3073 548.383 69.7565 548.605 69.4401 549.156H68.4205L69.0182 544.516H73.6119V545.453H69.8971L69.5807 547.938H69.6627C70.0377 547.645 70.6119 547.445 71.2096 547.445C72.8268 547.445 74.0221 548.641 74.0221 550.293C74.0221 551.934 72.7799 553.117 71.0924 553.117ZM83.5985 543.531V553.949H82.6961V548.5H81.2547V553.434H80.3758V543.812H81.2547V547.738H82.6961V543.531H83.5985ZM79.1922 544.891C79.1805 547.539 78.2547 550.047 75.2547 551.711L74.7157 551.066C77.1356 549.719 78.1375 547.809 78.2899 545.652H75.1141V544.891H79.1922ZM92.917 543.531V547.832H94.4991V548.605H92.917V553.949H91.9912V543.531H92.917ZM87.8311 544.668C87.8194 547.152 87.2569 549.59 85.3702 551.594L84.6319 551.066C86.208 549.455 86.8409 547.516 86.9639 545.441H84.96V544.668H87.8311ZM90.6905 544.668C90.6787 547.141 90.3155 550.012 88.3702 552.285L87.6202 551.77C89.2491 549.93 89.7412 547.615 89.8233 545.441H88.1592V544.668H90.6905ZM98.3567 546.73C98.3567 548.5 99.6458 550.293 101.181 550.961L100.665 551.688C99.4465 551.131 98.3918 549.93 97.9114 548.488C97.4192 550.018 96.3704 551.348 95.1809 551.945L94.6301 551.219C96.1184 550.504 97.4192 548.535 97.4309 546.73V545.371H94.97V544.609H100.841V545.371H98.3567V546.73ZM103.22 543.531V553.949H102.294V543.531H103.22ZM110.759 545.5C110.759 546.953 111.814 548.324 113.338 548.875L112.822 549.59C111.679 549.133 110.771 548.225 110.326 547.094C109.881 548.354 108.931 549.355 107.701 549.848L107.209 549.098C108.767 548.523 109.845 547.07 109.857 545.465V544.176H110.759V545.5ZM115.834 543.543V551.348H114.908V546.766H112.588V545.992H114.908V543.543H115.834ZM116.068 552.953V553.727H109.095V550.457H110.021V552.953H116.068ZM121.672 544.293V545.066H118.508V546.367H121.555V547.094H118.508V548.535C120.025 548.529 120.974 548.477 122.094 548.254L122.187 549.016C120.969 549.25 119.984 549.309 118.285 549.309H117.629V544.293H121.672ZM126.008 543.543V549.859H125.129V547.012H123.664V549.789H122.808V543.742H123.664V546.262H125.129V543.543H126.008ZM126.008 550.398V553.949H125.105V551.148H118.988V550.398H126.008ZM135.268 543.496V546.027H136.85V546.789H135.268V549.262H134.354V543.496H135.268ZM135.268 549.801V552.109H129.549V553.129H135.654V553.832H128.647V551.43H134.354V550.492H128.623V549.801H135.268ZM133.357 544.48V545.219H127.147V544.48H129.795V543.426H130.709V544.48H133.357ZM130.252 545.688C131.764 545.688 132.748 546.344 132.76 547.398C132.748 548.453 131.764 549.109 130.252 549.109C128.729 549.109 127.732 548.453 127.744 547.398C127.732 546.344 128.729 545.688 130.252 545.688ZM130.252 546.367C129.268 546.367 128.611 546.777 128.623 547.398C128.611 548.031 129.268 548.418 130.252 548.418C131.236 548.418 131.881 548.031 131.893 547.398C131.881 546.777 131.236 546.367 130.252 546.367ZM144.917 544.504C144.917 545.969 146.838 547.246 148.713 547.504L148.338 548.254C146.721 547.984 145.122 547.088 144.448 545.805C143.78 547.094 142.174 547.984 140.557 548.254L140.182 547.504C142.057 547.246 143.967 545.992 143.967 544.504V543.906H144.917V544.504ZM149.182 549.402V550.176H144.87V553.949H143.967V550.176H139.69V549.402H149.182ZM155.784 550.527C155.784 551.447 156.276 552.426 157.272 552.988C158.257 552.373 158.784 551.336 158.784 550.527V549.953H159.686V550.527C159.686 551.594 160.472 552.672 161.808 553.129L161.351 553.809C160.308 553.439 159.575 552.713 159.218 551.84C158.895 552.684 158.257 553.48 157.296 553.891C156.282 553.504 155.638 552.736 155.327 551.863C154.958 552.707 154.237 553.434 153.241 553.809L152.772 553.129C154.085 552.637 154.882 551.523 154.893 550.527V549.953H155.784V550.527ZM160.858 543.543V549.496H159.944V543.543H160.858ZM155.233 544.152C156.815 544.152 157.964 545.137 157.964 546.59C157.964 548.02 156.815 549.004 155.233 549.004C153.651 549.004 152.503 548.02 152.503 546.59C152.503 545.137 153.651 544.152 155.233 544.152ZM155.233 544.938C154.167 544.926 153.393 545.617 153.405 546.59C153.393 547.551 154.167 548.23 155.233 548.242C156.288 548.23 157.061 547.551 157.061 546.59C157.061 545.617 156.288 544.926 155.233 544.938ZM165.021 544.34C166.439 544.352 167.458 545.564 167.61 547.516H169.942V543.531H170.857V553.973H169.942V548.277H167.622C167.511 550.316 166.474 551.594 165.021 551.594C163.485 551.594 162.407 550.188 162.407 547.973C162.407 545.758 163.485 544.352 165.021 544.34ZM165.021 545.16C163.989 545.172 163.286 546.273 163.286 547.973C163.286 549.672 163.989 550.773 165.021 550.773C166.04 550.773 166.755 549.672 166.755 547.973C166.755 546.273 166.04 545.172 165.021 545.16ZM181.722 551.84V552.613H172.183V551.84H174.55V549.027C173.66 548.564 173.12 547.814 173.12 546.871C173.12 545.254 174.702 544.199 176.929 544.188C179.156 544.199 180.738 545.254 180.738 546.871C180.738 547.797 180.216 548.541 179.355 549.004V551.84H181.722ZM176.929 544.949C175.218 544.938 174.011 545.711 174.011 546.871C174.011 548.031 175.218 548.816 176.929 548.816C178.628 548.816 179.847 548.031 179.847 546.871C179.847 545.711 178.628 544.938 176.929 544.949ZM175.452 551.84H178.429V549.355C177.978 549.479 177.474 549.543 176.929 549.543C176.396 549.543 175.898 549.484 175.452 549.367V551.84ZM183.248 553.07C182.837 553.07 182.486 552.73 182.498 552.309C182.486 551.898 182.837 551.559 183.248 551.559C183.658 551.559 183.998 551.898 183.998 552.309C183.998 552.73 183.658 553.07 183.248 553.07Z" fill="#6F7077"/>
<rect x="299" y="538" width="31" height="20" rx="4" fill="#E4ECEC"/>
<path d="M310.48 544.223V552H309.503V545.232H309.46L307.569 546.489V545.512L309.503 544.223H310.48ZM314.928 543.857L312.414 553.171H311.576L314.079 543.857H314.928ZM317.947 552.107C316.539 552.107 315.476 551.237 315.422 550.045H316.357C316.432 550.743 317.109 551.259 317.947 551.259C318.956 551.259 319.687 550.518 319.687 549.54C319.687 548.53 318.924 547.789 317.882 547.778C317.227 547.768 316.722 547.972 316.432 548.477H315.497L316.045 544.223H320.256V545.082H316.851L316.561 547.359H316.636C316.98 547.091 317.506 546.908 318.054 546.908C319.537 546.908 320.632 548.004 320.632 549.519C320.632 551.022 319.494 552.107 317.947 552.107Z" fill="#005158"/>
<defs>
<filter id="filter0_d_806_3060" x="80" y="261" width="22" height="22" filterUnits="userSpaceOnUse" color-interpolation-filters="sRGB">
<feFlood flood-opacity="0" result="BackgroundImageFix"/>
<feColorMatrix in="SourceAlpha" type="matrix" values="0 0 0 0 0 0 0 0 0 0 0 0 0 0 0 0 0 0 127 0" result="hardAlpha"/>
<feOffset/>
<feGaussianBlur stdDeviation="2"/>
<feComposite in2="hardAlpha" operator="out"/>
<feColorMatrix type="matrix" values="0 0 0 0 0 0 0 0 0 0.317647 0 0 0 0 0.345098 0 0 0 0.4 0"/>
<feBlend mode="normal" in2="BackgroundImageFix" result="effect1_dropShadow_806_3060"/>
<feBlend mode="normal" in="SourceGraphic" in2="effect1_dropShadow_806_3060" result="shape"/>
</filter>
</defs>

<path class="line-repair-outer" d="M8 0.5H342C346.142 0.5 349.5 3.858 349.5 8V562C349.5 566.142 346.142 569.5 342 569.5H8C3.858 569.5 0.5 566.142 0.5 562V8C0.5 3.858 3.858 0.5 8 0.5Z" stroke="#E3E4E8" fill="none"/>
<line class="line-repair-top" x1="0.5" y1="42.5" x2="349.5" y2="42.5" stroke="#E3E4E8"/>
<rect class="line-repair-sugar-card" x="1" y="173" width="348" height="310" rx="9" stroke="#005158" fill="none"/>
</svg>
