<svg width="350" height="570" viewBox="0 0 350 570" fill="none" xmlns="http://www.w3.org/2000/svg">
<mask id="path-1-inside-1_803_2857" fill="white">
<path d="M0 8C0 3.58172 3.58172 0 8 0H342C346.418 0 350 3.58172 350 8V42H0V8Z"/>
</mask>
<path d="M-1 8C-1 3.02944 3.02944 -1 8 -1H342C346.971 -1 351 3.02944 351 8H349C349 4.13401 345.866 1 342 1H8C4.13401 1 1 4.13401 1 8H-1ZM1 8M350 42H0H350M-1 42V8C-1 3.02944 3.02944 -1 8 -1V1C4.13401 1 1 4.13401 1 8V42H-1ZM342 -1C346.971 -1 351 3.02944 351 8V42H349V8C349 4.13401 345.866 1 342 1V-1Z" fill="#E3E4E8" mask="url(#path-1-inside-1_803_2857)"/>
<path d="M22.7715 17.1543C22.7715 18.8086 23.8789 20.4219 25.7246 21.0645L25.0137 22.0762C23.6738 21.5635 22.6758 20.5518 22.1562 19.2734C21.623 20.6953 20.5771 21.8164 19.1348 22.3633L18.4375 21.3379C20.3379 20.6543 21.4727 18.959 21.4863 17.1133V15.6641H22.7715V17.1543ZM28.6641 14.9258V24.0586H27.3652V18.7812H24.7812V17.7148H27.3652V14.9258H28.6641ZM28.9375 25.8496V26.9023H20.666V23.0332H21.9785V25.8496H28.9375ZM35.4338 15.7871V16.8398H31.8928V18.207H35.2971V19.2051H31.8928V20.6953C33.5334 20.6816 34.6135 20.6201 35.8713 20.3809L35.9943 21.4473C34.5588 21.7207 33.3967 21.7754 31.4416 21.7617H30.6486V15.7871H35.4338ZM40.5881 14.9258V22.3633H39.3576V19.0957H37.8537V22.2676H36.6369V15.1445H37.8537V18.043H39.3576V14.9258H40.5881ZM40.5881 22.9512V27.1621H39.3029V24.0039H32.2619V22.9512H40.5881ZM48.9711 18.8359V19.8887H46.5785V21.4336C47.6654 21.3857 48.7455 21.3105 49.7504 21.2012L49.8461 22.1582C47.2348 22.5137 44.3637 22.582 42.0668 22.582L41.8891 21.543C42.935 21.5361 44.1039 21.5225 45.2934 21.4883V19.8887H42.9828V15.6914H48.8617V16.7441H44.2817V18.8359H48.9711ZM51.9926 14.9121V24.0996H50.6938V14.9121H51.9926ZM52.3754 25.8496V26.9023H43.9125V23.4434H45.2113V25.8496H52.3754ZM60.8836 16.7441C60.8836 18.4668 61.991 19.998 63.8504 20.5996L63.1395 21.6113C61.7928 21.126 60.8016 20.1826 60.2684 18.959C59.7352 20.3604 58.6688 21.4473 57.1922 21.9805L56.495 20.9414C58.45 20.2715 59.5848 18.6445 59.5985 16.7988V15.5957H60.8836V16.7441ZM66.7489 14.9121V22.1445H65.45V18.4668H62.866V17.4004H65.45V14.9121H66.7489ZM62.6473 22.4863C65.2176 22.4863 66.7899 23.334 66.7899 24.8242C66.7899 26.3008 65.2176 27.1484 62.6473 27.1348C60.077 27.1484 58.491 26.3008 58.5047 24.8242C58.491 23.334 60.077 22.4863 62.6473 22.4863ZM62.6473 23.498C60.8563 23.498 59.7899 23.9766 59.7899 24.8242C59.7899 25.6445 60.8563 26.1094 62.6473 26.1094C64.4383 26.1094 65.5047 25.6445 65.5047 24.8242C65.5047 23.9766 64.4383 23.498 62.6473 23.498ZM79.4248 21.3242V22.3633H74.5577V24.6191H73.2725V22.3633H68.2139V21.3242H79.4248ZM78.1807 25.8496V26.9023H69.6084V23.5527H70.8936V25.8496H78.1807ZM70.9756 15.2949V16.7852H76.6495V15.2949H77.9483V20.2441H69.6905V15.2949H70.9756ZM70.9756 19.2051H76.6495V17.7559H70.9756V19.2051ZM87.1127 16.1016V26H85.5952V17.6055H85.5405L83.1752 19.1504V17.7148L85.6362 16.1016H87.1127ZM99.2829 14.9121V27.1621H98.0387V20.8047H96.5212V26.5742H95.3044V15.2402H96.5212V19.752H98.0387V14.9121H99.2829ZM94.0876 16.4707C94.0739 19.6973 93.0075 22.582 89.5075 24.5645L88.7555 23.6621C91.4762 22.124 92.6247 20.0391 92.8298 17.5371H89.2751V16.4707H94.0876Z" fill="black"/>
<rect width="16" height="16" transform="translate(324 29) rotate(-90)" fill="white"/>
<path d="M327.131 23.2271L332.168 18.1396C332.257 18.0501 332.376 18 332.499 18C332.623 18 332.742 18.0501 332.83 18.1396L337.869 23.2271C337.91 23.2686 337.943 23.3183 337.966 23.3732C337.988 23.4282 338 23.4873 338 23.547C338 23.6067 337.988 23.6657 337.966 23.7207C337.943 23.7757 337.91 23.8254 337.869 23.8668C337.784 23.9522 337.671 24 337.553 24C337.435 24 337.321 23.9522 337.237 23.8668L332.499 19.0831L327.763 23.8653C327.679 23.9507 327.565 23.9985 327.447 23.9985C327.329 23.9985 327.216 23.9507 327.131 23.8653C327.09 23.8238 327.057 23.7741 327.034 23.7192C327.012 23.6642 327 23.6051 327 23.5454C327 23.4857 327.012 23.4266 327.034 23.3717C327.057 23.3167 327.09 23.267 327.131 23.2255" fill="#82838A"/>
<mask id="path-5-inside-2_803_2857" fill="white">
<path d="M0 42H350V296C350 300.418 346.418 304 342 304H8C3.58172 304 0 300.418 0 296V42Z"/>
</mask>
<path d="M0 42H350H0M351 296C351 300.971 346.971 305 342 305H8C3.02944 305 -1 300.971 -1 296H1C1 299.866 4.13401 303 8 303H342C345.866 303 349 299.866 349 296H351ZM8 305C3.02944 305 -1 300.971 -1 296V42H1V296C1 299.866 4.13401 303 8 303V305ZM351 42V296C351 300.971 346.971 305 342 305V303C345.866 303 349 299.866 349 296V42H351Z" fill="#E3E4E8" mask="url(#path-5-inside-2_803_2857)"/>
<rect x="20.5" y="56" width="14" height="14" rx="2.5" fill="white"/>
<rect x="20.5" y="56" width="14" height="14" rx="2.5" stroke="#83848C"/>
<path d="M57.6484 63.8301V64.8965H54.8047V69.1621H53.4922V64.8965H50.5664V69.1621H49.2266V64.8965H46.4375V63.8301H57.6484ZM52.0156 57.377C54.5996 57.377 56.377 58.4297 56.377 60.084C56.377 61.7109 54.5996 62.75 52.0156 62.7363C49.418 62.75 47.6543 61.7109 47.6543 60.084C47.6543 58.4297 49.418 57.377 52.0156 57.377ZM52.0156 58.416C50.1973 58.4297 48.9805 59.0586 48.9941 60.084C48.9805 61.082 50.1973 61.7109 52.0156 61.7109C53.834 61.7109 55.0508 61.082 55.0508 60.084C55.0508 59.0586 53.834 58.4297 52.0156 58.416ZM68.6565 56.9121V69.1621H67.4123V56.9121H68.6565ZM66.1682 57.1719V68.5469H64.9377V62.3125H63.0373V61.2461H64.9377V57.1719H66.1682ZM61.8342 60.3301C61.8342 62.4219 62.6818 64.5137 64.4045 65.5117L63.6252 66.4688C62.4563 65.7715 61.6496 64.5342 61.2326 63.0508C60.7883 64.6504 59.9543 66.0107 58.758 66.7559L57.965 65.7852C59.7014 64.7324 60.59 62.5039 60.59 60.3301V59.3457H58.3342V58.293H63.9397V59.3457H61.8342V60.3301ZM81.0043 62.7773V63.8164H76.0551V65.1289H79.6371V69.0117H71.1742V65.1289H74.7699V63.8164H69.8344V62.7773H81.0043ZM79.9516 57.2949V58.3477H78.1742V60.6855H79.8969V61.7383H70.9145V60.6855H72.6508V58.3477H70.8598V57.2949H79.9516ZM72.4594 66.1543V67.959H78.3793V66.1543H72.4594ZM73.936 60.6855H76.8754V58.3477H73.936V60.6855Z" fill="black"/>
<rect width="16" height="16" transform="matrix(1.19249e-08 1 1 -1.19249e-08 314 55)" fill="white"/>
<path d="M317.131 60.7729L322.168 65.8604C322.257 65.9499 322.376 66 322.499 66C322.623 66 322.742 65.9499 322.83 65.8604L327.869 60.7729C327.91 60.7314 327.943 60.6817 327.966 60.6268C327.988 60.5718 328 60.5127 328 60.453C328 60.3933 327.988 60.3343 327.966 60.2793C327.943 60.2243 327.91 60.1746 327.869 60.1332C327.784 60.0478 327.671 60 327.553 60C327.435 60 327.321 60.0478 327.237 60.1332L322.499 64.9169L317.763 60.1347C317.679 60.0493 317.565 60.0015 317.447 60.0015C317.329 60.0015 317.216 60.0493 317.131 60.1347C317.09 60.1762 317.057 60.2259 317.034 60.2808C317.012 60.3358 317 60.3949 317 60.4546C317 60.5143 317.012 60.5734 317.034 60.6283C317.057 60.6833 317.09 60.733 317.131 60.7745" fill="#82838A"/>
<rect x="20.5" y="100" width="14" height="14" rx="2.5" fill="white"/>
<rect x="20.5" y="100" width="14" height="14" rx="2.5" stroke="#83848C"/>
<path d="M56.6641 100.926V110.018H55.3652V107.201H52.2344V106.135H55.3652V104.453H52.4121C51.5303 106.36 49.6914 107.796 47.2031 108.582L46.6426 107.557C49.4316 106.654 51.2773 104.993 51.5508 102.908H47.2715V101.869H52.959C52.959 102.402 52.8906 102.915 52.7676 103.4H55.3652V100.926H56.6641ZM56.9785 111.85V112.902H48.7754V109.115H50.0879V111.85H56.9785ZM64.965 102.225V102.977C64.965 104.002 64.965 105.588 64.6096 107.775L63.3244 107.68C63.632 105.718 63.6662 104.303 63.6799 103.277H58.7033V102.225H64.965ZM61.8205 105.725V109.389C63.1262 109.348 64.4524 109.259 65.676 109.102L65.7443 110.072C63.1877 110.482 60.344 110.537 58.1701 110.523L58.0197 109.471C58.7854 109.464 59.6399 109.457 60.5354 109.43V105.725H61.8205ZM67.6858 100.912V105.971H69.5588V107.078H67.6858V113.162H66.3733V100.912H67.6858ZM81.0317 108.186V109.211H78.2153V113.162H76.9028V109.211H73.9496V113.162H72.6508V109.211H69.8207V108.186H81.0317ZM79.7055 101.35V104.631H72.4867V105.984H79.9653V107.037H71.1879V103.66H78.3793V102.416H71.1469V101.35H79.7055Z" fill="black"/>
<rect width="16" height="16" transform="matrix(1.19249e-08 1 1 -1.19249e-08 314 99)" fill="white"/>
<path d="M317.131 104.773L322.168 109.86C322.257 109.95 322.376 110 322.499 110C322.623 110 322.742 109.95 322.83 109.86L327.869 104.773C327.91 104.731 327.943 104.682 327.966 104.627C327.988 104.572 328 104.513 328 104.453C328 104.393 327.988 104.334 327.966 104.279C327.943 104.224 327.91 104.175 327.869 104.133C327.784 104.048 327.671 104 327.553 104C327.435 104 327.321 104.048 327.237 104.133L322.499 108.917L317.763 104.135C317.679 104.049 317.565 104.002 317.447 104.002C317.329 104.002 317.216 104.049 317.131 104.135C317.09 104.176 317.057 104.226 317.034 104.281C317.012 104.336 317 104.395 317 104.455C317 104.514 317.012 104.573 317.034 104.628C317.057 104.683 317.09 104.733 317.131 104.774" fill="#82838A"/>
<rect x="20.5" y="144" width="14" height="14" rx="2.5" fill="white"/>
<rect x="20.5" y="144" width="14" height="14" rx="2.5" stroke="#83848C"/>
<path d="M52.918 145.568V150.613H47.0938V145.568H52.918ZM48.3652 146.621V149.602H51.6328V146.621H48.3652ZM56.5957 144.912V151.188H55.3105V144.912H56.5957ZM56.5957 151.775V154.824H49.8555V156H56.9922V157.039H48.584V153.881H55.3242V152.787H48.5566V151.775H56.5957ZM67.6858 144.912V149.793H69.5861V150.873H67.6858V157.148H66.3869V144.912H67.6858ZM64.4865 146.197C64.4729 149.738 62.9143 152.896 58.8811 154.893L58.1565 153.881C61.2258 152.35 62.8938 150.135 63.1604 147.277H58.7717V146.197H64.4865ZM79.7055 145.363V148.699H72.4867V150.107H79.9653V151.16H71.1879V147.701H78.3793V146.416H71.1469V145.363H79.7055ZM81.0317 152.322V153.361H76.0551V157.189H74.7563V153.361H69.8207V152.322H81.0317Z" fill="black"/>
<rect width="16" height="16" transform="matrix(1.19249e-08 1 1 -1.19249e-08 314 143)" fill="white"/>
<path d="M317.131 148.773L322.168 153.86C322.257 153.95 322.376 154 322.499 154C322.623 154 322.742 153.95 322.83 153.86L327.869 148.773C327.91 148.731 327.943 148.682 327.966 148.627C327.988 148.572 328 148.513 328 148.453C328 148.393 327.988 148.334 327.966 148.279C327.943 148.224 327.91 148.175 327.869 148.133C327.784 148.048 327.671 148 327.553 148C327.435 148 327.321 148.048 327.237 148.133L322.499 152.917L317.763 148.135C317.679 148.049 317.565 148.002 317.447 148.002C317.329 148.002 317.216 148.049 317.131 148.135C317.09 148.176 317.057 148.226 317.034 148.281C317.012 148.336 317 148.395 317 148.455C317 148.514 317.012 148.573 317.034 148.628C317.057 148.683 317.09 148.733 317.131 148.774" fill="#82838A"/>
<rect x="20" y="187.5" width="15" height="15" rx="3" fill="#005158"/>
<path d="M30.948 192.473C31.1355 192.652 31.143 192.948 30.9643 193.135L26.7974 197.51C26.7536 197.556 26.701 197.593 26.6426 197.618C26.5843 197.643 26.5215 197.656 26.458 197.656C26.3946 197.656 26.3318 197.643 26.2734 197.618C26.2151 197.593 26.1624 197.556 26.1186 197.51L24.0355 195.323C23.9913 195.279 23.9563 195.226 23.9327 195.168C23.909 195.11 23.8972 195.048 23.898 194.986C23.8987 194.923 23.912 194.861 23.937 194.804C23.962 194.747 23.9982 194.695 24.0435 194.652C24.0888 194.609 24.1423 194.575 24.2008 194.553C24.2593 194.531 24.3216 194.52 24.3841 194.523C24.4467 194.525 24.5081 194.54 24.5648 194.566C24.6215 194.593 24.6723 194.63 24.7143 194.677L26.458 196.508L30.2855 192.489C30.3712 192.399 30.4892 192.347 30.6134 192.344C30.7376 192.341 30.858 192.387 30.948 192.473Z" fill="white"/>
<path d="M56.0898 188.912V192.016H57.8535V193.082H56.0898V196.145H54.7773V188.912H56.0898ZM52.125 196.377C54.627 196.377 56.1855 197.252 56.1855 198.756C56.1855 200.26 54.627 201.148 52.125 201.135C49.5957 201.148 48.0098 200.26 48.0098 198.756C48.0098 197.252 49.5957 196.377 52.125 196.377ZM52.125 197.43C50.3477 197.416 49.2812 197.908 49.2949 198.756C49.2812 199.604 50.3477 200.096 52.125 200.096C53.8613 200.096 54.9277 199.604 54.9414 198.756C54.9277 197.908 53.8613 197.416 52.125 197.43ZM52.4395 189.814V190.867H48.2559V194.203C50.6689 194.196 52.0293 194.121 53.5742 193.807L53.6973 194.859C52.0566 195.201 50.5938 195.256 47.9414 195.256H46.9707V189.814H52.4395ZM69.34 196.186V197.211H66.5236V201.162H65.2111V197.211H62.258V201.162H60.9592V197.211H58.1291V196.186H69.34ZM68.0139 189.35V192.631H60.7951V193.984H68.2736V195.037H59.4963V191.66H66.6877V190.416H59.4553V189.35H68.0139Z" fill="black"/>
<rect width="16" height="16" transform="translate(314 203) rotate(-90)" fill="white"/>
<path d="M317.131 197.227L322.168 192.14C322.257 192.05 322.376 192 322.499 192C322.623 192 322.742 192.05 322.83 192.14L327.869 197.227C327.91 197.269 327.943 197.318 327.966 197.373C327.988 197.428 328 197.487 328 197.547C328 197.607 327.988 197.666 327.966 197.721C327.943 197.776 327.91 197.825 327.869 197.867C327.784 197.952 327.671 198 327.553 198C327.435 198 327.321 197.952 327.237 197.867L322.499 193.083L317.763 197.865C317.679 197.951 317.565 197.998 317.447 197.998C317.329 197.998 317.216 197.951 317.131 197.865C317.09 197.824 317.057 197.774 317.034 197.719C317.012 197.664 317 197.605 317 197.545C317 197.486 317.012 197.427 317.034 197.372C317.057 197.317 317.09 197.267 317.131 197.226" fill="#82838A"/>
<rect x="20.5" y="232" width="14" height="14" rx="2.5" fill="white"/>
<rect x="20.5" y="232" width="14" height="14" rx="2.5" stroke="#83848C"/>
<path d="M50.7441 235.51C50.7441 236.959 51.9336 238.244 53.793 238.764L53.1914 239.789C51.7559 239.379 50.6758 238.511 50.1152 237.383C49.582 238.613 48.5156 239.563 47.0527 240.021L46.4238 238.996C48.2969 238.449 49.459 237.055 49.459 235.51V235.318H46.793V234.279H49.459V232.857H50.7578V234.279H53.4102V235.318H50.7441V235.51ZM56.6641 232.912V240.145H55.3652V237.342H53.0684V236.275H55.3652V232.912H56.6641ZM56.6641 240.732V245.012H48.584V240.732H56.6641ZM49.8691 241.785V243.959H55.3926V241.785H49.8691ZM67.6858 232.912V237.793H69.5861V238.873H67.6858V245.148H66.3869V232.912H67.6858ZM64.4865 234.197C64.4729 237.738 62.9143 240.896 58.8811 242.893L58.1565 241.881C61.2258 240.35 62.8938 238.135 63.1604 235.277H58.7717V234.197H64.4865ZM81.0043 237.984V239.023H76.0551V240.09H79.5961V242.961H72.4594V244.041H79.9379V245.039H71.1879V242.018H78.311V241.088H71.1742V240.09H74.7563V239.023H69.8344V237.984H81.0043ZM79.5688 233.309V237.082H71.2699V233.309H79.5688ZM72.5414 234.334V236.057H78.2699V234.334H72.5414Z" fill="black"/>
<rect width="16" height="16" transform="matrix(1.19249e-08 1 1 -1.19249e-08 314 231)" fill="white"/>
<path d="M317.131 236.773L322.168 241.86C322.257 241.95 322.376 242 322.499 242C322.623 242 322.742 241.95 322.83 241.86L327.869 236.773C327.91 236.731 327.943 236.682 327.966 236.627C327.988 236.572 328 236.513 328 236.453C328 236.393 327.988 236.334 327.966 236.279C327.943 236.224 327.91 236.175 327.869 236.133C327.784 236.048 327.671 236 327.553 236C327.435 236 327.321 236.048 327.237 236.133L322.499 240.917L317.763 236.135C317.679 236.049 317.565 236.002 317.447 236.002C317.329 236.002 317.216 236.049 317.131 236.135C317.09 236.176 317.057 236.226 317.034 236.281C317.012 236.336 317 236.395 317 236.455C317 236.514 317.012 236.573 317.034 236.628C317.057 236.683 317.09 236.733 317.131 236.774" fill="#82838A"/>
<path d="M27 276C30.8661 276 34 279.134 34 283C34 286.866 30.8661 290 27 290C23.1339 290 20 286.866 20 283C20 279.134 23.1339 276 27 276ZM27 285.1C26.8143 285.1 26.6363 285.174 26.505 285.305C26.3737 285.436 26.3 285.614 26.3 285.8C26.3 285.986 26.3737 286.164 26.505 286.295C26.6363 286.426 26.8143 286.5 27 286.5C27.1857 286.5 27.3637 286.426 27.495 286.295C27.6262 286.164 27.7 285.986 27.7 285.8C27.7 285.614 27.6262 285.436 27.495 285.305C27.3637 285.174 27.1857 285.1 27 285.1ZM27 278.8C26.8285 278.8 26.6631 278.863 26.5349 278.977C26.4068 279.091 26.325 279.248 26.3049 279.418L26.3 279.5V283.7C26.3002 283.878 26.3685 284.05 26.491 284.18C26.6135 284.309 26.7809 284.388 26.959 284.398C27.1371 284.408 27.3125 284.351 27.4493 284.236C27.5861 284.122 27.674 283.959 27.6951 283.782L27.7 283.7V279.5C27.7 279.314 27.6262 279.136 27.495 279.005C27.3637 278.874 27.1857 278.8 27 278.8Z" fill="#9B9CA2"/>
<path d="M49.3711 283.027V284.938C50.373 284.896 51.3984 284.809 52.3594 284.668L52.4297 285.348C50.0508 285.781 47.4844 285.793 45.6094 285.793L45.4805 285.031C46.3535 285.025 47.3848 285.02 48.4688 284.984V283.027H49.3711ZM51.8203 278.902V279.664H49.3711C49.3945 281.012 50.5137 282.107 52.0547 282.547L51.6211 283.273C50.3672 282.898 49.3887 282.096 48.9258 281.035C48.4688 282.154 47.4961 282.986 46.2422 283.367L45.7969 282.664C47.3379 282.213 48.4219 281.07 48.4453 279.664H46.0547V278.902H48.4688V277.613H49.3711V278.902H51.8203ZM53.9648 277.531V287.973H53.0508V277.531H53.9648ZM64.2912 277.531V287.949H63.4123V282.488H61.8772V287.41H61.0334V277.766H61.8772V281.727H63.4123V277.531H64.2912ZM59.674 278.809V279.57H56.6858V284.586C58.1213 284.58 59.1174 284.527 60.2717 284.293L60.3537 285.066C59.0998 285.324 58.0334 285.371 56.4397 285.371H55.7717V278.809H59.674ZM71.0924 287.117C69.5573 287.117 68.3971 286.168 68.3385 284.867H69.358C69.4401 285.629 70.1783 286.191 71.0924 286.191C72.194 286.191 72.9908 285.383 72.9908 284.316C72.9908 283.215 72.1588 282.406 71.0221 282.395C70.3073 282.383 69.7565 282.605 69.4401 283.156H68.4205L69.0182 278.516H73.6119V279.453H69.8971L69.5807 281.938H69.6627C70.0377 281.645 70.6119 281.445 71.2096 281.445C72.8268 281.445 74.0221 282.641 74.0221 284.293C74.0221 285.934 72.7799 287.117 71.0924 287.117ZM83.5985 277.531V287.949H82.6961V282.5H81.2547V287.434H80.3758V277.812H81.2547V281.738H82.6961V277.531H83.5985ZM79.1922 278.891C79.1805 281.539 78.2547 284.047 75.2547 285.711L74.7157 285.066C77.1356 283.719 78.1375 281.809 78.2899 279.652H75.1141V278.891H79.1922ZM92.917 277.531V281.832H94.4991V282.605H92.917V287.949H91.9912V277.531H92.917ZM87.8311 278.668C87.8194 281.152 87.2569 283.59 85.3702 285.594L84.6319 285.066C86.208 283.455 86.8409 281.516 86.9639 279.441H84.96V278.668H87.8311ZM90.6905 278.668C90.6787 281.141 90.3155 284.012 88.3702 286.285L87.6202 285.77C89.2491 283.93 89.7412 281.615 89.8233 279.441H88.1592V278.668H90.6905ZM98.3567 280.73C98.3567 282.5 99.6458 284.293 101.181 284.961L100.665 285.688C99.4465 285.131 98.3918 283.93 97.9114 282.488C97.4192 284.018 96.3704 285.348 95.1809 285.945L94.6301 285.219C96.1184 284.504 97.4192 282.535 97.4309 280.73V279.371H94.97V278.609H100.841V279.371H98.3567V280.73ZM103.22 277.531V287.949H102.294V277.531H103.22ZM110.759 279.5C110.759 280.953 111.814 282.324 113.338 282.875L112.822 283.59C111.679 283.133 110.771 282.225 110.326 281.094C109.881 282.354 108.931 283.355 107.701 283.848L107.209 283.098C108.767 282.523 109.845 281.07 109.857 279.465V278.176H110.759V279.5ZM115.834 277.543V285.348H114.908V280.766H112.588V279.992H114.908V277.543H115.834ZM116.068 286.953V287.727H109.095V284.457H110.021V286.953H116.068ZM121.672 278.293V279.066H118.508V280.367H121.555V281.094H118.508V282.535C120.025 282.529 120.974 282.477 122.094 282.254L122.187 283.016C120.969 283.25 119.984 283.309 118.285 283.309H117.629V278.293H121.672ZM126.008 277.543V283.859H125.129V281.012H123.664V283.789H122.808V277.742H123.664V280.262H125.129V277.543H126.008ZM126.008 284.398V287.949H125.105V285.148H118.988V284.398H126.008ZM135.268 277.496V280.027H136.85V280.789H135.268V283.262H134.354V277.496H135.268ZM135.268 283.801V286.109H129.549V287.129H135.654V287.832H128.647V285.43H134.354V284.492H128.623V283.801H135.268ZM133.357 278.48V279.219H127.147V278.48H129.795V277.426H130.709V278.48H133.357ZM130.252 279.688C131.764 279.688 132.748 280.344 132.76 281.398C132.748 282.453 131.764 283.109 130.252 283.109C128.729 283.109 127.732 282.453 127.744 281.398C127.732 280.344 128.729 279.688 130.252 279.688ZM130.252 280.367C129.268 280.367 128.611 280.777 128.623 281.398C128.611 282.031 129.268 282.418 130.252 282.418C131.236 282.418 131.881 282.031 131.893 281.398C131.881 280.777 131.236 280.367 130.252 280.367ZM144.917 278.504C144.917 279.969 146.838 281.246 148.713 281.504L148.338 282.254C146.721 281.984 145.122 281.088 144.448 279.805C143.78 281.094 142.174 281.984 140.557 282.254L140.182 281.504C142.057 281.246 143.967 279.992 143.967 278.504V277.906H144.917V278.504ZM149.182 283.402V284.176H144.87V287.949H143.967V284.176H139.69V283.402H149.182ZM155.784 284.527C155.784 285.447 156.276 286.426 157.272 286.988C158.257 286.373 158.784 285.336 158.784 284.527V283.953H159.686V284.527C159.686 285.594 160.472 286.672 161.808 287.129L161.351 287.809C160.308 287.439 159.575 286.713 159.218 285.84C158.895 286.684 158.257 287.48 157.296 287.891C156.282 287.504 155.638 286.736 155.327 285.863C154.958 286.707 154.237 287.434 153.241 287.809L152.772 287.129C154.085 286.637 154.882 285.523 154.893 284.527V283.953H155.784V284.527ZM160.858 277.543V283.496H159.944V277.543H160.858ZM155.233 278.152C156.815 278.152 157.964 279.137 157.964 280.59C157.964 282.02 156.815 283.004 155.233 283.004C153.651 283.004 152.503 282.02 152.503 280.59C152.503 279.137 153.651 278.152 155.233 278.152ZM155.233 278.938C154.167 278.926 153.393 279.617 153.405 280.59C153.393 281.551 154.167 282.23 155.233 282.242C156.288 282.23 157.061 281.551 157.061 280.59C157.061 279.617 156.288 278.926 155.233 278.938ZM165.021 278.34C166.439 278.352 167.458 279.564 167.61 281.516H169.942V277.531H170.857V287.973H169.942V282.277H167.622C167.511 284.316 166.474 285.594 165.021 285.594C163.485 285.594 162.407 284.188 162.407 281.973C162.407 279.758 163.485 278.352 165.021 278.34ZM165.021 279.16C163.989 279.172 163.286 280.273 163.286 281.973C163.286 283.672 163.989 284.773 165.021 284.773C166.04 284.773 166.755 283.672 166.755 281.973C166.755 280.273 166.04 279.172 165.021 279.16ZM181.722 285.84V286.613H172.183V285.84H174.55V283.027C173.66 282.564 173.12 281.814 173.12 280.871C173.12 279.254 174.702 278.199 176.929 278.188C179.156 278.199 180.738 279.254 180.738 280.871C180.738 281.797 180.216 282.541 179.355 283.004V285.84H181.722ZM176.929 278.949C175.218 278.938 174.011 279.711 174.011 280.871C174.011 282.031 175.218 282.816 176.929 282.816C178.628 282.816 179.847 282.031 179.847 280.871C179.847 279.711 178.628 278.938 176.929 278.949ZM175.452 285.84H178.429V283.355C177.978 283.479 177.474 283.543 176.929 283.543C176.396 283.543 175.898 283.484 175.452 283.367V285.84ZM183.248 287.07C182.837 287.07 182.486 286.73 182.498 286.309C182.486 285.898 182.837 285.559 183.248 285.559C183.658 285.559 183.998 285.898 183.998 286.309C183.998 286.73 183.658 287.07 183.248 287.07Z" fill="#6F7077"/>
<rect x="297" y="272" width="33" height="20" rx="4" fill="#E4ECEC"/>
<path d="M308.416 286.107C306.869 286.107 305.763 285.28 305.709 284.045H306.687C306.74 284.786 307.481 285.248 308.405 285.248C309.426 285.248 310.178 284.689 310.178 283.884C310.178 283.035 309.501 282.434 308.287 282.434H307.653V281.585H308.287C309.232 281.585 309.888 281.059 309.888 280.253C309.888 279.479 309.318 278.953 308.438 278.953C307.61 278.953 306.848 279.415 306.805 280.178H305.87C305.924 278.942 307.062 278.115 308.448 278.115C309.931 278.115 310.833 279.082 310.822 280.199C310.833 281.08 310.317 281.735 309.501 281.961V282.015C310.511 282.176 311.134 282.896 311.123 283.884C311.134 285.162 309.963 286.107 308.416 286.107ZM314.894 277.857L312.38 287.171H311.542L314.045 277.857H314.894ZM317.913 286.107C316.505 286.107 315.442 285.237 315.388 284.045H316.323C316.398 284.743 317.075 285.259 317.913 285.259C318.922 285.259 319.653 284.518 319.653 283.54C319.653 282.53 318.89 281.789 317.848 281.778C317.193 281.768 316.688 281.972 316.398 282.477H315.463L316.011 278.223H320.222V279.082H316.817L316.527 281.359H316.602C316.946 281.091 317.472 280.908 318.02 280.908C319.502 280.908 320.598 282.004 320.598 283.519C320.598 285.022 319.459 286.107 317.913 286.107Z" fill="#005158"/>
<mask id="path-27-inside-3_803_2857" fill="white">
<path d="M0 308H350V562C350 566.418 346.418 570 342 570H8C3.58172 570 0 566.418 0 562V308Z"/>
</mask>
<path d="M0 308H350H0M351 562C351 566.971 346.971 571 342 571H8C3.02944 571 -1 566.971 -1 562H1C1 565.866 4.13401 569 8 569H342C345.866 569 349 565.866 349 562H351ZM8 571C3.02944 571 -1 566.971 -1 562V308H1V562C1 565.866 4.13401 569 8 569V571ZM351 308V562C351 566.971 346.971 571 342 571V569C345.866 569 349 565.866 349 562V308H351Z" fill="#E3E4E8" mask="url(#path-27-inside-3_803_2857)"/>
<rect x="20" y="321.5" width="15" height="15" rx="3" fill="#005158"/>
<path d="M30.948 326.473C31.1355 326.652 31.143 326.948 30.9643 327.135L26.7974 331.51C26.7536 331.556 26.701 331.593 26.6426 331.618C26.5843 331.643 26.5215 331.656 26.458 331.656C26.3946 331.656 26.3318 331.643 26.2734 331.618C26.2151 331.593 26.1624 331.556 26.1186 331.51L24.0355 329.323C23.9913 329.279 23.9563 329.226 23.9327 329.168C23.909 329.11 23.8972 329.048 23.898 328.986C23.8987 328.923 23.912 328.861 23.937 328.804C23.962 328.747 23.9982 328.695 24.0435 328.652C24.0888 328.609 24.1423 328.575 24.2008 328.553C24.2593 328.531 24.3216 328.52 24.3841 328.523C24.4467 328.525 24.5081 328.54 24.5648 328.566C24.6215 328.593 24.6723 328.63 24.7143 328.677L26.458 330.508L30.2855 326.489C30.3712 326.399 30.4892 326.347 30.6134 326.344C30.7376 326.341 30.858 326.387 30.948 326.473Z" fill="white"/>
<path d="M57.6484 329.83V330.896H54.8047V335.162H53.4922V330.896H50.5664V335.162H49.2266V330.896H46.4375V329.83H57.6484ZM52.0156 323.377C54.5996 323.377 56.377 324.43 56.377 326.084C56.377 327.711 54.5996 328.75 52.0156 328.736C49.418 328.75 47.6543 327.711 47.6543 326.084C47.6543 324.43 49.418 323.377 52.0156 323.377ZM52.0156 324.416C50.1973 324.43 48.9805 325.059 48.9941 326.084C48.9805 327.082 50.1973 327.711 52.0156 327.711C53.834 327.711 55.0508 327.082 55.0508 326.084C55.0508 325.059 53.834 324.43 52.0156 324.416ZM68.6565 322.912V335.162H67.4123V322.912H68.6565ZM66.1682 323.172V334.547H64.9377V328.312H63.0373V327.246H64.9377V323.172H66.1682ZM61.8342 326.33C61.8342 328.422 62.6818 330.514 64.4045 331.512L63.6252 332.469C62.4563 331.771 61.6496 330.534 61.2326 329.051C60.7883 330.65 59.9543 332.011 58.758 332.756L57.965 331.785C59.7014 330.732 60.59 328.504 60.59 326.33V325.346H58.3342V324.293H63.9397V325.346H61.8342V326.33ZM81.0043 328.777V329.816H76.0551V331.129H79.6371V335.012H71.1742V331.129H74.7699V329.816H69.8344V328.777H81.0043ZM79.9516 323.295V324.348H78.1742V326.686H79.8969V327.738H70.9145V326.686H72.6508V324.348H70.8598V323.295H79.9516ZM72.4594 332.154V333.959H78.3793V332.154H72.4594ZM73.936 326.686H76.8754V324.348H73.936V326.686Z" fill="black"/>
<path d="M271.12 329.799V330.508H267.135V333.87H266.308V330.508H262.376V329.799H271.12ZM266.727 324.707C268.735 324.707 270.089 325.513 270.089 326.812C270.089 328.08 268.735 328.886 266.727 328.886C264.718 328.886 263.364 328.08 263.364 326.812C263.364 325.513 264.718 324.707 266.727 324.707ZM266.727 325.395C265.233 325.395 264.224 325.953 264.234 326.812C264.224 327.661 265.233 328.209 266.727 328.209C268.209 328.209 269.229 327.661 269.229 326.812C269.229 325.953 268.209 325.395 266.727 325.395ZM280.219 329.767V330.465H277.909V333.87H277.061V330.465H274.612V333.87H273.741V330.465H271.475V329.767H280.219ZM275.825 324.707C277.834 324.707 279.188 325.513 279.188 326.791C279.188 328.059 277.834 328.864 275.825 328.854C273.817 328.864 272.463 328.059 272.463 326.791C272.463 325.513 273.817 324.707 275.825 324.707ZM275.825 325.395C274.332 325.395 273.322 325.942 273.333 326.791C273.322 327.64 274.332 328.177 275.825 328.177C277.308 328.177 278.328 327.64 278.328 326.791C278.328 325.942 277.308 325.395 275.825 325.395ZM286.063 324.943C287.567 324.954 288.63 325.856 288.63 327.188C288.63 328.392 287.76 329.246 286.482 329.391V331.023C287.427 330.975 288.389 330.895 289.297 330.755L289.361 331.378C287.18 331.786 284.828 331.797 283.109 331.797L282.991 331.088C283.77 331.088 284.677 331.088 285.633 331.056V329.391C284.355 329.24 283.474 328.392 283.485 327.188C283.474 325.856 284.559 324.954 286.063 324.943ZM286.063 325.685C285.043 325.685 284.301 326.297 284.312 327.188C284.301 328.08 285.043 328.703 286.063 328.692C287.073 328.703 287.803 328.08 287.803 327.188C287.803 326.297 287.073 325.685 286.063 325.685ZM290.768 324.32V333.892H289.93V324.32H290.768ZM297.418 333.107C295.871 333.107 294.765 332.28 294.711 331.045H295.689C295.742 331.786 296.483 332.248 297.407 332.248C298.428 332.248 299.18 331.689 299.18 330.884C299.18 330.035 298.503 329.434 297.289 329.434H296.655V328.585H297.289C298.234 328.585 298.89 328.059 298.89 327.253C298.89 326.479 298.32 325.953 297.439 325.953C296.612 325.953 295.85 326.415 295.807 327.178H294.872C294.926 325.942 296.064 325.115 297.45 325.115C298.933 325.115 299.835 326.082 299.824 327.199C299.835 328.08 299.319 328.735 298.503 328.961V329.015C299.513 329.176 300.136 329.896 300.125 330.884C300.136 332.162 298.965 333.107 297.418 333.107ZM308.923 324.32V333.87H308.096V328.875H306.775V333.397H305.969V324.578H306.775V328.177H308.096V324.32H308.923ZM304.884 325.566C304.873 327.994 304.025 330.293 301.275 331.818L300.781 331.228C302.999 329.992 303.917 328.241 304.057 326.265H301.146V325.566H304.884Z" fill="#82838A"/>
<rect width="16" height="16" transform="matrix(1.19249e-08 1 1 -1.19249e-08 314 321)" fill="white"/>
<path d="M317.131 326.773L322.168 331.86C322.257 331.95 322.376 332 322.499 332C322.623 332 322.742 331.95 322.83 331.86L327.869 326.773C327.91 326.731 327.943 326.682 327.966 326.627C327.988 326.572 328 326.513 328 326.453C328 326.393 327.988 326.334 327.966 326.279C327.943 326.224 327.91 326.175 327.869 326.133C327.784 326.048 327.671 326 327.553 326C327.435 326 327.321 326.048 327.237 326.133L322.499 330.917L317.763 326.135C317.679 326.049 317.565 326.002 317.447 326.002C317.329 326.002 317.216 326.049 317.131 326.135C317.09 326.176 317.057 326.226 317.034 326.281C317.012 326.336 317 326.395 317 326.455C317 326.514 317.012 326.573 317.034 326.628C317.057 326.683 317.09 326.733 317.131 326.774" fill="#82838A"/>
<rect x="20" y="365.5" width="15" height="15" rx="3" fill="#005158"/>
<path d="M30.948 370.473C31.1355 370.652 31.143 370.948 30.9643 371.135L26.7974 375.51C26.7536 375.556 26.701 375.593 26.6426 375.618C26.5843 375.643 26.5215 375.656 26.458 375.656C26.3946 375.656 26.3318 375.643 26.2734 375.618C26.2151 375.593 26.1624 375.556 26.1186 375.51L24.0355 373.323C23.9913 373.279 23.9563 373.226 23.9327 373.168C23.909 373.11 23.8972 373.048 23.898 372.986C23.8987 372.923 23.912 372.861 23.937 372.804C23.962 372.747 23.9982 372.695 24.0435 372.652C24.0888 372.609 24.1423 372.575 24.2008 372.553C24.2593 372.531 24.3216 372.52 24.3841 372.523C24.4467 372.525 24.5081 372.54 24.5648 372.566C24.6215 372.593 24.6723 372.63 24.7143 372.677L26.458 374.508L30.2855 370.489C30.3712 370.399 30.4892 370.347 30.6134 370.344C30.7376 370.341 30.858 370.387 30.948 370.473Z" fill="white"/>
<path d="M56.6641 366.926V376.018H55.3652V373.201H52.2344V372.135H55.3652V370.453H52.4121C51.5303 372.36 49.6914 373.796 47.2031 374.582L46.6426 373.557C49.4316 372.654 51.2773 370.993 51.5508 368.908H47.2715V367.869H52.959C52.959 368.402 52.8906 368.915 52.7676 369.4H55.3652V366.926H56.6641ZM56.9785 377.85V378.902H48.7754V375.115H50.0879V377.85H56.9785ZM64.965 368.225V368.977C64.965 370.002 64.965 371.588 64.6096 373.775L63.3244 373.68C63.632 371.718 63.6662 370.303 63.6799 369.277H58.7033V368.225H64.965ZM61.8205 371.725V375.389C63.1262 375.348 64.4524 375.259 65.676 375.102L65.7443 376.072C63.1877 376.482 60.344 376.537 58.1701 376.523L58.0197 375.471C58.7854 375.464 59.6399 375.457 60.5354 375.43V371.725H61.8205ZM67.6858 366.912V371.971H69.5588V373.078H67.6858V379.162H66.3733V366.912H67.6858ZM81.0317 374.186V375.211H78.2153V379.162H76.9028V375.211H73.9496V379.162H72.6508V375.211H69.8207V374.186H81.0317ZM79.7055 367.35V370.631H72.4867V371.984H79.9653V373.037H71.1879V369.66H78.3793V368.416H71.1469V367.35H79.7055Z" fill="black"/>
<path d="M270.024 368.331V370.845H271.292V371.554H270.024V374.078H269.176V368.331H270.024ZM265.137 369.094V369.781H263.558V372.606C264.052 372.601 264.653 372.553 265.309 372.392L265.395 373.122C264.492 373.305 263.751 373.326 263.171 373.326H262.752V369.094H265.137ZM268.252 369.094V369.781H266.522V372.574C267.285 372.569 267.876 372.531 268.585 372.37L268.682 373.079C267.822 373.272 267.156 373.294 266.189 373.305H265.717V369.094H268.252ZM266.909 374.229C268.886 374.229 270.11 374.895 270.11 376.033C270.11 377.193 268.886 377.849 266.909 377.849C264.922 377.849 263.708 377.193 263.708 376.033C263.708 374.895 264.922 374.229 266.909 374.229ZM266.909 374.895C265.448 374.895 264.546 375.324 264.557 376.033C264.546 376.753 265.448 377.172 266.909 377.183C268.37 377.172 269.262 376.753 269.262 376.033C269.262 375.324 268.37 374.895 266.909 374.895ZM280.187 373.058V373.745H271.496V373.058H275.041V371.715H275.89V373.058H280.187ZM279.113 368.707V369.438C279.102 370.232 279.102 371.178 278.865 372.445L278.028 372.37C278.13 371.849 278.194 371.387 278.232 370.963L272.409 371.242L272.291 370.512L278.264 370.318C278.275 370.007 278.275 369.717 278.275 369.438V369.395H272.528V368.707H279.113ZM275.836 374.508C277.888 374.508 279.113 375.109 279.123 376.184C279.113 377.247 277.888 377.849 275.836 377.849C273.763 377.849 272.538 377.247 272.538 376.184C272.538 375.109 273.763 374.508 275.836 374.508ZM275.836 375.174C274.3 375.174 273.387 375.539 273.398 376.184C273.387 376.828 274.3 377.183 275.836 377.183C277.351 377.183 278.275 376.828 278.275 376.184C278.275 375.539 277.351 375.174 275.836 375.174ZM286.063 368.943C287.567 368.954 288.63 369.856 288.63 371.188C288.63 372.392 287.76 373.246 286.482 373.391V375.023C287.427 374.975 288.389 374.895 289.297 374.755L289.361 375.378C287.18 375.786 284.828 375.797 283.109 375.797L282.991 375.088C283.77 375.088 284.677 375.088 285.633 375.056V373.391C284.355 373.24 283.474 372.392 283.485 371.188C283.474 369.856 284.559 368.954 286.063 368.943ZM286.063 369.685C285.043 369.685 284.301 370.297 284.312 371.188C284.301 372.08 285.043 372.703 286.063 372.692C287.073 372.703 287.803 372.08 287.803 371.188C287.803 370.297 287.073 369.685 286.063 369.685ZM290.768 368.32V377.892H289.93V368.32H290.768ZM294.732 377L294.722 376.291L297.375 373.498C298.299 372.521 298.739 371.994 298.739 371.274C298.739 370.479 298.063 369.953 297.192 369.953C296.269 369.953 295.678 370.544 295.678 371.414H294.765C294.754 370.039 295.817 369.115 297.225 369.115C298.632 369.115 299.642 370.061 299.642 371.274C299.642 372.145 299.233 372.821 297.858 374.239L296.075 376.076V376.141H299.781V377H294.732ZM308.59 368.32V377.87H307.763V372.875H306.442V377.397H305.636V368.578H306.442V372.177H307.763V368.32H308.59ZM304.551 369.566C304.54 371.994 303.692 374.293 300.942 375.818L300.448 375.228C302.666 373.992 303.584 372.241 303.724 370.265H300.813V369.566H304.551Z" fill="#82838A"/>
<rect width="16" height="16" transform="matrix(1.19249e-08 1 1 -1.19249e-08 314 365)" fill="white"/>
<path d="M317.131 370.773L322.168 375.86C322.257 375.95 322.376 376 322.499 376C322.623 376 322.742 375.95 322.83 375.86L327.869 370.773C327.91 370.731 327.943 370.682 327.966 370.627C327.988 370.572 328 370.513 328 370.453C328 370.393 327.988 370.334 327.966 370.279C327.943 370.224 327.91 370.175 327.869 370.133C327.784 370.048 327.671 370 327.553 370C327.435 370 327.321 370.048 327.237 370.133L322.499 374.917L317.763 370.135C317.679 370.049 317.565 370.002 317.447 370.002C317.329 370.002 317.216 370.049 317.131 370.135C317.09 370.176 317.057 370.226 317.034 370.281C317.012 370.336 317 370.395 317 370.455C317 370.514 317.012 370.573 317.034 370.628C317.057 370.683 317.09 370.733 317.131 370.774" fill="#82838A"/>
<rect x="20.5" y="410" width="14" height="14" rx="2.5" fill="white"/>
<rect x="20.5" y="410" width="14" height="14" rx="2.5" stroke="#83848C"/>
<path d="M52.918 411.568V416.613H47.0938V411.568H52.918ZM48.3652 412.621V415.602H51.6328V412.621H48.3652ZM56.5957 410.912V417.188H55.3105V410.912H56.5957ZM56.5957 417.775V420.824H49.8555V422H56.9922V423.039H48.584V419.881H55.3242V418.787H48.5566V417.775H56.5957ZM67.6858 410.912V415.793H69.5861V416.873H67.6858V423.148H66.3869V410.912H67.6858ZM64.4865 412.197C64.4729 415.738 62.9143 418.896 58.8811 420.893L58.1565 419.881C61.2258 418.35 62.8938 416.135 63.1604 413.277H58.7717V412.197H64.4865ZM79.7055 411.363V414.699H72.4867V416.107H79.9653V417.16H71.1879V413.701H78.3793V412.416H71.1469V411.363H79.7055ZM81.0317 418.322V419.361H76.0551V423.189H74.7563V419.361H69.8207V418.322H81.0317Z" fill="black"/>
<rect width="16" height="16" transform="matrix(1.19249e-08 1 1 -1.19249e-08 314 409)" fill="white"/>
<path d="M317.131 414.773L322.168 419.86C322.257 419.95 322.376 420 322.499 420C322.623 420 322.742 419.95 322.83 419.86L327.869 414.773C327.91 414.731 327.943 414.682 327.966 414.627C327.988 414.572 328 414.513 328 414.453C328 414.393 327.988 414.334 327.966 414.279C327.943 414.224 327.91 414.175 327.869 414.133C327.784 414.048 327.671 414 327.553 414C327.435 414 327.321 414.048 327.237 414.133L322.499 418.917L317.763 414.135C317.679 414.049 317.565 414.002 317.447 414.002C317.329 414.002 317.216 414.049 317.131 414.135C317.09 414.176 317.057 414.226 317.034 414.281C317.012 414.336 317 414.395 317 414.455C317 414.514 317.012 414.573 317.034 414.628C317.057 414.683 317.09 414.733 317.131 414.774" fill="#82838A"/>
<rect x="20" y="453.5" width="15" height="15" rx="3" fill="#005158"/>
<path d="M30.948 458.473C31.1355 458.652 31.143 458.948 30.9643 459.135L26.7974 463.51C26.7536 463.556 26.701 463.593 26.6426 463.618C26.5843 463.643 26.5215 463.656 26.458 463.656C26.3946 463.656 26.3318 463.643 26.2734 463.618C26.2151 463.593 26.1624 463.556 26.1186 463.51L24.0355 461.323C23.9913 461.279 23.9563 461.226 23.9327 461.168C23.909 461.11 23.8972 461.048 23.898 460.986C23.8987 460.923 23.912 460.861 23.937 460.804C23.962 460.747 23.9982 460.695 24.0435 460.652C24.0888 460.609 24.1423 460.575 24.2008 460.553C24.2593 460.531 24.3216 460.52 24.3841 460.523C24.4467 460.525 24.5081 460.54 24.5648 460.566C24.6215 460.593 24.6723 460.63 24.7143 460.677L26.458 462.508L30.2855 458.489C30.3712 458.399 30.4892 458.347 30.6134 458.344C30.7376 458.341 30.858 458.387 30.948 458.473Z" fill="white"/>
<path d="M56.0898 454.912V458.016H57.8535V459.082H56.0898V462.145H54.7773V454.912H56.0898ZM52.125 462.377C54.627 462.377 56.1855 463.252 56.1855 464.756C56.1855 466.26 54.627 467.148 52.125 467.135C49.5957 467.148 48.0098 466.26 48.0098 464.756C48.0098 463.252 49.5957 462.377 52.125 462.377ZM52.125 463.43C50.3477 463.416 49.2812 463.908 49.2949 464.756C49.2812 465.604 50.3477 466.096 52.125 466.096C53.8613 466.096 54.9277 465.604 54.9414 464.756C54.9277 463.908 53.8613 463.416 52.125 463.43ZM52.4395 455.814V456.867H48.2559V460.203C50.6689 460.196 52.0293 460.121 53.5742 459.807L53.6973 460.859C52.0566 461.201 50.5938 461.256 47.9414 461.256H46.9707V455.814H52.4395ZM69.34 462.186V463.211H66.5236V467.162H65.2111V463.211H62.258V467.162H60.9592V463.211H58.1291V462.186H69.34ZM68.0139 455.35V458.631H60.7951V459.984H68.2736V461.037H59.4963V457.66H66.6877V456.416H59.4553V455.35H68.0139Z" fill="black"/>
<rect width="16" height="16" transform="translate(314 469) rotate(-90)" fill="white"/>
<path d="M317.131 463.227L322.168 458.14C322.257 458.05 322.376 458 322.499 458C322.623 458 322.742 458.05 322.83 458.14L327.869 463.227C327.91 463.269 327.943 463.318 327.966 463.373C327.988 463.428 328 463.487 328 463.547C328 463.607 327.988 463.666 327.966 463.721C327.943 463.776 327.91 463.825 327.869 463.867C327.784 463.952 327.671 464 327.553 464C327.435 464 327.321 463.952 327.237 463.867L322.499 459.083L317.763 463.865C317.679 463.951 317.565 463.998 317.447 463.998C317.329 463.998 317.216 463.951 317.131 463.865C317.09 463.824 317.057 463.774 317.034 463.719C317.012 463.664 317 463.605 317 463.545C317 463.486 317.012 463.427 317.034 463.372C317.057 463.317 317.09 463.267 317.131 463.226" fill="#82838A"/>
<rect x="20.5" y="498" width="14" height="14" rx="2.5" fill="white"/>
<rect x="20.5" y="498" width="14" height="14" rx="2.5" stroke="#83848C"/>
<path d="M50.7441 501.51C50.7441 502.959 51.9336 504.244 53.793 504.764L53.1914 505.789C51.7559 505.379 50.6758 504.511 50.1152 503.383C49.582 504.613 48.5156 505.563 47.0527 506.021L46.4238 504.996C48.2969 504.449 49.459 503.055 49.459 501.51V501.318H46.793V500.279H49.459V498.857H50.7578V500.279H53.4102V501.318H50.7441V501.51ZM56.6641 498.912V506.145H55.3652V503.342H53.0684V502.275H55.3652V498.912H56.6641ZM56.6641 506.732V511.012H48.584V506.732H56.6641ZM49.8691 507.785V509.959H55.3926V507.785H49.8691ZM67.6858 498.912V503.793H69.5861V504.873H67.6858V511.148H66.3869V498.912H67.6858ZM64.4865 500.197C64.4729 503.738 62.9143 506.896 58.8811 508.893L58.1565 507.881C61.2258 506.35 62.8938 504.135 63.1604 501.277H58.7717V500.197H64.4865ZM81.0043 503.984V505.023H76.0551V506.09H79.5961V508.961H72.4594V510.041H79.9379V511.039H71.1879V508.018H78.311V507.088H71.1742V506.09H74.7563V505.023H69.8344V503.984H81.0043ZM79.5688 499.309V503.082H71.2699V499.309H79.5688ZM72.5414 500.334V502.057H78.2699V500.334H72.5414Z" fill="black"/>
<rect width="16" height="16" transform="matrix(1.19249e-08 1 1 -1.19249e-08 314 497)" fill="white"/>
<path d="M317.131 502.773L322.168 507.86C322.257 507.95 322.376 508 322.499 508C322.623 508 322.742 507.95 322.83 507.86L327.869 502.773C327.91 502.731 327.943 502.682 327.966 502.627C327.988 502.572 328 502.513 328 502.453C328 502.393 327.988 502.334 327.966 502.279C327.943 502.224 327.91 502.175 327.869 502.133C327.784 502.048 327.671 502 327.553 502C327.435 502 327.321 502.048 327.237 502.133L322.499 506.917L317.763 502.135C317.679 502.049 317.565 502.002 317.447 502.002C317.329 502.002 317.216 502.049 317.131 502.135C317.09 502.176 317.057 502.226 317.034 502.281C317.012 502.336 317 502.395 317 502.455C317 502.514 317.012 502.573 317.034 502.628C317.057 502.683 317.09 502.733 317.131 502.774" fill="#82838A"/>
<path d="M27 542C30.8661 542 34 545.134 34 549C34 552.866 30.8661 556 27 556C23.1339 556 20 552.866 20 549C20 545.134 23.1339 542 27 542ZM27 551.1C26.8143 551.1 26.6363 551.174 26.505 551.305C26.3737 551.436 26.3 551.614 26.3 551.8C26.3 551.986 26.3737 552.164 26.505 552.295C26.6363 552.426 26.8143 552.5 27 552.5C27.1857 552.5 27.3637 552.426 27.495 552.295C27.6262 552.164 27.7 551.986 27.7 551.8C27.7 551.614 27.6262 551.436 27.495 551.305C27.3637 551.174 27.1857 551.1 27 551.1ZM27 544.8C26.8285 544.8 26.6631 544.863 26.5349 544.977C26.4068 545.091 26.325 545.248 26.3049 545.418L26.3 545.5V549.7C26.3002 549.878 26.3685 550.05 26.491 550.18C26.6135 550.309 26.7809 550.388 26.959 550.398C27.1371 550.408 27.3125 550.351 27.4493 550.236C27.5861 550.122 27.674 549.959 27.6951 549.782L27.7 549.7V545.5C27.7 545.314 27.6262 545.136 27.495 545.005C27.3637 544.874 27.1857 544.8 27 544.8Z" fill="#9B9CA2"/>
<path d="M49.3711 549.027V550.938C50.373 550.896 51.3984 550.809 52.3594 550.668L52.4297 551.348C50.0508 551.781 47.4844 551.793 45.6094 551.793L45.4805 551.031C46.3535 551.025 47.3848 551.02 48.4688 550.984V549.027H49.3711ZM51.8203 544.902V545.664H49.3711C49.3945 547.012 50.5137 548.107 52.0547 548.547L51.6211 549.273C50.3672 548.898 49.3887 548.096 48.9258 547.035C48.4688 548.154 47.4961 548.986 46.2422 549.367L45.7969 548.664C47.3379 548.213 48.4219 547.07 48.4453 545.664H46.0547V544.902H48.4688V543.613H49.3711V544.902H51.8203ZM53.9648 543.531V553.973H53.0508V543.531H53.9648ZM64.2912 543.531V553.949H63.4123V548.488H61.8772V553.41H61.0334V543.766H61.8772V547.727H63.4123V543.531H64.2912ZM59.674 544.809V545.57H56.6858V550.586C58.1213 550.58 59.1174 550.527 60.2717 550.293L60.3537 551.066C59.0998 551.324 58.0334 551.371 56.4397 551.371H55.7717V544.809H59.674ZM71.0924 553.117C69.5573 553.117 68.3971 552.168 68.3385 550.867H69.358C69.4401 551.629 70.1783 552.191 71.0924 552.191C72.194 552.191 72.9908 551.383 72.9908 550.316C72.9908 549.215 72.1588 548.406 71.0221 548.395C70.3073 548.383 69.7565 548.605 69.4401 549.156H68.4205L69.0182 544.516H73.6119V545.453H69.8971L69.5807 547.938H69.6627C70.0377 547.645 70.6119 547.445 71.2096 547.445C72.8268 547.445 74.0221 548.641 74.0221 550.293C74.0221 551.934 72.7799 553.117 71.0924 553.117ZM83.5985 543.531V553.949H82.6961V548.5H81.2547V553.434H80.3758V543.812H81.2547V547.738H82.6961V543.531H83.5985ZM79.1922 544.891C79.1805 547.539 78.2547 550.047 75.2547 551.711L74.7157 551.066C77.1356 549.719 78.1375 547.809 78.2899 545.652H75.1141V544.891H79.1922ZM92.917 543.531V547.832H94.4991V548.605H92.917V553.949H91.9912V543.531H92.917ZM87.8311 544.668C87.8194 547.152 87.2569 549.59 85.3702 551.594L84.6319 551.066C86.208 549.455 86.8409 547.516 86.9639 545.441H84.96V544.668H87.8311ZM90.6905 544.668C90.6787 547.141 90.3155 550.012 88.3702 552.285L87.6202 551.77C89.2491 549.93 89.7412 547.615 89.8233 545.441H88.1592V544.668H90.6905ZM98.3567 546.73C98.3567 548.5 99.6458 550.293 101.181 550.961L100.665 551.688C99.4465 551.131 98.3918 549.93 97.9114 548.488C97.4192 550.018 96.3704 551.348 95.1809 551.945L94.6301 551.219C96.1184 550.504 97.4192 548.535 97.4309 546.73V545.371H94.97V544.609H100.841V545.371H98.3567V546.73ZM103.22 543.531V553.949H102.294V543.531H103.22ZM110.759 545.5C110.759 546.953 111.814 548.324 113.338 548.875L112.822 549.59C111.679 549.133 110.771 548.225 110.326 547.094C109.881 548.354 108.931 549.355 107.701 549.848L107.209 549.098C108.767 548.523 109.845 547.07 109.857 545.465V544.176H110.759V545.5ZM115.834 543.543V551.348H114.908V546.766H112.588V545.992H114.908V543.543H115.834ZM116.068 552.953V553.727H109.095V550.457H110.021V552.953H116.068ZM121.672 544.293V545.066H118.508V546.367H121.555V547.094H118.508V548.535C120.025 548.529 120.974 548.477 122.094 548.254L122.187 549.016C120.969 549.25 119.984 549.309 118.285 549.309H117.629V544.293H121.672ZM126.008 543.543V549.859H125.129V547.012H123.664V549.789H122.808V543.742H123.664V546.262H125.129V543.543H126.008ZM126.008 550.398V553.949H125.105V551.148H118.988V550.398H126.008ZM135.268 543.496V546.027H136.85V546.789H135.268V549.262H134.354V543.496H135.268ZM135.268 549.801V552.109H129.549V553.129H135.654V553.832H128.647V551.43H134.354V550.492H128.623V549.801H135.268ZM133.357 544.48V545.219H127.147V544.48H129.795V543.426H130.709V544.48H133.357ZM130.252 545.688C131.764 545.688 132.748 546.344 132.76 547.398C132.748 548.453 131.764 549.109 130.252 549.109C128.729 549.109 127.732 548.453 127.744 547.398C127.732 546.344 128.729 545.688 130.252 545.688ZM130.252 546.367C129.268 546.367 128.611 546.777 128.623 547.398C128.611 548.031 129.268 548.418 130.252 548.418C131.236 548.418 131.881 548.031 131.893 547.398C131.881 546.777 131.236 546.367 130.252 546.367ZM144.917 544.504C144.917 545.969 146.838 547.246 148.713 547.504L148.338 548.254C146.721 547.984 145.122 547.088 144.448 545.805C143.78 547.094 142.174 547.984 140.557 548.254L140.182 547.504C142.057 547.246 143.967 545.992 143.967 544.504V543.906H144.917V544.504ZM149.182 549.402V550.176H144.87V553.949H143.967V550.176H139.69V549.402H149.182ZM155.784 550.527C155.784 551.447 156.276 552.426 157.272 552.988C158.257 552.373 158.784 551.336 158.784 550.527V549.953H159.686V550.527C159.686 551.594 160.472 552.672 161.808 553.129L161.351 553.809C160.308 553.439 159.575 552.713 159.218 551.84C158.895 552.684 158.257 553.48 157.296 553.891C156.282 553.504 155.638 552.736 155.327 551.863C154.958 552.707 154.237 553.434 153.241 553.809L152.772 553.129C154.085 552.637 154.882 551.523 154.893 550.527V549.953H155.784V550.527ZM160.858 543.543V549.496H159.944V543.543H160.858ZM155.233 544.152C156.815 544.152 157.964 545.137 157.964 546.59C157.964 548.02 156.815 549.004 155.233 549.004C153.651 549.004 152.503 548.02 152.503 546.59C152.503 545.137 153.651 544.152 155.233 544.152ZM155.233 544.938C154.167 544.926 153.393 545.617 153.405 546.59C153.393 547.551 154.167 548.23 155.233 548.242C156.288 548.23 157.061 547.551 157.061 546.59C157.061 545.617 156.288 544.926 155.233 544.938ZM165.021 544.34C166.439 544.352 167.458 545.564 167.61 547.516H169.942V543.531H170.857V553.973H169.942V548.277H167.622C167.511 550.316 166.474 551.594 165.021 551.594C163.485 551.594 162.407 550.188 162.407 547.973C162.407 545.758 163.485 544.352 165.021 544.34ZM165.021 545.16C163.989 545.172 163.286 546.273 163.286 547.973C163.286 549.672 163.989 550.773 165.021 550.773C166.04 550.773 166.755 549.672 166.755 547.973C166.755 546.273 166.04 545.172 165.021 545.16ZM181.722 551.84V552.613H172.183V551.84H174.55V549.027C173.66 548.564 173.12 547.814 173.12 546.871C173.12 545.254 174.702 544.199 176.929 544.188C179.156 544.199 180.738 545.254 180.738 546.871C180.738 547.797 180.216 548.541 179.355 549.004V551.84H181.722ZM176.929 544.949C175.218 544.938 174.011 545.711 174.011 546.871C174.011 548.031 175.218 548.816 176.929 548.816C178.628 548.816 179.847 548.031 179.847 546.871C179.847 545.711 178.628 544.938 176.929 544.949ZM175.452 551.84H178.429V549.355C177.978 549.479 177.474 549.543 176.929 549.543C176.396 549.543 175.898 549.484 175.452 549.367V551.84ZM183.248 553.07C182.837 553.07 182.486 552.73 182.498 552.309C182.486 551.898 182.837 551.559 183.248 551.559C183.658 551.559 183.998 551.898 183.998 552.309C183.998 552.73 183.658 553.07 183.248 553.07Z" fill="#6F7077"/>
<rect x="299" y="538" width="31" height="20" rx="4" fill="#E4ECEC"/>
<path d="M310.48 544.223V552H309.503V545.232H309.46L307.569 546.489V545.512L309.503 544.223H310.48ZM314.928 543.857L312.414 553.171H311.576L314.079 543.857H314.928ZM317.947 552.107C316.539 552.107 315.476 551.237 315.422 550.045H316.357C316.432 550.743 317.109 551.259 317.947 551.259C318.956 551.259 319.687 550.518 319.687 549.54C319.687 548.53 318.924 547.789 317.882 547.778C317.227 547.768 316.722 547.972 316.432 548.477H315.497L316.045 544.223H320.256V545.082H316.851L316.561 547.359H316.636C316.98 547.091 317.506 546.908 318.054 546.908C319.537 546.908 320.632 548.004 320.632 549.519C320.632 551.022 319.494 552.107 317.947 552.107Z" fill="#005158"/>
<rect x="0.5" y="173.5" width="349" height="311" rx="9.5" fill="#FEFFFF"/>
<rect x="0.5" y="173.5" width="349" height="311" rx="9.5" stroke="#005158"/>
<rect x="20" y="188.5" width="15" height="15" rx="3" fill="#005158"/>
<path d="M30.948 193.473C31.1355 193.652 31.143 193.948 30.9643 194.135L26.7974 198.51C26.7536 198.556 26.701 198.593 26.6426 198.618C26.5843 198.643 26.5215 198.656 26.458 198.656C26.3946 198.656 26.3318 198.643 26.2734 198.618C26.2151 198.593 26.1624 198.556 26.1186 198.51L24.0355 196.323C23.9913 196.279 23.9563 196.226 23.9327 196.168C23.909 196.11 23.8972 196.048 23.898 195.986C23.8987 195.923 23.912 195.861 23.937 195.804C23.962 195.747 23.9982 195.695 24.0435 195.652C24.0888 195.609 24.1423 195.575 24.2008 195.553C24.2593 195.531 24.3216 195.52 24.3841 195.523C24.4467 195.525 24.5081 195.54 24.5648 195.566C24.6215 195.593 24.6723 195.63 24.7143 195.677L26.458 197.508L30.2855 193.489C30.3712 193.399 30.4892 193.347 30.6134 193.344C30.7376 193.341 30.858 193.387 30.948 193.473Z" fill="white"/>
<path d="M56.0898 189.912V193.016H57.8535V194.082H56.0898V197.145H54.7773V189.912H56.0898ZM52.125 197.377C54.627 197.377 56.1855 198.252 56.1855 199.756C56.1855 201.26 54.627 202.148 52.125 202.135C49.5957 202.148 48.0098 201.26 48.0098 199.756C48.0098 198.252 49.5957 197.377 52.125 197.377ZM52.125 198.43C50.3477 198.416 49.2812 198.908 49.2949 199.756C49.2812 200.604 50.3477 201.096 52.125 201.096C53.8613 201.096 54.9277 200.604 54.9414 199.756C54.9277 198.908 53.8613 198.416 52.125 198.43ZM52.4395 190.814V191.867H48.2559V195.203C50.6689 195.196 52.0293 195.121 53.5742 194.807L53.6973 195.859C52.0566 196.201 50.5938 196.256 47.9414 196.256H46.9707V190.814H52.4395ZM69.34 197.186V198.211H66.5236V202.162H65.2111V198.211H62.258V202.162H60.9592V198.211H58.1291V197.186H69.34ZM68.0139 190.35V193.631H60.7951V194.984H68.2736V196.037H59.4963V192.66H66.6877V191.416H59.4553V190.35H68.0139Z" fill="black"/>
<rect width="16" height="16" transform="translate(314 204) rotate(-90)" fill="white"/>
<path d="M317.131 198.227L322.168 193.14C322.257 193.05 322.376 193 322.499 193C322.623 193 322.742 193.05 322.83 193.14L327.869 198.227C327.91 198.269 327.943 198.318 327.966 198.373C327.988 198.428 328 198.487 328 198.547C328 198.607 327.988 198.666 327.966 198.721C327.943 198.776 327.91 198.825 327.869 198.867C327.784 198.952 327.671 199 327.553 199C327.435 199 327.321 198.952 327.237 198.867L322.499 194.083L317.763 198.865C317.679 198.951 317.565 198.998 317.447 198.998C317.329 198.998 317.216 198.951 317.131 198.865C317.09 198.824 317.057 198.774 317.034 198.719C317.012 198.664 317 198.605 317 198.545C317 198.486 317.012 198.427 317.034 198.372C317.057 198.317 317.09 198.267 317.131 198.226" fill="#82838A"/>
<path d="M30.0078 236.953V240.125H31.8262V241.027H30.0078V244.213H28.9277V236.953H30.0078ZM26.0977 244.445C28.5723 244.445 30.1035 245.307 30.1035 246.756C30.1035 248.232 28.5723 249.08 26.0977 249.08C23.6094 249.08 22.0645 248.232 22.0645 246.756C22.0645 245.307 23.6094 244.445 26.0977 244.445ZM26.0977 245.334C24.2656 245.32 23.1172 245.867 23.1172 246.756C23.1172 247.658 24.2656 248.219 26.0977 248.219C27.916 248.219 29.0645 247.658 29.0645 246.756C29.0645 245.867 27.916 245.32 26.0977 245.334ZM26.4531 237.883V238.771H22.1055V242.34C24.5664 242.326 25.9883 242.251 27.6152 241.916L27.7246 242.805C26.0293 243.146 24.5664 243.215 21.9961 243.215H21.0527V237.883H26.4531ZM43.299 244.213V245.074H40.3733V249.107H39.3068V245.074H36.1623V249.107H35.0822V245.074H32.1701V244.213H43.299ZM41.9455 237.432V240.549H34.6174V242.066H42.2053V242.955H33.5373V239.715H40.8518V238.32H33.51V237.432H41.9455ZM57.0299 236.953V249.107H55.9498V236.953H57.0299ZM53.4342 238.279C53.4205 241.779 51.7936 244.869 47.7194 246.824L47.1315 245.949C50.4196 244.391 52.0944 242.06 52.3405 239.154H47.692V238.279H53.4342ZM64.9071 238.471C64.8934 239.961 66.9442 241.178 69.0907 241.479L68.6668 242.326C66.7049 242.046 64.8729 241.062 64.2098 239.633C63.5535 241.062 61.7284 242.046 59.7528 242.326L59.3563 241.479C61.5028 241.178 63.5125 239.961 63.5125 238.471V238.443H59.6844V237.568H68.7625V238.443H64.9071V238.471ZM69.7879 243.215V244.104H64.8387V246.592H63.7723V244.104H58.659V243.215H69.7879ZM68.5438 247.945V248.848H60.0809V245.375H61.161V247.945H68.5438ZM83.5461 236.953V243.242H82.4661V240.084H79.759V239.195H82.4661V236.953H83.5461ZM83.5461 243.857V246.756H76.7512V248.082H83.9973V248.943H75.6985V245.936H82.4797V244.719H75.6711V243.857H83.5461ZM77.6125 238.498C77.5989 240.098 78.8567 241.547 80.634 242.135L80.0598 242.969C78.7131 242.49 77.6399 241.533 77.1067 240.303C76.5872 241.69 75.4866 242.75 74.0442 243.27L73.4563 242.408C75.2883 241.807 76.5461 240.275 76.5598 238.498V237.35H77.6125V238.498ZM95.2377 236.953V244.199H94.1577V241.014H91.7104V240.125H94.1577V236.953H95.2377ZM91.2045 244.582C93.7338 244.582 95.2788 245.402 95.2788 246.838C95.2788 248.273 93.7338 249.094 91.2045 249.107C88.6752 249.094 87.1303 248.273 87.1303 246.838C87.1303 245.402 88.6752 244.582 91.2045 244.582ZM91.2045 245.416C89.3452 245.416 88.1831 245.949 88.1967 246.838C88.1831 247.713 89.3452 248.246 91.2045 248.246C93.0639 248.246 94.2124 247.713 94.2124 246.838C94.2124 245.949 93.0639 245.416 91.2045 245.416ZM89.3862 239.182C89.3862 240.768 90.603 242.271 92.3803 242.887L91.8198 243.748C90.4526 243.256 89.393 242.237 88.8803 240.973C88.3471 242.401 87.2192 243.543 85.7768 244.09L85.2163 243.229C87.021 242.572 88.3061 240.932 88.3061 239.195V238.744H85.5581V237.842H92.1069V238.744H89.3862V239.182Z" fill="black"/>
<path d="M100.533 244.766C100.545 242.551 101.142 240.711 102.221 239.152H103.111C102.314 240.312 101.576 242.68 101.576 244.766C101.576 246.852 102.314 249.23 103.111 250.391H102.221C101.142 248.82 100.545 246.98 100.533 244.766ZM106.406 250.52C104.871 250.52 103.828 249.852 103.711 248.668H104.766C104.906 249.312 105.504 249.641 106.406 249.641C107.496 249.641 108.164 249.172 108.164 248.117V246.828H108.082C107.871 247.18 107.461 247.906 106.231 247.906C104.684 247.906 103.524 246.734 103.524 244.73C103.524 242.773 104.649 241.555 106.242 241.555C107.473 241.555 107.871 242.305 108.106 242.645H108.188V241.637H109.172V248.176C109.172 249.816 107.953 250.52 106.406 250.52ZM106.371 247.004C107.531 247.004 108.188 246.172 108.188 244.766C108.188 243.406 107.555 242.457 106.371 242.457C105.152 242.457 104.543 243.488 104.543 244.766C104.543 246.09 105.164 247.004 106.371 247.004ZM112.584 244.766C112.573 246.98 111.975 248.82 110.897 250.391H110.006C110.803 249.23 111.541 246.852 111.541 244.766C111.541 242.68 110.803 240.312 110.006 239.152H110.897C111.975 240.711 112.573 242.551 112.584 244.766Z" fill="#83848C"/>
<path d="M23.5742 294.117C21.6875 294.117 20.6094 292.535 20.6094 289.758C20.6094 287.004 21.7109 285.398 23.5742 285.398C25.4375 285.398 26.5391 287.004 26.5391 289.758C26.5391 292.535 25.4492 294.117 23.5742 294.117ZM23.5742 293.18C24.793 293.18 25.5078 291.949 25.5078 289.758C25.5078 287.566 24.793 286.312 23.5742 286.312C22.3555 286.312 21.6289 287.566 21.6289 289.758C21.6289 291.949 22.3438 293.18 23.5742 293.18ZM30.1272 296.52C28.592 296.52 27.549 295.852 27.4318 294.668H28.4865C28.6272 295.312 29.2248 295.641 30.1272 295.641C31.217 295.641 31.885 295.172 31.885 294.117V292.828H31.8029C31.592 293.18 31.1818 293.906 29.9514 293.906C28.4045 293.906 27.2443 292.734 27.2443 290.73C27.2443 288.773 28.3693 287.555 29.9631 287.555C31.1936 287.555 31.592 288.305 31.8264 288.645H31.9084V287.637H32.8928V294.176C32.8928 295.816 31.674 296.52 30.1272 296.52ZM30.092 293.004C31.2522 293.004 31.9084 292.172 31.9084 290.766C31.9084 289.406 31.2756 288.457 30.092 288.457C28.8733 288.457 28.2639 289.488 28.2639 290.766C28.2639 292.09 28.885 293.004 30.092 293.004Z" fill="#83848C"/>
<path d="M88.9727 285.516V294H87.6719V286.805H87.625L85.5977 288.129V286.898L87.707 285.516H88.9727ZM93.674 294.117C91.7053 294.117 90.5568 292.535 90.5568 289.758C90.5568 287.004 91.7287 285.398 93.674 285.398C95.6193 285.398 96.7912 287.004 96.7912 289.758C96.7912 292.535 95.6311 294.117 93.674 294.117ZM93.674 293.004C94.8225 293.004 95.5022 291.879 95.5022 289.758C95.5022 287.648 94.8108 286.488 93.674 286.488C92.5373 286.488 91.8459 287.648 91.8459 289.758C91.8459 291.879 92.5256 293.004 93.674 293.004ZM100.403 296.52C98.7973 296.52 97.7426 295.805 97.6254 294.621H98.9028C99.0199 295.219 99.5824 295.512 100.414 295.512C101.411 295.512 102.043 295.09 102.043 294.094V292.84H101.961C101.739 293.25 101.282 293.906 100.11 293.906C98.6098 293.906 97.4496 292.781 97.4496 290.754C97.4496 288.727 98.5863 287.555 100.122 287.555C101.305 287.555 101.739 288.27 101.973 288.668H102.055V287.637H103.274V294.141C103.274 295.77 102.043 296.52 100.403 296.52ZM100.391 292.875C101.457 292.875 102.055 292.09 102.055 290.777C102.055 289.488 101.469 288.621 100.391 288.621C99.2778 288.621 98.727 289.559 98.727 290.777C98.727 292.02 99.3012 292.875 100.391 292.875Z" fill="#005158"/>
<line x1="123.5" y1="287.5" x2="123.5" y2="292.5" stroke="#83848C" stroke-linecap="round"/>
<line x1="141.5" y1="287.5" x2="141.5" y2="292.5" stroke="#83848C" stroke-linecap="round"/>
<line x1="159.5" y1="287.5" x2="159.5" y2="292.5" stroke="#83848C" stroke-linecap="round"/>
<line x1="177.5" y1="287.5" x2="177.5" y2="292.5" stroke="#83848C" stroke-linecap="round"/>
<line x1="195.5" y1="287.5" x2="195.5" y2="292.5" stroke="#83848C" stroke-linecap="round"/>
<line x1="213.5" y1="287.5" x2="213.5" y2="292.5" stroke="#83848C" stroke-linecap="round"/>
<line x1="231.5" y1="287.5" x2="231.5" y2="292.5" stroke="#83848C" stroke-linecap="round"/>
<line x1="249.5" y1="287.5" x2="249.5" y2="292.5" stroke="#83848C" stroke-linecap="round"/>
<line x1="267.5" y1="287.5" x2="267.5" y2="292.5" stroke="#83848C" stroke-linecap="round"/>
<path d="M288.562 294.117C287.027 294.117 285.867 293.168 285.809 291.867H286.828C286.91 292.629 287.648 293.191 288.562 293.191C289.664 293.191 290.461 292.383 290.461 291.316C290.461 290.215 289.629 289.406 288.492 289.395C287.777 289.383 287.227 289.605 286.91 290.156H285.891L286.488 285.516H291.082V286.453H287.367L287.051 288.938H287.133C287.508 288.645 288.082 288.445 288.68 288.445C290.297 288.445 291.492 289.641 291.492 291.293C291.492 292.934 290.25 294.117 288.562 294.117ZM295.326 294.117C293.44 294.117 292.362 292.535 292.362 289.758C292.362 287.004 293.463 285.398 295.326 285.398C297.19 285.398 298.291 287.004 298.291 289.758C298.291 292.535 297.201 294.117 295.326 294.117ZM295.326 293.18C296.545 293.18 297.26 291.949 297.26 289.758C297.26 287.566 296.545 286.312 295.326 286.312C294.108 286.312 293.381 287.566 293.381 289.758C293.381 291.949 294.096 293.18 295.326 293.18ZM301.879 296.52C300.344 296.52 299.301 295.852 299.184 294.668H300.239C300.379 295.312 300.977 295.641 301.879 295.641C302.969 295.641 303.637 295.172 303.637 294.117V292.828H303.555C303.344 293.18 302.934 293.906 301.704 293.906C300.157 293.906 298.997 292.734 298.997 290.73C298.997 288.773 300.122 287.555 301.715 287.555C302.946 287.555 303.344 288.305 303.579 288.645H303.661V287.637H304.645V294.176C304.645 295.816 303.426 296.52 301.879 296.52ZM301.844 293.004C303.004 293.004 303.661 292.172 303.661 290.766C303.661 289.406 303.028 288.457 301.844 288.457C300.625 288.457 300.016 289.488 300.016 290.766C300.016 292.09 300.637 293.004 301.844 293.004ZM308.315 293.426V291.152H306.053V290.203H308.315V287.941H309.264V290.203H311.538V291.152H309.264V293.426H308.315Z" fill="#83848C"/>
<line x1="25.5" y1="272.5" x2="295.5" y2="272.5" stroke="#DBDBDB" stroke-width="5" stroke-linecap="round"/>
<line x1="25.5" y1="272.5" x2="92.5" y2="272.5" stroke="#005158" stroke-width="5" stroke-linecap="round"/>
<g filter="url(#filter0_d_803_2857)">
<rect x="84" y="266" width="14" height="14" rx="7" fill="#005158"/>
</g>
<path d="M30.541 325.953V338.107H29.4609V325.953H30.541ZM27.7383 327.279V328.168H26.3574V334.02C27.041 333.972 27.7178 333.91 28.3672 333.828L28.4355 334.635C25.7832 335.045 22.8574 335.086 20.6016 335.1L20.4785 334.184L22.1602 334.17V328.168H20.793V327.279H27.7383ZM23.2129 334.156C23.8965 334.143 24.6006 334.115 25.3047 334.074V328.168H23.2129V334.156ZM41.59 325.953V330.971H43.6272V331.859H41.59V338.107H40.5236V325.953H41.59ZM39.3479 327.908V328.797H32.1154V327.908H35.2463V326.104H36.3127V327.908H39.3479ZM35.7932 329.809C37.5158 329.809 38.76 330.957 38.7736 332.598C38.76 334.238 37.5158 335.387 35.7932 335.387C34.0568 335.387 32.799 334.238 32.8127 332.598C32.799 330.957 34.0568 329.809 35.7932 329.809ZM35.7932 330.711C34.6584 330.711 33.8244 331.504 33.8381 332.598C33.8244 333.705 34.6584 334.484 35.7932 334.471C36.9143 334.484 37.7346 333.705 37.7483 332.598C37.7346 331.504 36.9143 330.711 35.7932 330.711ZM53.6235 327.184V328.4C53.6098 329.891 53.6098 331.559 53.1723 334.006L52.0785 333.883C52.5434 331.559 52.5434 329.85 52.5434 328.4V328.072H45.0512V327.184H53.6235ZM54.9496 335.496V336.385H43.8754V335.496H48.2231V331.148H49.2758V335.496H54.9496ZM68.7078 325.967V332.721H67.6414V325.967H68.7078ZM62.9793 327.607C62.9657 329.289 64.2782 330.807 66.0828 331.395L65.5633 332.242C64.1278 331.757 62.993 330.745 62.4461 329.426C61.8993 330.841 60.7508 331.948 59.3016 332.461L58.7547 331.613C60.5868 330.971 61.8856 329.371 61.8856 327.607V326.418H62.9793V327.607ZM68.7899 333.445V334.32H67.1082V337.068H68.9129V337.943H60.5047V337.068H62.3231V334.32H60.6141V333.445H68.7899ZM63.3758 337.068H66.0418V334.32H63.3758V337.068ZM81.4385 332.365V333.24H70.3643V332.365H81.4385ZM80.208 336.945V337.848H71.7998V334.307H72.8799V336.945H80.208ZM75.9014 326.391C78.5127 326.377 80.1944 327.279 80.1944 328.797C80.1944 330.314 78.5127 331.217 75.9014 331.217C73.2627 331.217 71.5948 330.314 71.5948 328.797C71.5948 327.279 73.2627 326.377 75.9014 326.391ZM75.9014 327.252C73.9463 327.252 72.6885 327.84 72.7022 328.797C72.6885 329.754 73.9463 330.342 75.9014 330.342C77.8428 330.342 79.1006 329.754 79.1006 328.797C79.1006 327.84 77.8428 327.252 75.9014 327.252ZM94.6772 325.953V329.125H96.4956V330.027H94.6772V333.213H93.5971V325.953H94.6772ZM90.767 333.445C93.2417 333.445 94.7729 334.307 94.7729 335.756C94.7729 337.232 93.2417 338.08 90.767 338.08C88.2788 338.08 86.7338 337.232 86.7338 335.756C86.7338 334.307 88.2788 333.445 90.767 333.445ZM90.767 334.334C88.935 334.32 87.7866 334.867 87.7866 335.756C87.7866 336.658 88.935 337.219 90.767 337.219C92.5854 337.219 93.7338 336.658 93.7338 335.756C93.7338 334.867 92.5854 334.32 90.767 334.334ZM91.1225 326.883V327.771H86.7749V331.34C89.2358 331.326 90.6577 331.251 92.2846 330.916L92.394 331.805C90.6987 332.146 89.2358 332.215 86.6655 332.215H85.7221V326.883H91.1225ZM107.968 333.213V334.074H105.043V338.107H103.976V334.074H100.832V338.107H99.7516V334.074H96.8395V333.213H107.968ZM106.615 326.432V329.549H99.2868V331.066H106.875V331.955H98.2067V328.715H105.521V327.32H98.1794V326.432H106.615ZM115.807 328.25C115.807 329.945 117.037 331.545 118.815 332.188L118.213 333.021C116.88 332.488 115.82 331.429 115.301 330.109C114.781 331.579 113.674 332.748 112.238 333.322L111.664 332.447C113.482 331.777 114.74 330.082 114.754 328.209V326.705H115.807V328.25ZM121.727 325.967V335.072H120.647V329.727H117.94V328.824H120.647V325.967H121.727ZM122 336.945V337.848H113.865V334.033H114.945V336.945H122ZM128.606 326.842V327.744H124.914V329.262H128.469V330.109H124.914V331.791C126.685 331.784 127.792 331.723 129.098 331.463L129.207 332.352C127.785 332.625 126.637 332.693 124.655 332.693H123.889V326.842H128.606ZM133.664 325.967V333.336H132.639V330.014H130.93V333.254H129.932V326.199H130.93V329.139H132.639V325.967H133.664ZM133.664 333.965V338.107H132.612V334.84H125.475V333.965H133.664Z" fill="black"/>
<path d="M138.714 333.766C138.725 331.551 139.323 329.711 140.401 328.152H141.292C140.495 329.312 139.757 331.68 139.757 333.766C139.757 335.852 140.495 338.23 141.292 339.391H140.401C139.323 337.82 138.725 335.98 138.714 333.766ZM145.7 333.027V334.938C146.702 334.896 147.727 334.809 148.688 334.668L148.759 335.348C146.38 335.781 143.813 335.793 141.938 335.793L141.809 335.031C142.683 335.025 143.714 335.02 144.798 334.984V333.027H145.7ZM148.149 328.902V329.664H145.7C145.724 331.012 146.843 332.107 148.384 332.547L147.95 333.273C146.696 332.898 145.718 332.096 145.255 331.035C144.798 332.154 143.825 332.986 142.571 333.367L142.126 332.664C143.667 332.213 144.751 331.07 144.774 329.664H142.384V328.902H144.798V327.613H145.7V328.902H148.149ZM150.294 327.531V337.973H149.38V327.531H150.294ZM160.62 327.531V337.949H159.741V332.488H158.206V337.41H157.362V327.766H158.206V331.727H159.741V327.531H160.62ZM156.003 328.809V329.57H153.015V334.586C154.45 334.58 155.446 334.527 156.601 334.293L156.683 335.066C155.429 335.324 154.362 335.371 152.769 335.371H152.101V328.809H156.003ZM164.445 335.266V334.398L168.265 328.516H169.566V334.34H170.75V335.266H169.566V337H168.558V335.266H164.445ZM165.582 334.34H168.558V329.852H168.453L165.582 334.27V334.34ZM180.256 327.531V337.949H179.353V332.5H177.912V337.434H177.033V327.812H177.912V331.738H179.353V327.531H180.256ZM175.849 328.891C175.838 331.539 174.912 334.047 171.912 335.711L171.373 335.066C173.793 333.719 174.795 331.809 174.947 329.652H171.771V328.891H175.849ZM183.926 333.766C183.914 335.98 183.316 337.82 182.238 339.391H181.348C182.144 338.23 182.883 335.852 182.883 333.766C182.883 331.68 182.144 329.312 181.348 328.152H182.238C183.316 329.711 183.914 331.551 183.926 333.766Z" fill="#83848C"/>
<rect x="20.5" y="358.5" width="15" height="15" rx="2.5" fill="white"/>
<rect x="20.5" y="358.5" width="15" height="15" rx="2.5" stroke="#83848C"/>
<path d="M56.5684 359.953V366.242H55.4883V363.084H52.7812V362.195H55.4883V359.953H56.5684ZM56.5684 366.857V369.756H49.7734V371.082H57.0195V371.943H48.7207V368.936H55.502V367.719H48.6934V366.857H56.5684ZM50.6348 361.498C50.6211 363.098 51.8789 364.547 53.6562 365.135L53.082 365.969C51.7354 365.49 50.6621 364.533 50.1289 363.303C49.6094 364.69 48.5088 365.75 47.0664 366.27L46.4785 365.408C48.3105 364.807 49.5684 363.275 49.582 361.498V360.35H50.6348V361.498ZM67.6858 359.953V363.125H69.5178V364.014H67.6858V367.432H66.6193V359.953H67.6858ZM63.8166 367.746C66.3049 367.746 67.8225 368.539 67.8225 369.92C67.8225 371.301 66.3049 372.08 63.8166 372.08C61.301 372.08 59.7697 371.301 59.7834 369.92C59.7697 368.539 61.301 367.746 63.8166 367.746ZM63.8166 368.594C61.9572 368.594 60.8498 369.086 60.8498 369.92C60.8498 370.754 61.9572 371.246 63.8166 371.246C65.635 371.246 66.7561 370.754 66.7561 369.92C66.7561 369.086 65.635 368.594 63.8166 368.594ZM64.3498 360.814V361.689H59.8244V363.248H64.1174V364.109H59.8244V365.723C62.1897 365.736 63.55 365.661 65.1428 365.395L65.2658 366.256C63.5842 366.557 62.1897 366.611 59.674 366.598H58.758V360.814H64.3498Z" fill="black"/>
<path d="M80.6641 361.234V362.934H83.2539V361.234H83.957V365.992H79.9609V361.234H80.6641ZM80.6641 365.359H83.2539V363.531H80.6641V365.359ZM88.1992 360.578V366.777H87.4961V363.941H85.9492V366.707H85.2461V360.777H85.9492V363.32H87.4961V360.578H88.1992ZM88.1992 367.445V370.914H87.4844V368.078H81.2852V367.445H88.1992ZM97.9397 360.578V365.945H97.2014V363.215H94.7873V362.594H97.2014V360.578H97.9397ZM97.9397 366.508V368.863H92.0451V370.152H98.3615V370.762H91.3303V368.277H97.2131V367.117H91.2951V366.508H97.9397ZM92.8186 361.949C92.8186 363.355 94.0022 364.609 95.467 365.102L95.0568 365.688C93.9143 365.266 92.9358 364.41 92.4904 363.309C92.051 364.551 91.0666 365.494 89.842 365.957L89.4318 365.359C90.9318 364.832 92.1037 363.52 92.1154 361.949V360.895H92.8186V361.949ZM107.434 360.578V363.344H109.028V363.965H107.434V366.965H106.696V360.578H107.434ZM104.164 367.246C106.274 367.246 107.539 367.902 107.539 369.062C107.539 370.223 106.274 370.879 104.164 370.879C102.043 370.879 100.754 370.223 100.766 369.062C100.754 367.902 102.043 367.246 104.164 367.246ZM104.164 367.844C102.512 367.844 101.493 368.312 101.493 369.062C101.493 369.824 102.512 370.293 104.164 370.293C105.782 370.293 106.813 369.824 106.813 369.062C106.813 368.312 105.782 367.844 104.164 367.844ZM100.661 365.57C102.77 365.582 103.93 365.535 105.336 365.289L105.418 365.898C103.977 366.156 102.805 366.203 100.661 366.191H99.8988V361.328H104.61V361.938H100.637V363.414H104.434V364.023H100.637V365.57H100.661ZM110.858 369.285L110.003 372.32H109.311L109.967 369.285H110.858ZM123.272 361.516V362.125H114.917V361.516H118.761V360.391H119.487V361.516H123.272ZM119.112 362.594C121.222 362.594 122.429 363.121 122.429 364.117C122.429 365.113 121.222 365.641 119.112 365.641C117.003 365.641 115.796 365.113 115.796 364.117C115.796 363.121 117.003 362.594 119.112 362.594ZM119.112 363.145C117.507 363.145 116.546 363.508 116.558 364.117C116.546 364.727 117.507 365.09 119.112 365.09C120.718 365.09 121.667 364.727 121.679 364.117C121.667 363.508 120.718 363.145 119.112 363.145ZM123.835 366.402V367.012H114.413V366.402H123.835ZM122.558 368.031V370.914H121.819V368.617H115.421V368.031H122.558ZM132.896 360.578V365.945H132.157V363.215H129.743V362.594H132.157V360.578H132.896ZM132.896 366.508V368.863H127.001V370.152H133.318V370.762H126.286V368.277H132.169V367.117H126.251V366.508H132.896ZM127.775 361.949C127.775 363.355 128.958 364.609 130.423 365.102L130.013 365.688C128.87 365.266 127.892 364.41 127.447 363.309C127.007 364.551 126.023 365.494 124.798 365.957L124.388 365.359C125.888 364.832 127.06 363.52 127.072 361.949V360.895H127.775V361.949ZM142.39 360.578V363.344H143.984V363.965H142.39V366.965H141.652V360.578H142.39ZM139.121 367.246C141.23 367.246 142.496 367.902 142.496 369.062C142.496 370.223 141.23 370.879 139.121 370.879C136.999 370.879 135.71 370.223 135.722 369.062C135.71 367.902 136.999 367.246 139.121 367.246ZM139.121 367.844C137.468 367.844 136.449 368.312 136.449 369.062C136.449 369.824 137.468 370.293 139.121 370.293C140.738 370.293 141.769 369.824 141.769 369.062C141.769 368.312 140.738 367.844 139.121 367.844ZM135.617 365.57C137.726 365.582 138.886 365.535 140.292 365.289L140.374 365.898C138.933 366.156 137.761 366.203 135.617 366.191H134.855V361.328H139.566V361.938H135.593V363.414H139.39V364.023H135.593V365.57H135.617Z" fill="#82838A"/>
<rect x="20" y="390" width="16" height="16" rx="3" fill="#005158"/>
<path d="M31.6778 395.305C31.8778 395.495 31.8858 395.811 31.6951 396.011L27.2505 400.678C27.2038 400.727 27.1476 400.766 27.0854 400.793C27.0231 400.819 26.9562 400.833 26.8885 400.833C26.8208 400.833 26.7538 400.819 26.6915 400.793C26.6293 400.766 26.5732 400.727 26.5265 400.678L24.3045 398.345C24.2572 398.298 24.2199 398.242 24.1947 398.18C24.1695 398.118 24.157 398.052 24.1577 397.985C24.1585 397.918 24.1727 397.852 24.1993 397.791C24.226 397.73 24.2646 397.675 24.3129 397.629C24.3613 397.583 24.4183 397.547 24.4807 397.523C24.5431 397.5 24.6096 397.489 24.6763 397.491C24.743 397.494 24.8085 397.51 24.869 397.538C24.9295 397.566 24.9837 397.606 25.0285 397.655L26.8885 399.609L30.9711 395.322C31.0626 395.226 31.1884 395.17 31.3209 395.167C31.4534 395.164 31.5818 395.213 31.6778 395.305Z" fill="white"/>
<path d="M49.4043 392.719C51.0039 392.719 52.1934 393.908 52.1934 395.59C52.1934 397.285 51.0039 398.434 49.4043 398.434C47.7773 398.434 46.6152 397.285 46.6289 395.59C46.6152 393.908 47.7773 392.719 49.4043 392.719ZM49.4043 393.648C48.3652 393.648 47.5859 394.469 47.5996 395.59C47.5859 396.711 48.3652 397.531 49.4043 397.531C50.4434 397.531 51.1953 396.711 51.209 395.59C51.1953 394.469 50.4434 393.648 49.4043 393.648ZM56.8145 391.967V399.199H55.7891V395.986H54.1758V399.117H53.1641V392.199H54.1758V395.098H55.7891V391.967H56.8145ZM56.8145 399.883V404.107H55.7617V400.744H48.625V399.883H56.8145ZM62.2443 393.922C62.2443 395.576 63.5022 397.094 65.2658 397.695L64.6779 398.543C63.3313 398.051 62.2717 397.046 61.7385 395.781C61.219 397.21 60.1389 398.338 58.717 398.885L58.1428 398.023C59.9611 397.34 61.1779 395.713 61.1916 393.84V392.582H62.2443V393.922ZM67.6858 391.953V395.125H69.5178V396.027H67.6858V399.35H66.6193V391.953H67.6858ZM63.7893 399.664C66.2912 399.664 67.7951 400.471 67.7951 401.865C67.7951 403.287 66.2912 404.08 63.7893 404.08C61.2873 404.08 59.7561 403.287 59.7561 401.865C59.7561 400.471 61.2873 399.664 63.7893 399.664ZM63.7893 400.525C61.9572 400.525 60.8225 401.031 60.8361 401.865C60.8225 402.727 61.9572 403.219 63.7893 403.232C65.635 403.219 66.7561 402.727 66.7561 401.865C66.7561 401.031 65.635 400.525 63.7893 400.525ZM76.6156 393.307V393.936C76.602 394.893 76.602 396.506 76.2602 398.762L75.1801 398.666C75.5082 396.629 75.5356 395.152 75.5356 394.182H70.436V393.307H76.6156ZM73.4301 396.779V400.471C74.7768 400.423 76.1576 400.334 77.4223 400.184L77.477 400.99C74.9203 401.387 72.0629 401.441 69.8891 401.428L69.7524 400.539C70.5522 400.532 71.4408 400.525 72.3774 400.498V396.779H73.4301ZM79.2543 391.953V397.039H81.2231V397.969H79.2543V404.107H78.1879V391.953H79.2543ZM91.0826 391.953V395.125H92.901V396.027H91.0826V399.213H90.0026V391.953H91.0826ZM87.1725 399.445C89.6471 399.445 91.1783 400.307 91.1783 401.756C91.1783 403.232 89.6471 404.08 87.1725 404.08C84.6842 404.08 83.1393 403.232 83.1393 401.756C83.1393 400.307 84.6842 399.445 87.1725 399.445ZM87.1725 400.334C85.3405 400.32 84.192 400.867 84.192 401.756C84.192 402.658 85.3405 403.219 87.1725 403.219C88.9908 403.219 90.1393 402.658 90.1393 401.756C90.1393 400.867 88.9908 400.32 87.1725 400.334ZM87.528 392.883V393.771H83.1803V397.34C85.6412 397.326 87.0631 397.251 88.6901 396.916L88.7994 397.805C87.1041 398.146 85.6412 398.215 83.0709 398.215H82.1276V392.883H87.528Z" fill="black"/>
<rect x="20.5" y="422.5" width="15" height="15" rx="2.5" fill="white"/>
<rect x="20.5" y="422.5" width="15" height="15" rx="2.5" stroke="#83848C"/>
<path d="M56.8828 423.953V436.107H55.8574V429.736H54.0664V435.479H53.082V424.227H54.0664V428.848H55.8574V423.953H56.8828ZM51.4961 425.443V426.332H48.0098V432.184C49.6846 432.177 50.8467 432.115 52.1934 431.842L52.2891 432.744C50.8262 433.045 49.582 433.1 47.7227 433.1H46.9434V425.443H51.4961ZM61.7385 427.699C61.7385 429.654 62.7365 431.65 64.3908 432.539L63.7756 433.346C62.5656 432.689 61.6906 431.432 61.2463 429.969C60.8088 431.527 59.9406 432.881 58.7307 433.619L58.0881 432.799C59.7424 431.842 60.7131 429.709 60.7268 427.699V427.098H58.4162V426.209H60.7268V424.404H61.7522V426.209H64.0217V427.098H61.7385V427.699ZM68.5744 423.953V436.107H67.549V423.953H68.5744ZM66.1135 424.254V435.479H65.1018V429.668H63.1877V428.752H65.1018V424.254H66.1135ZM79.391 423.953V427.125H81.2094V428.027H79.391V431.213H78.311V423.953H79.391ZM75.4809 431.445C77.9555 431.445 79.4867 432.307 79.4867 433.756C79.4867 435.232 77.9555 436.08 75.4809 436.08C72.9926 436.08 71.4477 435.232 71.4477 433.756C71.4477 432.307 72.9926 431.445 75.4809 431.445ZM75.4809 432.334C73.6488 432.32 72.5004 432.867 72.5004 433.756C72.5004 434.658 73.6488 435.219 75.4809 435.219C77.2992 435.219 78.4477 434.658 78.4477 433.756C78.4477 432.867 77.2992 432.32 75.4809 432.334ZM75.8363 424.883V425.771H71.4887V429.34C73.9496 429.326 75.3715 429.251 76.9985 428.916L77.1078 429.805C75.4125 430.146 73.9496 430.215 71.3793 430.215H70.436V424.883H75.8363Z" fill="black"/>
<path d="M94.8438 427.871C94.8438 429.547 96.1562 431.375 97.5859 432.066L97.1523 432.652C96.0039 432.072 94.9551 430.807 94.4922 429.371C94.0176 430.924 92.8926 432.307 91.7617 432.91L91.3047 432.324C92.7109 431.621 94.1172 429.652 94.1289 427.871V426.289H91.668V425.656H97.2578V426.289H94.8438V427.871ZM99.4141 424.578V428.832H101.195V429.465H99.4141V434.914H98.6758V424.578H99.4141ZM104.338 424.977C105.885 424.988 106.987 425.914 106.998 427.25C106.987 428.598 105.885 429.512 104.338 429.512C102.791 429.512 101.678 428.598 101.69 427.25C101.678 425.914 102.791 424.988 104.338 424.977ZM104.338 425.609C103.225 425.609 102.405 426.301 102.416 427.25C102.405 428.199 103.225 428.891 104.338 428.891C105.451 428.891 106.283 428.199 106.283 427.25C106.283 426.301 105.451 425.609 104.338 425.609ZM109.916 424.578V429.922H109.178V424.578H109.916ZM109.916 430.449V432.84H104.01V434.152H110.315V434.762H103.295V432.266H109.19V431.059H103.26V430.449H109.916ZM119.879 424.578V434.926H119.153V424.578H119.879ZM112.848 431.762C114.547 431.762 116.129 431.691 118.063 431.375L118.133 432.008C116.176 432.312 114.594 432.395 112.848 432.395H111.993V428.527H116.012V426.195H111.981V425.562H116.75V429.148H112.754V431.762H112.848ZM129.62 427.871V428.434H126.421V429.488H130.768V430.074H121.346V429.488H125.682V428.434H122.612V424.789H129.573V425.363H123.362V426.301H129.28V426.863H123.362V427.871H129.62ZM129.526 430.906V433.062H123.256V434.199H129.854V434.785H122.542V432.5H128.811V431.469H122.506V430.906H129.526ZM132.821 433.285L131.966 436.32H131.274L131.931 433.285H132.821ZM144.427 424.578V426.898H146.021V427.52H144.427V429.875H143.689V424.578H144.427ZM144.427 430.391V432.805H138.661V434.152H144.825V434.762H137.935V432.23H143.689V431H137.911V430.391H144.427ZM139.271 424.977C140.818 424.977 141.919 425.902 141.931 427.25C141.919 428.609 140.818 429.535 139.271 429.535C137.736 429.535 136.611 428.609 136.611 427.25C136.611 425.902 137.736 424.977 139.271 424.977ZM139.271 425.598C138.157 425.598 137.337 426.301 137.337 427.25C137.337 428.211 138.157 428.926 139.271 428.926C140.384 428.926 141.204 428.211 141.204 427.25C141.204 426.301 140.384 425.598 139.271 425.598ZM155.785 429.371V429.969H151.414V430.977H154.589V433.098H148.238V434.223H154.941V434.785H147.511V432.559H153.851V431.551H147.488V430.977H150.687V429.969H146.328V429.371H155.785ZM154.554 424.918V426.957H148.296V427.988H154.73V428.551H147.57V426.43H153.816V425.469H147.535V424.918H154.554ZM165.771 432.957V433.59H156.302V432.957H160.638V430.871H157.521V427.777H163.814V425.996H157.486V425.375H164.541V428.398H158.248V430.25H164.787V430.871H161.377V432.957H165.771ZM171.328 426.148C171.328 428 173.578 429.57 175.207 429.875L174.844 430.508C173.385 430.145 171.609 429.014 170.953 427.426C170.297 429.014 168.521 430.145 167.062 430.508L166.711 429.875C168.34 429.559 170.555 428.012 170.566 426.148V425.328H171.328V426.148ZM175.734 432.84V433.461H166.266V432.84H175.734ZM188.137 429.559V430.191H178.715V429.559H188.137ZM187.024 427.871V428.48H179.922V425.035H186.953V425.668H180.649V427.871H187.024ZM183.426 431.176C185.629 431.188 186.965 431.855 186.965 433.039C186.965 434.223 185.629 434.879 183.426 434.879C181.2 434.879 179.864 434.223 179.864 433.039C179.864 431.855 181.2 431.188 183.426 431.176ZM183.426 431.773C181.692 431.785 180.614 432.254 180.614 433.039C180.614 433.824 181.692 434.281 183.426 434.281C185.137 434.281 186.227 433.824 186.227 433.039C186.227 432.254 185.137 431.785 183.426 431.773Z" fill="#82838A"/>
<rect x="20.5" y="454.5" width="15" height="15" rx="2.5" fill="white"/>
<rect x="20.5" y="454.5" width="15" height="15" rx="2.5" stroke="#83848C"/>
<path d="M56.5273 455.967V464.854H55.4609V455.967H56.5273ZM56.9102 466.945V467.848H48.6797V463.951H49.7461V466.945H56.9102ZM49.9648 456.814C51.7832 456.814 53.1504 458.045 53.1504 459.795C53.1504 461.572 51.7832 462.789 49.9648 462.789C48.1465 462.789 46.7793 461.572 46.7793 459.795C46.7793 458.045 48.1465 456.814 49.9648 456.814ZM49.9648 457.758C48.7344 457.758 47.8184 458.605 47.832 459.795C47.8184 461.012 48.7344 461.846 49.9648 461.846C51.168 461.846 52.0977 461.012 52.0977 459.795C52.0977 458.605 51.168 457.758 49.9648 457.758ZM63.6799 463.637C66.2912 463.637 67.9455 464.457 67.9455 465.865C67.9455 467.26 66.2912 468.08 63.6799 468.08C61.0822 468.08 59.4279 467.26 59.4279 465.865C59.4279 464.457 61.0822 463.637 63.6799 463.637ZM63.6799 464.457C61.7385 464.471 60.4807 465.004 60.4943 465.865C60.4807 466.713 61.7385 467.232 63.6799 467.232C65.6213 467.232 66.8654 466.713 66.8791 465.865C66.8654 465.004 65.6213 464.471 63.6799 464.457ZM67.8498 456.582V457.607C67.8498 458.592 67.8498 459.576 67.508 460.834L66.4553 460.711C66.7834 459.453 66.7834 458.564 66.7834 457.607V457.457H59.51V456.582H67.8498ZM69.258 461.627V462.502H58.1975V461.627H62.7775V459.275H63.8303V461.627H69.258ZM79.3774 455.953V458.934H81.2094V459.822H79.3774V462.857H78.311V455.953H79.3774ZM76.0551 456.746C76.0414 459.809 73.8949 461.996 70.2992 462.98L69.8617 462.119C72.8559 461.312 74.6811 459.692 74.9067 457.635H70.4086V456.746H76.0551ZM79.3774 463.418V467.943H71.6801V463.418H79.3774ZM72.7465 464.307V467.068H78.311V464.307H72.7465ZM87.8971 457.156V465.059H82.278V457.156H87.8971ZM83.3307 458.018V464.184H86.8444V458.018H83.3307ZM91.5885 455.953V468.135H90.5084V455.953H91.5885ZM104.388 465.701V466.604H93.2586V465.701H96.3895V463.391H94.6532V459.645H101.927V457.744H94.6258V456.855H102.979V460.533H95.7196V462.502H103.266V463.391H101.366V465.701H104.388ZM97.4422 465.701H100.313V463.391H97.4422V465.701Z" fill="black"/>
<path d="M117.211 457.398C118.723 457.398 119.789 458.793 119.789 460.973C119.789 463.152 118.723 464.547 117.211 464.547C115.699 464.547 114.645 463.152 114.656 460.973C114.645 458.793 115.699 457.398 117.211 457.398ZM117.211 458.055C116.121 458.055 115.348 459.25 115.348 460.973C115.348 462.707 116.121 463.891 117.211 463.891C118.324 463.891 119.074 462.707 119.086 460.973C119.074 459.25 118.324 458.055 117.211 458.055ZM122.414 456.578V460.785H124.195V461.418H122.414V466.914H121.676V456.578H122.414ZM129.483 458.148C129.483 460 131.733 461.57 133.362 461.875L132.998 462.508C131.539 462.145 129.764 461.014 129.108 459.426C128.451 461.014 126.676 462.145 125.217 462.508L124.865 461.875C126.494 461.559 128.709 460.012 128.721 458.148V457.328H129.483V458.148ZM133.889 464.84V465.461H124.42V464.84H133.889ZM140.336 457.75V458.371H139.118V463.504C139.721 463.463 140.319 463.41 140.887 463.34L140.934 463.902C138.719 464.242 136.211 464.277 134.36 464.289L134.254 463.633L135.719 463.621V458.371H134.512V457.75H140.336ZM142.34 456.578V460.785H144.122V461.418H142.34V466.914H141.602V456.578H142.34ZM136.446 463.609C137.084 463.604 137.741 463.58 138.403 463.539V458.371H136.446V463.609ZM145.624 461.488C147.733 461.488 148.893 461.453 150.299 461.184L150.381 461.805C148.94 462.062 147.768 462.109 145.624 462.098H144.862V457.223H149.573V457.867H145.6V459.32H149.397V459.941H145.6V461.488H145.624ZM152.397 463.246V466.762H145.94V463.246H152.397ZM146.655 463.844V466.152H151.659V463.844H146.655ZM152.397 456.578V459.191H153.991V459.824H152.397V462.672H151.659V456.578H152.397ZM155.821 465.285L154.966 468.32H154.274L154.931 465.285H155.821ZM164.474 457.586C164.474 459.121 166.583 460.352 168.282 460.609L167.978 461.219C166.454 460.943 164.743 460.041 164.099 458.711C163.454 460.053 161.743 460.938 160.22 461.219L159.904 460.609C161.615 460.352 163.712 459.156 163.712 457.586V456.965H164.474V457.586ZM168.798 462.461V463.094H164.427V466.914H163.712V463.094H159.376V462.461H168.798ZM177.519 457.68V458.98C177.519 460.504 177.519 461.91 177.097 463.961L176.359 463.891C176.587 462.859 176.699 461.963 176.757 461.125L170.335 461.477L170.218 460.855L176.781 460.562C176.798 460.023 176.798 459.508 176.804 458.98V458.312H170.488V457.68H177.519ZM178.761 464.758V465.391H169.339V464.758H178.761ZM187.353 456.578V458.934H188.959V459.555H187.353V462.039H186.615V456.578H187.353ZM187.353 462.52V464.863H181.611V466.176H187.763V466.785H180.884V464.301H186.615V463.117H180.861V462.52H187.353ZM180.58 460.973C182.42 460.973 183.791 460.902 185.502 460.645L185.56 461.242C183.838 461.512 182.443 461.582 180.58 461.57H179.783V458.957H183.697V457.668H179.759V457.082H184.424V459.531H180.521V460.973H180.58ZM198.734 464.957V465.59H189.266V464.957H193.601V462.871H190.484V459.777H196.777V457.996H190.449V457.375H197.504V460.398H191.211V462.25H197.75V462.871H194.34V464.957H198.734ZM204.291 458.148C204.291 460 206.541 461.57 208.17 461.875L207.807 462.508C206.348 462.145 204.572 461.014 203.916 459.426C203.26 461.014 201.484 462.145 200.025 462.508L199.674 461.875C201.303 461.559 203.518 460.012 203.529 458.148V457.328H204.291V458.148ZM208.697 464.84V465.461H199.229V464.84H208.697Z" fill="#82838A"/>
<defs>
<filter id="filter0_d_803_2857" x="80" y="262" width="22" height="22" filterUnits="userSpaceOnUse" color-interpolation-filters="sRGB">
<feFlood flood-opacity="0" result="BackgroundImageFix"/>
<feColorMatrix in="SourceAlpha" type="matrix" values="0 0 0 0 0 0 0 0 0 0 0 0 0 0 0 0 0 0 127 0" result="hardAlpha"/>
<feOffset/>
<feGaussianBlur stdDeviation="2"/>
<feComposite in2="hardAlpha" operator="out"/>
<feColorMatrix type="matrix" values="0 0 0 0 0 0 0 0 0 0.317647 0 0 0 0 0.345098 0 0 0 0.4 0"/>
<feBlend mode="normal" in2="BackgroundImageFix" result="effect1_dropShadow_803_2857"/>
<feBlend mode="normal" in="SourceGraphic" in2="effect1_dropShadow_803_2857" result="shape"/>
</filter>
</defs>
</svg>
