<svg width="350" height="312" viewBox="0 0 350 312" fill="none" xmlns="http://www.w3.org/2000/svg">
<rect x="0.5" y="0.5" width="349" height="311" rx="9.5" fill="#FEFFFF"/>
<rect x="0.5" y="0.5" width="349" height="311" rx="9.5" stroke="#005158"/>
<rect x="20" y="15.5" width="15" height="15" rx="3" fill="#005158"/>
<path d="M30.948 20.4732C31.1355 20.6519 31.143 20.9482 30.9643 21.1357L26.7974 25.5107C26.7536 25.5566 26.701 25.5932 26.6426 25.6182C26.5843 25.6432 26.5215 25.6561 26.458 25.6561C26.3946 25.6561 26.3318 25.6432 26.2734 25.6182C26.2151 25.5932 26.1624 25.5566 26.1186 25.5107L24.0355 23.3232C23.9913 23.279 23.9563 23.2263 23.9327 23.1684C23.909 23.1105 23.8972 23.0484 23.898 22.9859C23.8987 22.9233 23.912 22.8615 23.937 22.8042C23.962 22.7468 23.9982 22.6951 24.0435 22.6519C24.0888 22.6088 24.1423 22.5752 24.2008 22.553C24.2593 22.5309 24.3216 22.5207 24.3841 22.523C24.4467 22.5253 24.5081 22.5401 24.5648 22.5666C24.6215 22.593 24.6723 22.6305 24.7143 22.6769L26.458 24.5082L30.2855 20.4894C30.3712 20.3994 30.4892 20.3472 30.6134 20.3441C30.7376 20.3411 30.858 20.3875 30.948 20.4732Z" fill="white"/>
<path d="M56.0898 16.9121V20.0156H57.8535V21.082H56.0898V24.1445H54.7773V16.9121H56.0898ZM52.125 24.377C54.627 24.377 56.1855 25.252 56.1855 26.7559C56.1855 28.2598 54.627 29.1484 52.125 29.1348C49.5957 29.1484 48.0098 28.2598 48.0098 26.7559C48.0098 25.252 49.5957 24.377 52.125 24.377ZM52.125 25.4297C50.3477 25.416 49.2812 25.9082 49.2949 26.7559C49.2812 27.6035 50.3477 28.0957 52.125 28.0957C53.8613 28.0957 54.9277 27.6035 54.9414 26.7559C54.9277 25.9082 53.8613 25.416 52.125 25.4297ZM52.4395 17.8145V18.8672H48.2559V22.2031C50.6689 22.1963 52.0293 22.1211 53.5742 21.8066L53.6973 22.8594C52.0566 23.2012 50.5938 23.2559 47.9414 23.2559H46.9707V17.8145H52.4395ZM69.34 24.1855V25.2109H66.5236V29.1621H65.2111V25.2109H62.258V29.1621H60.9592V25.2109H58.1291V24.1855H69.34ZM68.0139 17.3496V20.6309H60.7951V21.9844H68.2736V23.0371H59.4963V19.6602H66.6877V18.416H59.4553V17.3496H68.0139Z" fill="black"/>
<rect width="16" height="16" transform="translate(314 31) rotate(-90)" fill="white"/>
<path d="M317.131 25.2271L322.168 20.1396C322.257 20.0501 322.376 20 322.499 20C322.623 20 322.742 20.0501 322.83 20.1396L327.869 25.2271C327.91 25.2686 327.943 25.3183 327.966 25.3732C327.988 25.4282 328 25.4873 328 25.547C328 25.6067 327.988 25.6657 327.966 25.7207C327.943 25.7757 327.91 25.8254 327.869 25.8668C327.784 25.9522 327.671 26 327.553 26C327.435 26 327.321 25.9522 327.237 25.8668L322.499 21.0831L317.763 25.8653C317.679 25.9507 317.565 25.9985 317.447 25.9985C317.329 25.9985 317.216 25.9507 317.131 25.8653C317.09 25.8238 317.057 25.7741 317.034 25.7192C317.012 25.6642 317 25.6051 317 25.5454C317 25.4857 317.012 25.4266 317.034 25.3717C317.057 25.3167 317.09 25.267 317.131 25.2255" fill="#82838A"/>
<rect x="20" y="59" width="293" height="69" fill="white"/>
<path d="M30.541 157.953V170.107H29.4609V157.953H30.541ZM27.7383 159.279V160.168H26.3574V166.02C27.041 165.972 27.7178 165.91 28.3672 165.828L28.4355 166.635C25.7832 167.045 22.8574 167.086 20.6016 167.1L20.4785 166.184L22.1602 166.17V160.168H20.793V159.279H27.7383ZM23.2129 166.156C23.8965 166.143 24.6006 166.115 25.3047 166.074V160.168H23.2129V166.156ZM41.59 157.953V162.971H43.6272V163.859H41.59V170.107H40.5236V157.953H41.59ZM39.3479 159.908V160.797H32.1154V159.908H35.2463V158.104H36.3127V159.908H39.3479ZM35.7932 161.809C37.5158 161.809 38.76 162.957 38.7736 164.598C38.76 166.238 37.5158 167.387 35.7932 167.387C34.0568 167.387 32.799 166.238 32.8127 164.598C32.799 162.957 34.0568 161.809 35.7932 161.809ZM35.7932 162.711C34.6584 162.711 33.8244 163.504 33.8381 164.598C33.8244 165.705 34.6584 166.484 35.7932 166.471C36.9143 166.484 37.7346 165.705 37.7483 164.598C37.7346 163.504 36.9143 162.711 35.7932 162.711ZM53.6235 159.184V160.4C53.6098 161.891 53.6098 163.559 53.1723 166.006L52.0785 165.883C52.5434 163.559 52.5434 161.85 52.5434 160.4V160.072H45.0512V159.184H53.6235ZM54.9496 167.496V168.385H43.8754V167.496H48.2231V163.148H49.2758V167.496H54.9496ZM68.7078 157.967V164.721H67.6414V157.967H68.7078ZM62.9793 159.607C62.9657 161.289 64.2782 162.807 66.0828 163.395L65.5633 164.242C64.1278 163.757 62.993 162.745 62.4461 161.426C61.8993 162.841 60.7508 163.948 59.3016 164.461L58.7547 163.613C60.5868 162.971 61.8856 161.371 61.8856 159.607V158.418H62.9793V159.607ZM68.7899 165.445V166.32H67.1082V169.068H68.9129V169.943H60.5047V169.068H62.3231V166.32H60.6141V165.445H68.7899ZM63.3758 169.068H66.0418V166.32H63.3758V169.068ZM81.4385 164.365V165.24H70.3643V164.365H81.4385ZM80.208 168.945V169.848H71.7998V166.307H72.8799V168.945H80.208ZM75.9014 158.391C78.5127 158.377 80.1944 159.279 80.1944 160.797C80.1944 162.314 78.5127 163.217 75.9014 163.217C73.2627 163.217 71.5948 162.314 71.5948 160.797C71.5948 159.279 73.2627 158.377 75.9014 158.391ZM75.9014 159.252C73.9463 159.252 72.6885 159.84 72.7022 160.797C72.6885 161.754 73.9463 162.342 75.9014 162.342C77.8428 162.342 79.1006 161.754 79.1006 160.797C79.1006 159.84 77.8428 159.252 75.9014 159.252ZM94.6772 157.953V161.125H96.4956V162.027H94.6772V165.213H93.5971V157.953H94.6772ZM90.767 165.445C93.2417 165.445 94.7729 166.307 94.7729 167.756C94.7729 169.232 93.2417 170.08 90.767 170.08C88.2788 170.08 86.7338 169.232 86.7338 167.756C86.7338 166.307 88.2788 165.445 90.767 165.445ZM90.767 166.334C88.935 166.32 87.7866 166.867 87.7866 167.756C87.7866 168.658 88.935 169.219 90.767 169.219C92.5854 169.219 93.7338 168.658 93.7338 167.756C93.7338 166.867 92.5854 166.32 90.767 166.334ZM91.1225 158.883V159.771H86.7749V163.34C89.2358 163.326 90.6577 163.251 92.2846 162.916L92.394 163.805C90.6987 164.146 89.2358 164.215 86.6655 164.215H85.7221V158.883H91.1225ZM107.968 165.213V166.074H105.043V170.107H103.976V166.074H100.832V170.107H99.7516V166.074H96.8395V165.213H107.968ZM106.615 158.432V161.549H99.2868V163.066H106.875V163.955H98.2067V160.715H105.521V159.32H98.1794V158.432H106.615ZM115.807 160.25C115.807 161.945 117.037 163.545 118.815 164.188L118.213 165.021C116.88 164.488 115.82 163.429 115.301 162.109C114.781 163.579 113.674 164.748 112.238 165.322L111.664 164.447C113.482 163.777 114.74 162.082 114.754 160.209V158.705H115.807V160.25ZM121.727 157.967V167.072H120.647V161.727H117.94V160.824H120.647V157.967H121.727ZM122 168.945V169.848H113.865V166.033H114.945V168.945H122ZM128.606 158.842V159.744H124.914V161.262H128.469V162.109H124.914V163.791C126.685 163.784 127.792 163.723 129.098 163.463L129.207 164.352C127.785 164.625 126.637 164.693 124.655 164.693H123.889V158.842H128.606ZM133.664 157.967V165.336H132.639V162.014H130.93V165.254H129.932V158.199H130.93V161.139H132.639V157.967H133.664ZM133.664 165.965V170.107H132.612V166.84H125.475V165.965H133.664Z" fill="black"/>
<path d="M138.714 165.766C138.725 163.551 139.323 161.711 140.401 160.152H141.292C140.495 161.312 139.757 163.68 139.757 165.766C139.757 167.852 140.495 170.23 141.292 171.391H140.401C139.323 169.82 138.725 167.98 138.714 165.766ZM145.7 165.027V166.938C146.702 166.896 147.727 166.809 148.688 166.668L148.759 167.348C146.38 167.781 143.813 167.793 141.938 167.793L141.809 167.031C142.683 167.025 143.714 167.02 144.798 166.984V165.027H145.7ZM148.149 160.902V161.664H145.7C145.724 163.012 146.843 164.107 148.384 164.547L147.95 165.273C146.696 164.898 145.718 164.096 145.255 163.035C144.798 164.154 143.825 164.986 142.571 165.367L142.126 164.664C143.667 164.213 144.751 163.07 144.774 161.664H142.384V160.902H144.798V159.613H145.7V160.902H148.149ZM150.294 159.531V169.973H149.38V159.531H150.294ZM160.62 159.531V169.949H159.741V164.488H158.206V169.41H157.362V159.766H158.206V163.727H159.741V159.531H160.62ZM156.003 160.809V161.57H153.015V166.586C154.45 166.58 155.446 166.527 156.601 166.293L156.683 167.066C155.429 167.324 154.362 167.371 152.769 167.371H152.101V160.809H156.003ZM164.445 167.266V166.398L168.265 160.516H169.566V166.34H170.75V167.266H169.566V169H168.558V167.266H164.445ZM165.582 166.34H168.558V161.852H168.453L165.582 166.27V166.34ZM180.256 159.531V169.949H179.353V164.5H177.912V169.434H177.033V159.812H177.912V163.738H179.353V159.531H180.256ZM175.849 160.891C175.838 163.539 174.912 166.047 171.912 167.711L171.373 167.066C173.793 165.719 174.795 163.809 174.947 161.652H171.771V160.891H175.849ZM183.926 165.766C183.914 167.98 183.316 169.82 182.238 171.391H181.348C182.144 170.23 182.883 167.852 182.883 165.766C182.883 163.68 182.144 161.312 181.348 160.152H182.238C183.316 161.711 183.914 163.551 183.926 165.766Z" fill="#83848C"/>
<rect x="20.5" y="190.5" width="15" height="15" rx="2.5" fill="white"/>
<rect x="20.5" y="190.5" width="15" height="15" rx="2.5" stroke="#83848C"/>
<path d="M56.5684 191.953V198.242H55.4883V195.084H52.7812V194.195H55.4883V191.953H56.5684ZM56.5684 198.857V201.756H49.7734V203.082H57.0195V203.943H48.7207V200.936H55.502V199.719H48.6934V198.857H56.5684ZM50.6348 193.498C50.6211 195.098 51.8789 196.547 53.6562 197.135L53.082 197.969C51.7354 197.49 50.6621 196.533 50.1289 195.303C49.6094 196.69 48.5088 197.75 47.0664 198.27L46.4785 197.408C48.3105 196.807 49.5684 195.275 49.582 193.498V192.35H50.6348V193.498ZM67.6858 191.953V195.125H69.5178V196.014H67.6858V199.432H66.6193V191.953H67.6858ZM63.8166 199.746C66.3049 199.746 67.8225 200.539 67.8225 201.92C67.8225 203.301 66.3049 204.08 63.8166 204.08C61.301 204.08 59.7697 203.301 59.7834 201.92C59.7697 200.539 61.301 199.746 63.8166 199.746ZM63.8166 200.594C61.9572 200.594 60.8498 201.086 60.8498 201.92C60.8498 202.754 61.9572 203.246 63.8166 203.246C65.635 203.246 66.7561 202.754 66.7561 201.92C66.7561 201.086 65.635 200.594 63.8166 200.594ZM64.3498 192.814V193.689H59.8244V195.248H64.1174V196.109H59.8244V197.723C62.1897 197.736 63.55 197.661 65.1428 197.395L65.2658 198.256C63.5842 198.557 62.1897 198.611 59.674 198.598H58.758V192.814H64.3498Z" fill="black"/>
<path d="M80.6641 193.234V194.934H83.2539V193.234H83.957V197.992H79.9609V193.234H80.6641ZM80.6641 197.359H83.2539V195.531H80.6641V197.359ZM88.1992 192.578V198.777H87.4961V195.941H85.9492V198.707H85.2461V192.777H85.9492V195.32H87.4961V192.578H88.1992ZM88.1992 199.445V202.914H87.4844V200.078H81.2852V199.445H88.1992ZM97.9397 192.578V197.945H97.2014V195.215H94.7873V194.594H97.2014V192.578H97.9397ZM97.9397 198.508V200.863H92.0451V202.152H98.3615V202.762H91.3303V200.277H97.2131V199.117H91.2951V198.508H97.9397ZM92.8186 193.949C92.8186 195.355 94.0022 196.609 95.467 197.102L95.0568 197.688C93.9143 197.266 92.9358 196.41 92.4904 195.309C92.051 196.551 91.0666 197.494 89.842 197.957L89.4318 197.359C90.9318 196.832 92.1037 195.52 92.1154 193.949V192.895H92.8186V193.949ZM107.434 192.578V195.344H109.028V195.965H107.434V198.965H106.696V192.578H107.434ZM104.164 199.246C106.274 199.246 107.539 199.902 107.539 201.062C107.539 202.223 106.274 202.879 104.164 202.879C102.043 202.879 100.754 202.223 100.766 201.062C100.754 199.902 102.043 199.246 104.164 199.246ZM104.164 199.844C102.512 199.844 101.493 200.312 101.493 201.062C101.493 201.824 102.512 202.293 104.164 202.293C105.782 202.293 106.813 201.824 106.813 201.062C106.813 200.312 105.782 199.844 104.164 199.844ZM100.661 197.57C102.77 197.582 103.93 197.535 105.336 197.289L105.418 197.898C103.977 198.156 102.805 198.203 100.661 198.191H99.8988V193.328H104.61V193.938H100.637V195.414H104.434V196.023H100.637V197.57H100.661ZM110.858 201.285L110.003 204.32H109.311L109.967 201.285H110.858ZM123.272 193.516V194.125H114.917V193.516H118.761V192.391H119.487V193.516H123.272ZM119.112 194.594C121.222 194.594 122.429 195.121 122.429 196.117C122.429 197.113 121.222 197.641 119.112 197.641C117.003 197.641 115.796 197.113 115.796 196.117C115.796 195.121 117.003 194.594 119.112 194.594ZM119.112 195.145C117.507 195.145 116.546 195.508 116.558 196.117C116.546 196.727 117.507 197.09 119.112 197.09C120.718 197.09 121.667 196.727 121.679 196.117C121.667 195.508 120.718 195.145 119.112 195.145ZM123.835 198.402V199.012H114.413V198.402H123.835ZM122.558 200.031V202.914H121.819V200.617H115.421V200.031H122.558ZM132.896 192.578V197.945H132.157V195.215H129.743V194.594H132.157V192.578H132.896ZM132.896 198.508V200.863H127.001V202.152H133.318V202.762H126.286V200.277H132.169V199.117H126.251V198.508H132.896ZM127.775 193.949C127.775 195.355 128.958 196.609 130.423 197.102L130.013 197.688C128.87 197.266 127.892 196.41 127.447 195.309C127.007 196.551 126.023 197.494 124.798 197.957L124.388 197.359C125.888 196.832 127.06 195.52 127.072 193.949V192.895H127.775V193.949ZM142.39 192.578V195.344H143.984V195.965H142.39V198.965H141.652V192.578H142.39ZM139.121 199.246C141.23 199.246 142.496 199.902 142.496 201.062C142.496 202.223 141.23 202.879 139.121 202.879C136.999 202.879 135.71 202.223 135.722 201.062C135.71 199.902 136.999 199.246 139.121 199.246ZM139.121 199.844C137.468 199.844 136.449 200.312 136.449 201.062C136.449 201.824 137.468 202.293 139.121 202.293C140.738 202.293 141.769 201.824 141.769 201.062C141.769 200.312 140.738 199.844 139.121 199.844ZM135.617 197.57C137.726 197.582 138.886 197.535 140.292 197.289L140.374 197.898C138.933 198.156 137.761 198.203 135.617 198.191H134.855V193.328H139.566V193.938H135.593V195.414H139.39V196.023H135.593V197.57H135.617Z" fill="#82838A"/>
<rect x="20" y="222" width="16" height="16" rx="3" fill="#005158"/>
<path d="M31.6778 227.305C31.8778 227.495 31.8858 227.811 31.6951 228.011L27.2505 232.678C27.2038 232.727 27.1476 232.766 27.0854 232.793C27.0231 232.819 26.9562 232.833 26.8885 232.833C26.8208 232.833 26.7538 232.819 26.6915 232.793C26.6293 232.766 26.5732 232.727 26.5265 232.678L24.3045 230.345C24.2572 230.298 24.2199 230.242 24.1947 230.18C24.1695 230.118 24.157 230.052 24.1577 229.985C24.1585 229.918 24.1727 229.852 24.1993 229.791C24.226 229.73 24.2646 229.675 24.3129 229.629C24.3613 229.583 24.4183 229.547 24.4807 229.523C24.5431 229.5 24.6096 229.489 24.6763 229.491C24.743 229.494 24.8085 229.51 24.869 229.538C24.9295 229.566 24.9837 229.606 25.0285 229.655L26.8885 231.609L30.9711 227.322C31.0626 227.226 31.1884 227.17 31.3209 227.167C31.4534 227.164 31.5818 227.213 31.6778 227.305Z" fill="white"/>
<path d="M49.4043 224.719C51.0039 224.719 52.1934 225.908 52.1934 227.59C52.1934 229.285 51.0039 230.434 49.4043 230.434C47.7773 230.434 46.6152 229.285 46.6289 227.59C46.6152 225.908 47.7773 224.719 49.4043 224.719ZM49.4043 225.648C48.3652 225.648 47.5859 226.469 47.5996 227.59C47.5859 228.711 48.3652 229.531 49.4043 229.531C50.4434 229.531 51.1953 228.711 51.209 227.59C51.1953 226.469 50.4434 225.648 49.4043 225.648ZM56.8145 223.967V231.199H55.7891V227.986H54.1758V231.117H53.1641V224.199H54.1758V227.098H55.7891V223.967H56.8145ZM56.8145 231.883V236.107H55.7617V232.744H48.625V231.883H56.8145ZM62.2443 225.922C62.2443 227.576 63.5022 229.094 65.2658 229.695L64.6779 230.543C63.3313 230.051 62.2717 229.046 61.7385 227.781C61.219 229.21 60.1389 230.338 58.717 230.885L58.1428 230.023C59.9611 229.34 61.1779 227.713 61.1916 225.84V224.582H62.2443V225.922ZM67.6858 223.953V227.125H69.5178V228.027H67.6858V231.35H66.6193V223.953H67.6858ZM63.7893 231.664C66.2912 231.664 67.7951 232.471 67.7951 233.865C67.7951 235.287 66.2912 236.08 63.7893 236.08C61.2873 236.08 59.7561 235.287 59.7561 233.865C59.7561 232.471 61.2873 231.664 63.7893 231.664ZM63.7893 232.525C61.9572 232.525 60.8225 233.031 60.8361 233.865C60.8225 234.727 61.9572 235.219 63.7893 235.232C65.635 235.219 66.7561 234.727 66.7561 233.865C66.7561 233.031 65.635 232.525 63.7893 232.525ZM76.6156 225.307V225.936C76.602 226.893 76.602 228.506 76.2602 230.762L75.1801 230.666C75.5082 228.629 75.5356 227.152 75.5356 226.182H70.436V225.307H76.6156ZM73.4301 228.779V232.471C74.7768 232.423 76.1576 232.334 77.4223 232.184L77.477 232.99C74.9203 233.387 72.0629 233.441 69.8891 233.428L69.7524 232.539C70.5522 232.532 71.4408 232.525 72.3774 232.498V228.779H73.4301ZM79.2543 223.953V229.039H81.2231V229.969H79.2543V236.107H78.1879V223.953H79.2543ZM91.0826 223.953V227.125H92.901V228.027H91.0826V231.213H90.0026V223.953H91.0826ZM87.1725 231.445C89.6471 231.445 91.1783 232.307 91.1783 233.756C91.1783 235.232 89.6471 236.08 87.1725 236.08C84.6842 236.08 83.1393 235.232 83.1393 233.756C83.1393 232.307 84.6842 231.445 87.1725 231.445ZM87.1725 232.334C85.3405 232.32 84.192 232.867 84.192 233.756C84.192 234.658 85.3405 235.219 87.1725 235.219C88.9908 235.219 90.1393 234.658 90.1393 233.756C90.1393 232.867 88.9908 232.32 87.1725 232.334ZM87.528 224.883V225.771H83.1803V229.34C85.6412 229.326 87.0631 229.251 88.6901 228.916L88.7994 229.805C87.1041 230.146 85.6412 230.215 83.0709 230.215H82.1276V224.883H87.528Z" fill="black"/>
<rect x="20.5" y="254.5" width="15" height="15" rx="2.5" fill="white"/>
<rect x="20.5" y="254.5" width="15" height="15" rx="2.5" stroke="#83848C"/>
<path d="M56.8828 255.953V268.107H55.8574V261.736H54.0664V267.479H53.082V256.227H54.0664V260.848H55.8574V255.953H56.8828ZM51.4961 257.443V258.332H48.0098V264.184C49.6846 264.177 50.8467 264.115 52.1934 263.842L52.2891 264.744C50.8262 265.045 49.582 265.1 47.7227 265.1H46.9434V257.443H51.4961ZM61.7385 259.699C61.7385 261.654 62.7365 263.65 64.3908 264.539L63.7756 265.346C62.5656 264.689 61.6906 263.432 61.2463 261.969C60.8088 263.527 59.9406 264.881 58.7307 265.619L58.0881 264.799C59.7424 263.842 60.7131 261.709 60.7268 259.699V259.098H58.4162V258.209H60.7268V256.404H61.7522V258.209H64.0217V259.098H61.7385V259.699ZM68.5744 255.953V268.107H67.549V255.953H68.5744ZM66.1135 256.254V267.479H65.1018V261.668H63.1877V260.752H65.1018V256.254H66.1135ZM79.391 255.953V259.125H81.2094V260.027H79.391V263.213H78.311V255.953H79.391ZM75.4809 263.445C77.9555 263.445 79.4867 264.307 79.4867 265.756C79.4867 267.232 77.9555 268.08 75.4809 268.08C72.9926 268.08 71.4477 267.232 71.4477 265.756C71.4477 264.307 72.9926 263.445 75.4809 263.445ZM75.4809 264.334C73.6488 264.32 72.5004 264.867 72.5004 265.756C72.5004 266.658 73.6488 267.219 75.4809 267.219C77.2992 267.219 78.4477 266.658 78.4477 265.756C78.4477 264.867 77.2992 264.32 75.4809 264.334ZM75.8363 256.883V257.771H71.4887V261.34C73.9496 261.326 75.3715 261.251 76.9985 260.916L77.1078 261.805C75.4125 262.146 73.9496 262.215 71.3793 262.215H70.436V256.883H75.8363Z" fill="black"/>
<path d="M94.8438 259.871C94.8438 261.547 96.1562 263.375 97.5859 264.066L97.1523 264.652C96.0039 264.072 94.9551 262.807 94.4922 261.371C94.0176 262.924 92.8926 264.307 91.7617 264.91L91.3047 264.324C92.7109 263.621 94.1172 261.652 94.1289 259.871V258.289H91.668V257.656H97.2578V258.289H94.8438V259.871ZM99.4141 256.578V260.832H101.195V261.465H99.4141V266.914H98.6758V256.578H99.4141ZM104.338 256.977C105.885 256.988 106.987 257.914 106.998 259.25C106.987 260.598 105.885 261.512 104.338 261.512C102.791 261.512 101.678 260.598 101.69 259.25C101.678 257.914 102.791 256.988 104.338 256.977ZM104.338 257.609C103.225 257.609 102.405 258.301 102.416 259.25C102.405 260.199 103.225 260.891 104.338 260.891C105.451 260.891 106.283 260.199 106.283 259.25C106.283 258.301 105.451 257.609 104.338 257.609ZM109.916 256.578V261.922H109.178V256.578H109.916ZM109.916 262.449V264.84H104.01V266.152H110.315V266.762H103.295V264.266H109.19V263.059H103.26V262.449H109.916ZM119.879 256.578V266.926H119.153V256.578H119.879ZM112.848 263.762C114.547 263.762 116.129 263.691 118.063 263.375L118.133 264.008C116.176 264.312 114.594 264.395 112.848 264.395H111.993V260.527H116.012V258.195H111.981V257.562H116.75V261.148H112.754V263.762H112.848ZM129.62 259.871V260.434H126.421V261.488H130.768V262.074H121.346V261.488H125.682V260.434H122.612V256.789H129.573V257.363H123.362V258.301H129.28V258.863H123.362V259.871H129.62ZM129.526 262.906V265.062H123.256V266.199H129.854V266.785H122.542V264.5H128.811V263.469H122.506V262.906H129.526ZM132.821 265.285L131.966 268.32H131.274L131.931 265.285H132.821ZM144.427 256.578V258.898H146.021V259.52H144.427V261.875H143.689V256.578H144.427ZM144.427 262.391V264.805H138.661V266.152H144.825V266.762H137.935V264.23H143.689V263H137.911V262.391H144.427ZM139.271 256.977C140.818 256.977 141.919 257.902 141.931 259.25C141.919 260.609 140.818 261.535 139.271 261.535C137.736 261.535 136.611 260.609 136.611 259.25C136.611 257.902 137.736 256.977 139.271 256.977ZM139.271 257.598C138.157 257.598 137.337 258.301 137.337 259.25C137.337 260.211 138.157 260.926 139.271 260.926C140.384 260.926 141.204 260.211 141.204 259.25C141.204 258.301 140.384 257.598 139.271 257.598ZM155.785 261.371V261.969H151.414V262.977H154.589V265.098H148.238V266.223H154.941V266.785H147.511V264.559H153.851V263.551H147.488V262.977H150.687V261.969H146.328V261.371H155.785ZM154.554 256.918V258.957H148.296V259.988H154.73V260.551H147.57V258.43H153.816V257.469H147.535V256.918H154.554ZM165.771 264.957V265.59H156.302V264.957H160.638V262.871H157.521V259.777H163.814V257.996H157.486V257.375H164.541V260.398H158.248V262.25H164.787V262.871H161.377V264.957H165.771ZM171.328 258.148C171.328 260 173.578 261.57 175.207 261.875L174.844 262.508C173.385 262.145 171.609 261.014 170.953 259.426C170.297 261.014 168.521 262.145 167.062 262.508L166.711 261.875C168.34 261.559 170.555 260.012 170.566 258.148V257.328H171.328V258.148ZM175.734 264.84V265.461H166.266V264.84H175.734ZM188.137 261.559V262.191H178.715V261.559H188.137ZM187.024 259.871V260.48H179.922V257.035H186.953V257.668H180.649V259.871H187.024ZM183.426 263.176C185.629 263.188 186.965 263.855 186.965 265.039C186.965 266.223 185.629 266.879 183.426 266.879C181.2 266.879 179.864 266.223 179.864 265.039C179.864 263.855 181.2 263.188 183.426 263.176ZM183.426 263.773C181.692 263.785 180.614 264.254 180.614 265.039C180.614 265.824 181.692 266.281 183.426 266.281C185.137 266.281 186.227 265.824 186.227 265.039C186.227 264.254 185.137 263.785 183.426 263.773Z" fill="#82838A"/>
<rect x="20.5" y="286.5" width="15" height="15" rx="2.5" fill="white"/>
<rect x="20.5" y="286.5" width="15" height="15" rx="2.5" stroke="#83848C"/>
<path d="M56.5273 287.967V296.854H55.4609V287.967H56.5273ZM56.9102 298.945V299.848H48.6797V295.951H49.7461V298.945H56.9102ZM49.9648 288.814C51.7832 288.814 53.1504 290.045 53.1504 291.795C53.1504 293.572 51.7832 294.789 49.9648 294.789C48.1465 294.789 46.7793 293.572 46.7793 291.795C46.7793 290.045 48.1465 288.814 49.9648 288.814ZM49.9648 289.758C48.7344 289.758 47.8184 290.605 47.832 291.795C47.8184 293.012 48.7344 293.846 49.9648 293.846C51.168 293.846 52.0977 293.012 52.0977 291.795C52.0977 290.605 51.168 289.758 49.9648 289.758ZM63.6799 295.637C66.2912 295.637 67.9455 296.457 67.9455 297.865C67.9455 299.26 66.2912 300.08 63.6799 300.08C61.0822 300.08 59.4279 299.26 59.4279 297.865C59.4279 296.457 61.0822 295.637 63.6799 295.637ZM63.6799 296.457C61.7385 296.471 60.4807 297.004 60.4943 297.865C60.4807 298.713 61.7385 299.232 63.6799 299.232C65.6213 299.232 66.8654 298.713 66.8791 297.865C66.8654 297.004 65.6213 296.471 63.6799 296.457ZM67.8498 288.582V289.607C67.8498 290.592 67.8498 291.576 67.508 292.834L66.4553 292.711C66.7834 291.453 66.7834 290.564 66.7834 289.607V289.457H59.51V288.582H67.8498ZM69.258 293.627V294.502H58.1975V293.627H62.7775V291.275H63.8303V293.627H69.258ZM79.3774 287.953V290.934H81.2094V291.822H79.3774V294.857H78.311V287.953H79.3774ZM76.0551 288.746C76.0414 291.809 73.8949 293.996 70.2992 294.98L69.8617 294.119C72.8559 293.312 74.6811 291.692 74.9067 289.635H70.4086V288.746H76.0551ZM79.3774 295.418V299.943H71.6801V295.418H79.3774ZM72.7465 296.307V299.068H78.311V296.307H72.7465ZM87.8971 289.156V297.059H82.278V289.156H87.8971ZM83.3307 290.018V296.184H86.8444V290.018H83.3307ZM91.5885 287.953V300.135H90.5084V287.953H91.5885ZM104.388 297.701V298.604H93.2586V297.701H96.3895V295.391H94.6532V291.645H101.927V289.744H94.6258V288.855H102.979V292.533H95.7196V294.502H103.266V295.391H101.366V297.701H104.388ZM97.4422 297.701H100.313V295.391H97.4422V297.701Z" fill="black"/>
<path d="M117.211 289.398C118.723 289.398 119.789 290.793 119.789 292.973C119.789 295.152 118.723 296.547 117.211 296.547C115.699 296.547 114.645 295.152 114.656 292.973C114.645 290.793 115.699 289.398 117.211 289.398ZM117.211 290.055C116.121 290.055 115.348 291.25 115.348 292.973C115.348 294.707 116.121 295.891 117.211 295.891C118.324 295.891 119.074 294.707 119.086 292.973C119.074 291.25 118.324 290.055 117.211 290.055ZM122.414 288.578V292.785H124.195V293.418H122.414V298.914H121.676V288.578H122.414ZM129.483 290.148C129.483 292 131.733 293.57 133.362 293.875L132.998 294.508C131.539 294.145 129.764 293.014 129.108 291.426C128.451 293.014 126.676 294.145 125.217 294.508L124.865 293.875C126.494 293.559 128.709 292.012 128.721 290.148V289.328H129.483V290.148ZM133.889 296.84V297.461H124.42V296.84H133.889ZM140.336 289.75V290.371H139.118V295.504C139.721 295.463 140.319 295.41 140.887 295.34L140.934 295.902C138.719 296.242 136.211 296.277 134.36 296.289L134.254 295.633L135.719 295.621V290.371H134.512V289.75H140.336ZM142.34 288.578V292.785H144.122V293.418H142.34V298.914H141.602V288.578H142.34ZM136.446 295.609C137.084 295.604 137.741 295.58 138.403 295.539V290.371H136.446V295.609ZM145.624 293.488C147.733 293.488 148.893 293.453 150.299 293.184L150.381 293.805C148.94 294.062 147.768 294.109 145.624 294.098H144.862V289.223H149.573V289.867H145.6V291.32H149.397V291.941H145.6V293.488H145.624ZM152.397 295.246V298.762H145.94V295.246H152.397ZM146.655 295.844V298.152H151.659V295.844H146.655ZM152.397 288.578V291.191H153.991V291.824H152.397V294.672H151.659V288.578H152.397ZM155.821 297.285L154.966 300.32H154.274L154.931 297.285H155.821ZM164.474 289.586C164.474 291.121 166.583 292.352 168.282 292.609L167.978 293.219C166.454 292.943 164.743 292.041 164.099 290.711C163.454 292.053 161.743 292.938 160.22 293.219L159.904 292.609C161.615 292.352 163.712 291.156 163.712 289.586V288.965H164.474V289.586ZM168.798 294.461V295.094H164.427V298.914H163.712V295.094H159.376V294.461H168.798ZM177.519 289.68V290.98C177.519 292.504 177.519 293.91 177.097 295.961L176.359 295.891C176.587 294.859 176.699 293.963 176.757 293.125L170.335 293.477L170.218 292.855L176.781 292.562C176.798 292.023 176.798 291.508 176.804 290.98V290.312H170.488V289.68H177.519ZM178.761 296.758V297.391H169.339V296.758H178.761ZM187.353 288.578V290.934H188.959V291.555H187.353V294.039H186.615V288.578H187.353ZM187.353 294.52V296.863H181.611V298.176H187.763V298.785H180.884V296.301H186.615V295.117H180.861V294.52H187.353ZM180.58 292.973C182.42 292.973 183.791 292.902 185.502 292.645L185.56 293.242C183.838 293.512 182.443 293.582 180.58 293.57H179.783V290.957H183.697V289.668H179.759V289.082H184.424V291.531H180.521V292.973H180.58ZM198.734 296.957V297.59H189.266V296.957H193.601V294.871H190.484V291.777H196.777V289.996H190.449V289.375H197.504V292.398H191.211V294.25H197.75V294.871H194.34V296.957H198.734ZM204.291 290.148C204.291 292 206.541 293.57 208.17 293.875L207.807 294.508C206.348 294.145 204.572 293.014 203.916 291.426C203.26 293.014 201.484 294.145 200.025 294.508L199.674 293.875C201.303 293.559 203.518 292.012 203.529 290.148V289.328H204.291V290.148ZM208.697 296.84V297.461H199.229V296.84H208.697Z" fill="#82838A"/>
</svg>
