<svg width="389" height="54" viewBox="0 0 389 54" fill="none" xmlns="http://www.w3.org/2000/svg">
<mask id="path-1-inside-1_649_926" fill="white">
<path d="M-1 0H389V54H-1V0Z"/>
</mask>
<path d="M-1 0H389V54H-1V0Z" fill="white"/>
<path d="M-1 0V1H389V0V-1H-1V0Z" fill="#E3E4E8" mask="url(#path-1-inside-1_649_926)"/>
<path d="M20.7144 18.4999L31.0001 8.21423L41.2858 18.4999" stroke="black" stroke-linecap="round" stroke-linejoin="round"/>
<path d="M23 16.2142V25.3571C23 25.6602 23.1204 25.9509 23.3347 26.1652C23.5491 26.3795 23.8398 26.4999 24.1429 26.4999H27.5714C27.8745 26.4999 28.1652 26.3795 28.3796 26.1652C28.5939 25.9509 28.7143 25.6602 28.7143 25.3571V20.7857C28.7143 20.4826 28.8347 20.1919 29.049 19.9775C29.2633 19.7632 29.554 19.6428 29.8571 19.6428H32.1429C32.446 19.6428 32.7367 19.7632 32.951 19.9775C33.1653 20.1919 33.2857 20.4826 33.2857 20.7857V25.3571C33.2857 25.6602 33.4061 25.9509 33.6205 26.1652C33.8348 26.3795 34.1255 26.4999 34.4286 26.4999H37.8571C38.1602 26.4999 38.4509 26.3795 38.6653 26.1652C38.8796 25.9509 39 25.6602 39 25.3571V16.2142" stroke="black" stroke-linecap="round" stroke-linejoin="round"/>
<path d="M34.271 38.5127V41.2412H27.6968V38.5127H34.271ZM28.5347 39.168V40.5859H33.4438V39.168H28.5347ZM34.8296 32.626V33.2812H27.0845V32.626H30.5649V31.6807H31.4028V32.626H34.8296ZM30.9839 33.668C32.9604 33.6787 34.0776 34.1299 34.0776 35.0215C34.0776 35.8594 33.1162 36.3052 31.4028 36.3643V37.1055H35.3345V37.7822H26.6333V37.1055H30.5649V36.3643C28.8462 36.3052 27.8794 35.8594 27.8794 35.0215C27.8794 34.1299 29.0073 33.6787 30.9839 33.668ZM30.9839 34.2588C29.5767 34.2695 28.771 34.5273 28.7817 35.0215C28.771 35.5049 29.5767 35.7842 30.9839 35.7842C32.3804 35.7842 33.186 35.5049 33.186 35.0215C33.186 34.5273 32.3804 34.2695 30.9839 34.2588Z" fill="black"/>
<path d="M100.25 9.5H116.25C116.515 9.5 116.77 9.60536 116.957 9.79289C117.145 9.98043 117.25 10.2348 117.25 10.5V12.086C117.25 12.3512 117.145 12.6055 116.957 12.793L110.543 19.207C110.355 19.3945 110.25 19.6488 110.25 19.914V26.219C110.25 26.371 110.215 26.521 110.149 26.6576C110.082 26.7942 109.985 26.9138 109.865 27.0073C109.745 27.1008 109.606 27.1658 109.457 27.1973C109.308 27.2288 109.154 27.2259 109.007 27.189L107.007 26.689C106.791 26.6348 106.599 26.51 106.462 26.3342C106.325 26.1585 106.25 25.9419 106.25 25.719V19.914C106.25 19.6488 106.145 19.3945 105.957 19.207L99.543 12.793C99.3555 12.6055 99.2501 12.3512 99.25 12.086V10.5C99.25 10.2348 99.3554 9.98043 99.5429 9.79289C99.7304 9.60536 99.9848 9.5 100.25 9.5Z" fill="#005258" stroke="#005258" stroke-linecap="round" stroke-linejoin="round"/>
<path d="M107.118 31.0312V36.4453H106.192V31.0312H107.118ZM107.118 36.9492V39.4336H101.235V40.582H107.517V41.332H100.333V38.7422H106.204V37.6875H100.298V36.9492H107.118ZM104.61 31.7461V32.4844H103.556V35.1445C104.095 35.1152 104.628 35.0625 105.126 35.0039L105.173 35.6836C103.087 35.9883 100.638 36.0703 98.7978 36.0703L98.6806 35.3086L100.017 35.2969V32.4844H98.9735V31.7461H104.61ZM100.907 35.2734C101.481 35.2617 102.073 35.2441 102.665 35.2031V32.4844H100.907V35.2734ZM117.105 31.0312V41.4727H116.191V35.7305H113.987V34.9688H116.191V31.0312H117.105ZM113.812 31.9922V32.7539H109.874V34.9219H113.355V35.6719H109.874V38.1914C111.79 38.1914 113.009 38.127 114.444 37.875L114.55 38.6367C113.038 38.8828 111.761 38.9531 109.745 38.9531H108.948V31.9922H113.812Z" fill="#005258"/>
<path d="M202.812 18.5C202.812 18.6492 202.753 18.7923 202.648 18.8977C202.542 19.0032 202.399 19.0625 202.25 19.0625H185.75C185.601 19.0625 185.458 19.0032 185.352 18.8977C185.247 18.7923 185.188 18.6492 185.188 18.5C185.188 18.3508 185.247 18.2077 185.352 18.1023C185.458 17.9968 185.601 17.9375 185.75 17.9375H202.25C202.399 17.9375 202.542 17.9968 202.648 18.1023C202.753 18.2077 202.812 18.3508 202.812 18.5ZM185.75 13.0625H202.25C202.399 13.0625 202.542 13.0032 202.648 12.8977C202.753 12.7923 202.812 12.6492 202.812 12.5C202.812 12.3508 202.753 12.2077 202.648 12.1023C202.542 11.9968 202.399 11.9375 202.25 11.9375H185.75C185.601 11.9375 185.458 11.9968 185.352 12.1023C185.247 12.2077 185.188 12.3508 185.188 12.5C185.188 12.6492 185.247 12.7923 185.352 12.8977C185.458 13.0032 185.601 13.0625 185.75 13.0625ZM202.25 23.9375H185.75C185.601 23.9375 185.458 23.9968 185.352 24.1023C185.247 24.2077 185.188 24.3508 185.188 24.5C185.188 24.6492 185.247 24.7923 185.352 24.8977C185.458 25.0032 185.601 25.0625 185.75 25.0625H202.25C202.399 25.0625 202.542 25.0032 202.648 24.8977C202.753 24.7923 202.812 24.6492 202.812 24.5C202.812 24.3508 202.753 24.2077 202.648 24.1023C202.542 23.9968 202.399 23.9375 202.25 23.9375Z" fill="black"/>
<path d="M179.324 32.1211C179.312 35.1328 178.293 37.8867 174.543 39.7266L174.027 39.0234C175.99 38.0742 177.168 36.8672 177.801 35.4609L174.227 35.8008L174.074 34.9922L178.082 34.7227C178.264 34.1367 178.369 33.5215 178.41 32.8828H174.602V32.1211H179.324ZM181.984 31.0312V35.2734H183.672V36.0469H181.984V41.4492H181.07V31.0312H181.984ZM188.174 32.3086V33.0469H185.174V35.1094H187.694V35.8477H185.174V38.1914C186.668 38.1738 187.582 38.1211 188.713 37.9102L188.795 38.6602C187.588 38.9062 186.604 38.9297 184.951 38.9414H184.295V32.3086H188.174ZM192.803 31.0312V41.4492H191.912V31.0312H192.803ZM190.67 31.2891V40.9102H189.791V35.7539H188.256V34.9922H189.791V31.2891H190.67ZM202.204 32.0859V33.1289C202.192 34.4062 202.192 35.8359 201.817 37.9336L200.879 37.8281C201.278 35.8359 201.278 34.3711 201.278 33.1289V32.8477H194.856V32.0859H202.204ZM203.34 39.2109V39.9727H193.848V39.2109H197.575V35.4844H198.477V39.2109H203.34ZM212.413 31.0312V41.4727H211.499V31.0312H212.413ZM209.249 32.0039V35.707H205.358V38.168C207.087 38.168 208.628 38.0918 210.491 37.793L210.585 38.5664C208.663 38.8711 207.081 38.9414 205.288 38.9414H204.421V34.957H208.323V32.7656H204.397V32.0039H209.249Z" fill="black"/>
<path d="M278.75 23C281.788 23 284.25 20.5376 284.25 17.5C284.25 14.4624 281.788 12 278.75 12C275.712 12 273.25 14.4624 273.25 17.5C273.25 20.5376 275.712 23 278.75 23Z" stroke="black"/>
<path d="M282.75 21.5L286.75 25.5" stroke="black" stroke-linecap="round" stroke-linejoin="round"/>
<path d="M275.384 31.7109C275.372 34.3242 273.509 36.1992 270.509 37.0547L270.122 36.3281C272.612 35.625 274.2 34.2422 274.399 32.4727H270.661V31.7109H275.384ZM278.642 31.043V36.9844H277.716V34.5H275.407V33.7266H277.716V31.043H278.642ZM278.642 37.4297V41.3086H271.88V37.4297H278.642ZM272.77 38.168V40.5586H277.727V38.168H272.77ZM283.073 33.0703C283.073 34.2539 283.87 35.4492 285.206 35.9766L284.714 36.6914C283.73 36.2812 283.009 35.5195 282.64 34.5938C282.253 35.6074 281.503 36.4922 280.484 36.9492L279.98 36.2344C281.351 35.625 282.194 34.2539 282.194 33.0703V31.6758H283.073V33.0703ZM288.816 31.043V37.3359H287.937V34.5352H286.554V37.2773H285.687V31.2305H286.554V33.7617H287.937V31.043H288.816ZM288.816 37.9102V41.4492H287.913V38.6719H281.796V37.9102H288.816Z" fill="black"/>
<path d="M357 19.142C359.456 19.142 361.446 17.1515 361.446 14.696C361.446 12.2405 359.456 10.25 357 10.25C354.545 10.25 352.554 12.2405 352.554 14.696C352.554 17.1515 354.545 19.142 357 19.142Z" stroke="black" stroke-linecap="round" stroke-linejoin="round"/>
<path d="M364.608 26.75C364.608 24.7322 363.807 22.7971 362.38 21.3703C360.953 19.9435 359.018 19.142 357 19.142C354.982 19.142 353.047 19.9435 351.62 21.3703C350.194 22.7971 349.392 24.7322 349.392 26.75" stroke="black" stroke-linecap="round" stroke-linejoin="round"/>
<path d="M352.493 32.0859V38.8008H347.688V32.0859H352.493ZM348.579 32.8242V38.0508H351.579V32.8242H348.579ZM355.317 31.0312V35.1914H357.063V35.9883H355.317V41.4492H354.403V31.0312H355.317ZM365.808 31.0312V41.4727H364.882V31.0312H365.808ZM360.265 31.8398C361.812 31.8516 362.925 33.2578 362.925 35.4727C362.925 37.6875 361.812 39.0938 360.265 39.0938C358.706 39.0938 357.605 37.6875 357.605 35.4727C357.605 33.2578 358.706 31.8516 360.265 31.8398ZM360.265 32.6602C359.222 32.6719 358.495 33.7734 358.495 35.4727C358.495 37.1719 359.222 38.2734 360.265 38.2734C361.308 38.2734 362.034 37.1719 362.034 35.4727C362.034 33.7734 361.308 32.6719 360.265 32.6602Z" fill="black"/>
</svg>
