<svg width="109" height="26" viewBox="0 0 109 26" fill="none" xmlns="http://www.w3.org/2000/svg">
<path d="M6.12491 15.5463V26C8.51068 26 8.9264 23.677 8.83603 22.5155V13.9382C8.83603 12.866 9.19752 11.8832 9.37826 11.5258C10.0289 8.95259 12.6316 9.11341 15.3427 9.11341C18.0538 9.11341 19.4997 7.14778 19.4094 6.16496H15.3427C9.92048 5.95053 7.48048 8.39864 6.93826 9.64949C4.33559 9.22063 3.41385 7.23701 2.32936 5.89692C1.8002 5.24304 0.703008 5.62897 0.160619 6.16502C-0.38177 6.70108 0.43179 8.57724 2.87165 10.4535C5.31151 12.3298 6.12499 14.4741 6.12491 15.5463Z" fill="#005158"/>
<path d="M8.83603 17.9588V19.567C8.83603 18.2804 11.7279 18.3162 13.1738 18.4949C16.4271 18.8969 18.2346 15.8145 18.8671 13.9382H12.3605C9.54092 14.1526 8.83603 16.7079 8.83603 17.9588Z" fill="#70C3B4"/>
<path d="M10.7338 2.68041C10.7338 4.16076 9.51999 5.36082 8.02269 5.36082C6.52538 5.36082 5.31157 4.16076 5.31157 2.68041C5.31157 1.20006 6.52538 0 8.02269 0C9.51999 0 10.7338 1.20006 10.7338 2.68041Z" fill="#005158"/>
<path d="M28.1355 14.2447V16.2777C28.1355 17.5777 28.1494 18.0755 28.2465 18.684H25.2651C25.3622 18.0755 25.3899 17.5223 25.3899 16.3191V9.15532C25.3899 8.24255 25.3622 7.78617 25.279 7.13617C25.8475 7.16383 26.2358 7.17766 27.3035 7.17766H31.311C32.5313 7.17766 32.9889 7.16383 33.6406 7.08085V9.70851C33.0305 9.63936 32.4897 9.6117 31.3249 9.6117H28.1355V11.8798H30.7425C31.8241 11.8798 32.351 11.8521 32.9611 11.783V14.3415C32.351 14.2723 31.7963 14.2447 30.7425 14.2447H28.1355Z" fill="#005158"/>
<path d="M35.9213 7.17766H38.972C38.8888 7.74468 38.8611 8.21489 38.8611 9.22447V16.6372C38.8611 17.5915 38.8888 18.1032 38.972 18.684H35.9213C36.0045 18.1447 36.0323 17.5638 36.0323 16.6372V9.22447C36.0323 8.18723 36.0045 7.78617 35.9213 7.17766Z" fill="#005158"/>
<path d="M47.7184 9.62553V16.5957C47.7184 17.4255 47.7462 18.034 47.8294 18.684H44.7648C44.848 18.034 44.8758 17.467 44.8758 16.5957V9.62553H43.2395C42.3659 9.62553 42.1301 9.63936 41.1456 9.72234V7.08085C41.6032 7.13617 42.3659 7.17766 43.2118 7.17766H49.2854C50.256 7.17766 50.8107 7.15 51.4486 7.08085V9.72234C50.8246 9.65319 50.2838 9.62553 49.2854 9.62553H47.7184Z" fill="#005158"/>
<path d="M59.5528 9.62553V16.5957C59.5528 17.4255 59.5805 18.034 59.6637 18.684H56.5992C56.6824 18.034 56.7101 17.467 56.7101 16.5957V9.62553H55.0738C54.2002 9.62553 53.9645 9.63936 52.98 9.72234V7.08085C53.4376 7.13617 54.2002 7.17766 55.0461 7.17766H61.1197C62.0904 7.17766 62.6451 7.15 63.2829 7.08085V9.72234C62.6589 9.65319 62.1181 9.62553 61.1197 9.62553H59.5528Z" fill="#005158"/>
<path d="M75.4629 18.684H72.2181C72.1071 18.0202 72.0239 17.6606 71.8853 17.1904L71.5108 16.0149H67.5588L67.1844 17.1904C67.0042 17.7436 66.9071 18.1723 66.8378 18.684H63.593C63.801 18.2692 63.9258 17.9372 64.2586 16.9968L67.2538 8.67128C67.5034 7.99362 67.6282 7.57872 67.6975 7.17766H71.3167C71.4138 7.57872 71.5109 7.9383 71.7882 8.67128L74.7973 16.9968C75.0607 17.7298 75.2826 18.2968 75.4629 18.684ZM70.8314 13.6915L69.514 9.54255L68.2244 13.6915H70.8314Z" fill="#005158"/>
<path d="M83.3546 18.684H79.5829C78.529 18.684 78.1269 18.6979 77.5306 18.7255C77.6138 18.1308 77.6416 17.6606 77.6416 16.6926V9.12766C77.6416 8.39468 77.6138 7.8 77.5306 7.13617C78.2378 7.17766 78.432 7.17766 79.569 7.17766H83.2021C85.4485 7.17766 86.7658 8.25638 86.7658 10.0819C86.7658 10.9255 86.4885 11.5894 85.9616 12.0596C85.6565 12.3223 85.4069 12.4606 84.8384 12.6681C85.5178 12.8202 85.8784 12.9862 86.2805 13.3319C86.8768 13.8574 87.1818 14.6043 87.1818 15.517C87.1818 17.5085 85.7674 18.684 83.3546 18.684ZM80.3594 11.617H82.8C83.5349 11.617 83.9925 11.1883 83.9925 10.5106C83.9925 9.83298 83.5626 9.44574 82.7722 9.44574H80.3594V11.617ZM80.3594 13.8298V16.4021H82.9109C83.7845 16.4021 84.3114 15.9181 84.3114 15.1021C84.3114 14.3 83.7845 13.8298 82.897 13.8298H80.3594Z" fill="#005158"/>
<path d="M95.9577 18.684H91.7422C90.7854 18.684 90.2169 18.6979 89.69 18.7255C89.7732 18.2415 89.8009 17.633 89.8009 16.7064V9.40425C89.8009 8.43617 89.7732 7.84149 89.69 7.17766H92.7129C92.6158 7.89681 92.602 8.28404 92.602 9.36277V16.2223H95.9577C97.1364 16.2223 97.6079 16.2085 98.2596 16.1255V18.7809C97.7465 18.7117 97.0671 18.684 95.9577 18.684Z" fill="#005158"/>
<path d="M109 16.1947V18.7809C108.404 18.7117 107.905 18.684 106.712 18.684H102.344C101.29 18.684 100.902 18.6979 100.306 18.7255C100.389 18.1723 100.417 17.6606 100.417 16.7064V9.15532C100.417 8.29787 100.389 7.81383 100.306 7.13617C100.874 7.16383 101.262 7.17766 102.344 7.17766H106.767C107.71 7.17766 108.182 7.15 108.834 7.08085V9.66702C108.196 9.59787 107.697 9.57021 106.767 9.57021H103.162V11.6032H106.157C107.073 11.6032 107.405 11.5894 108.237 11.5064V14.0649C107.586 13.9957 107.114 13.9681 106.157 13.9681H103.162V16.2915H106.74C107.794 16.2915 108.404 16.2638 109 16.1947Z" fill="#005158"/>
</svg>
