<svg width="89" height="34" viewBox="0 0 89 34" fill="none" xmlns="http://www.w3.org/2000/svg">
<g>
<rect x="4.5" y="3.5" width="80" height="25" rx="2.5" stroke="#E3E4E8" shape-rendering="crispEdges"/>
<path d="M29.8972 21.6969C29.7 21.4949 29.6014 21.2467 29.6014 20.9525C29.6014 20.6583 29.7 20.4099 29.8972 20.2074C30.0948 20.0058 30.3378 19.905 30.626 19.905C30.9143 19.905 31.1571 20.0058 31.3543 20.2074C31.5515 20.409 31.6503 20.6573 31.6507 20.9525C31.6512 21.2477 31.5524 21.4958 31.3543 21.6969C31.1562 21.898 30.9134 21.9991 30.626 22C30.3387 22.0009 30.0957 21.8999 29.8972 21.6969ZM36.3083 21.6969C36.1107 21.4949 36.0118 21.2467 36.0118 20.9525C36.0118 20.6583 36.1107 20.4099 36.3083 20.2074C36.506 20.0058 36.7487 19.905 37.0365 19.905C37.3243 19.905 37.5673 20.0058 37.7654 20.2074C37.9626 20.4094 38.0612 20.6578 38.0612 20.9525C38.0612 21.2467 37.9626 21.4949 37.7654 21.6969C37.5678 21.899 37.3248 22 37.0365 22C36.7482 22 36.5055 21.899 36.3083 21.6969ZM29.6512 11.095L31.4745 15.0168H36.0071C36.0858 15.0168 36.1557 14.9965 36.2168 14.956C36.2783 14.9155 36.3309 14.8596 36.3746 14.7884L38.1616 11.4714C38.214 11.3727 38.2183 11.2854 38.1746 11.2095C38.1304 11.1331 38.056 11.095 37.9512 11.095H29.6512ZM29.3172 10.3966H38.2115C38.508 10.3966 38.7311 10.5205 38.881 10.7682C39.0313 11.0154 39.0392 11.2703 38.9049 11.5328L36.9525 15.1697C36.8537 15.3396 36.7252 15.473 36.5672 15.5698C36.4092 15.6667 36.2354 15.7151 36.046 15.7151H31.1671L30.3371 17.2723C30.267 17.3799 30.2647 17.4963 30.3303 17.6215C30.3958 17.7467 30.4944 17.8096 30.626 17.8101H37.7197C37.8171 17.8101 37.8984 17.8433 37.9635 17.9099C38.0287 17.9765 38.0612 18.0596 38.0612 18.1592C38.0612 18.2588 38.0287 18.3417 37.9635 18.4078C37.8984 18.4739 37.8171 18.5074 37.7197 18.5084H30.626C30.2276 18.5084 29.9302 18.3366 29.7339 17.993C29.5376 17.6494 29.5328 17.3045 29.7195 16.9581L30.747 15.0866L28.2351 9.69832H27.3416C27.2446 9.69832 27.1633 9.66504 27.0977 9.59846C27.0321 9.53189 26.9995 9.44879 27 9.34916C27.0005 9.24953 27.033 9.16643 27.0977 9.09986C27.1624 9.03329 27.2437 9 27.3416 9H28.3205C28.428 9 28.5257 9.02817 28.6136 9.0845C28.701 9.14083 28.7689 9.21951 28.8171 9.32053L29.3172 10.3966Z" fill="black"/>
<path d="M54.8993 10.5312V13.0859H56.4696V13.8594H54.8993V16.4492H53.9853V10.5312H54.8993ZM51.8642 11.2461V11.9961H48.161V15.0664C50.2528 15.0781 51.4423 15.002 52.8368 14.7266L52.954 15.4766C51.4892 15.7695 50.247 15.8281 48.0556 15.8281H47.247V11.2461H51.8642ZM54.8993 16.9883V20.8086H48.3251V16.9883H54.8993ZM49.2274 17.7383V20.0586H53.9853V17.7383H49.2274ZM65.3312 10.5312V20.9492H64.4054V10.5312H65.3312ZM62.2491 11.668C62.2374 14.668 60.8429 17.3164 57.3507 18.9922L56.8468 18.2422C59.6651 16.9062 61.1007 14.9082 61.3116 12.418H57.3273V11.668H62.2491Z" fill="black"/>
</g>
<defs>
<filter id="filter0_d_905_2817" x="0" y="0" width="89" height="34" filterUnits="userSpaceOnUse" color-interpolation-filters="sRGB">
<feFlood flood-opacity="0" result="BackgroundImageFix"/>
<feColorMatrix in="SourceAlpha" type="matrix" values="0 0 0 0 0 0 0 0 0 0 0 0 0 0 0 0 0 0 127 0" result="hardAlpha"/>
<feOffset dy="1"/>
<feGaussianBlur stdDeviation="0.7"/>
<feComposite in2="hardAlpha" operator="out"/>
<feColorMatrix type="matrix" values="0 0 0 0 0 0 0 0 0 0.321569 0 0 0 0 0.345098 0 0 0 0.10 0"/>
<feBlend mode="normal" in2="BackgroundImageFix" result="effect1_dropShadow_905_2817"/>
<feBlend mode="normal" in="SourceGraphic" in2="effect1_dropShadow_905_2817" result="shape"/>
</filter>
</defs>
</svg>
