<svg width="81" height="26" viewBox="0 0 81 26" fill="none" xmlns="http://www.w3.org/2000/svg">
<rect x="0.5" y="0.5" width="80" height="25" rx="2.5" stroke="#E3E4E8"/>
<path d="M25.8972 18.6969C25.7 18.4949 25.6014 18.2467 25.6014 17.9525C25.6014 17.6583 25.7 17.4099 25.8972 17.2074C26.0948 17.0058 26.3378 16.905 26.626 16.905C26.9143 16.905 27.1571 17.0058 27.3543 17.2074C27.5515 17.409 27.6503 17.6573 27.6507 17.9525C27.6512 18.2477 27.5524 18.4958 27.3543 18.6969C27.1562 18.898 26.9134 18.9991 26.626 19C26.3387 19.0009 26.0957 18.8999 25.8972 18.6969ZM32.3083 18.6969C32.1107 18.4949 32.0118 18.2467 32.0118 17.9525C32.0118 17.6583 32.1107 17.4099 32.3083 17.2074C32.506 17.0058 32.7487 16.905 33.0365 16.905C33.3243 16.905 33.5673 17.0058 33.7654 17.2074C33.9626 17.4094 34.0612 17.6578 34.0612 17.9525C34.0612 18.2467 33.9626 18.4949 33.7654 18.6969C33.5678 18.899 33.3248 19 33.0365 19C32.7482 19 32.5055 18.899 32.3083 18.6969ZM25.6512 8.09497L27.4745 12.0168H32.0071C32.0858 12.0168 32.1557 11.9965 32.2168 11.956C32.2783 11.9155 32.3309 11.8596 32.3746 11.7884L34.1616 8.47137C34.214 8.37267 34.2183 8.28538 34.1746 8.2095C34.1304 8.13315 34.056 8.09497 33.9512 8.09497H25.6512ZM25.3172 7.39665H34.2115C34.508 7.39665 34.7311 7.52048 34.881 7.76816C35.0313 8.01536 35.0392 8.27025 34.9049 8.53282L32.9525 12.1697C32.8537 12.3396 32.7252 12.473 32.5672 12.5698C32.4092 12.6667 32.2354 12.7151 32.046 12.7151H27.1671L26.3371 14.2723C26.267 14.3799 26.2647 14.4963 26.3303 14.6215C26.3958 14.7467 26.4944 14.8096 26.626 14.8101H33.7197C33.8171 14.8101 33.8984 14.8433 33.9635 14.9099C34.0287 14.9765 34.0612 15.0596 34.0612 15.1592C34.0612 15.2588 34.0287 15.3417 33.9635 15.4078C33.8984 15.4739 33.8171 15.5074 33.7197 15.5084H26.626C26.2276 15.5084 25.9302 15.3366 25.7339 14.993C25.5376 14.6494 25.5328 14.3045 25.7195 13.9581L26.747 12.0866L24.2351 6.69832H23.3416C23.2446 6.69832 23.1633 6.66504 23.0977 6.59846C23.0321 6.53189 22.9995 6.44879 23 6.34916C23.0005 6.24953 23.033 6.16643 23.0977 6.09986C23.1624 6.03329 23.2437 6 23.3416 6H24.3205C24.428 6 24.5257 6.02817 24.6136 6.0845C24.701 6.14083 24.7689 6.21951 24.8171 6.32053L25.3172 7.39665Z" fill="black"/>
<path d="M50.8993 7.53125V10.0859H52.4696V10.8594H50.8993V13.4492H49.9853V7.53125H50.8993ZM47.8642 8.24609V8.99609H44.161V12.0664C46.2528 12.0781 47.4423 12.002 48.8368 11.7266L48.954 12.4766C47.4892 12.7695 46.247 12.8281 44.0556 12.8281H43.247V8.24609H47.8642ZM50.8993 13.9883V17.8086H44.3251V13.9883H50.8993ZM45.2274 14.7383V17.0586H49.9853V14.7383H45.2274ZM61.3312 7.53125V17.9492H60.4054V7.53125H61.3312ZM58.2491 8.66797C58.2374 11.668 56.8429 14.3164 53.3507 15.9922L52.8468 15.2422C55.6651 13.9062 57.1007 11.9082 57.3116 9.41797H53.3273V8.66797H58.2491Z" fill="black"/>
</svg>
