<svg width="390" height="62" viewBox="0 0 390 62" fill="none" xmlns="http://www.w3.org/2000/svg">
<rect width="390" height="62" fill="white" fill-opacity="0.2"/>
<rect x="20" y="10" width="350" height="42" rx="8" fill="#005158"/>
<g filter="url(#filter1_d_940_2706)">
<path d="M166.096 24.9121V37.1895H164.797V24.9121H166.096ZM157.934 25.9375V29.082H161.229V25.9375H162.514V34.25H156.635V25.9375H157.934ZM157.934 33.1836H161.229V30.1074H157.934V33.1836ZM177.596 26.0879V27.4004C177.582 28.9453 177.582 30.5586 177.145 32.8965L175.873 32.7598C176.297 30.5449 176.297 28.9043 176.297 27.4004V27.1406H168.791V26.0879H177.596ZM178.813 34.4277V35.5078H167.643V34.4277H170.281V30.4629H171.58V34.4277H173.344V30.4629H174.615V34.4277H178.813ZM188.877 24.9121V29.875H190.846V30.9551H188.877V37.1621H187.592V24.9121H188.877ZM186.526 26.8262V27.8926H179.266V26.8262H182.288V25.0762H183.586V26.8262H186.526ZM182.944 28.7949C184.694 28.7949 185.979 29.9707 185.993 31.6387C185.979 33.3203 184.694 34.4824 182.944 34.4961C181.18 34.4824 179.895 33.3203 179.895 31.6387C179.895 29.9707 181.18 28.7949 182.944 28.7949ZM182.944 29.8613C181.905 29.8613 181.125 30.5859 181.139 31.6387C181.125 32.7051 181.905 33.416 182.944 33.4023C183.983 33.416 184.748 32.7051 184.748 31.6387C184.748 30.5859 183.983 29.8613 182.944 29.8613ZM201.212 24.9121V37.1621H199.899V24.9121H201.212ZM197.561 26.2246C197.561 29.8066 196.03 32.9238 191.833 34.9336L191.149 33.8809C194.41 32.3291 195.996 30.1211 196.249 27.2637H191.737V26.2246H197.561ZM206.466 32.2266C206.48 29.6562 207.204 27.5098 208.489 25.6777H209.829C208.886 27.0312 207.983 29.793 207.983 32.2266C207.983 34.6738 208.886 37.4219 209.829 38.7891H208.489C207.204 36.957 206.48 34.8105 206.466 32.2266ZM210.747 36V34.9062L214.179 31.4473C215.259 30.3125 215.806 29.6836 215.806 28.8223C215.806 27.8516 215.013 27.2227 213.974 27.2227C212.88 27.2227 212.169 27.9199 212.169 28.9727H210.747C210.734 27.168 212.115 25.9648 214.001 25.9648C215.915 25.9648 217.228 27.168 217.241 28.7812C217.228 29.8887 216.708 30.7637 214.849 32.5957L212.839 34.6328V34.7148H217.406V36H210.747ZM228.728 24.9121V37.1621H227.484V30.8047H225.966V36.5742H224.749V25.2402H225.966V29.752H227.484V24.9121H228.728ZM223.533 26.4707C223.519 29.6973 222.453 32.582 218.953 34.5645L218.201 33.6621C220.921 32.124 222.07 30.0391 222.275 27.5371H218.72V26.4707H223.533ZM233.297 32.2266C233.283 34.8105 232.558 36.957 231.273 38.7891H229.933C230.877 37.4219 231.779 34.6738 231.779 32.2266C231.779 29.793 230.877 27.0312 229.933 25.6777H231.273C232.558 27.5098 233.283 29.6562 233.297 32.2266Z" fill="white"/>
</g>
<defs>
<filter id="filter1_d_940_2706" x="152.635" y="24.9121" width="84.6619" height="21.877" filterUnits="userSpaceOnUse" color-interpolation-filters="sRGB">
<feFlood flood-opacity="0" result="BackgroundImageFix"/>
<feColorMatrix in="SourceAlpha" type="matrix" values="0 0 0 0 0 0 0 0 0 0 0 0 0 0 0 0 0 0 127 0" result="hardAlpha"/>
<feOffset dy="4"/>
<feGaussianBlur stdDeviation="2"/>
<feComposite in2="hardAlpha" operator="out"/>
<feColorMatrix type="matrix" values="0 0 0 0 0 0 0 0 0 0 0 0 0 0 0 0 0 0 0.25 0"/>
<feBlend mode="normal" in2="BackgroundImageFix" result="effect1_dropShadow_940_2706"/>
<feBlend mode="normal" in="SourceGraphic" in2="effect1_dropShadow_940_2706" result="shape"/>
</filter>
</defs>
</svg>
