<svg width="89" height="34" viewBox="0 0 89 34" fill="none" xmlns="http://www.w3.org/2000/svg">
<g>
<rect x="4.5" y="3.5" width="80" height="25" rx="2.5" stroke="#005258" stroke-opacity="0.3" shape-rendering="crispEdges"/>
<path d="M22.4444 18.7778V21H23.5556V16.5556H28V15.4444H23.5556V11H22.4444V15.4444H18V16.5556H22.4444V18.7778Z" fill="#005258"/>
<path d="M44.3815 10.5312V20.9727H43.4557V10.5312H44.3815ZM37.3151 11.4219V14.1758H40.4206V11.4219H41.3229V18.4531H36.4011V11.4219H37.3151ZM37.3151 17.6797H40.4206V14.9141H37.3151V17.6797ZM54.122 11.5859V12.7461C54.122 14.082 54.122 15.4297 53.747 17.3633L52.8446 17.2578C53.2196 15.418 53.2196 14.0469 53.2196 12.7461V12.3477H46.7509V11.5859H54.122ZM55.247 18.7109V19.4727H45.7548V18.7109H48.1102V15.2773H49.0243V18.7109H50.7118V15.2773H51.6142V18.7109H55.247ZM63.7804 10.5312V14.832H65.5265V15.5938H63.7804V20.9492H62.8663V10.5312H63.7804ZM61.8585 12.207V12.9688H55.6593V12.207H58.3429V10.6602H59.2569V12.207H61.8585ZM58.8116 13.8359C60.2882 13.8359 61.3546 14.8203 61.3663 16.2266C61.3546 17.6328 60.2882 18.6172 58.8116 18.6172C57.3233 18.6172 56.2452 17.6328 56.2569 16.2266C56.2452 14.8203 57.3233 13.8359 58.8116 13.8359ZM58.8116 14.6094C57.839 14.6094 57.1241 15.2891 57.1358 16.2266C57.1241 17.1758 57.839 17.8438 58.8116 17.832C59.7726 17.8438 60.4757 17.1758 60.4874 16.2266C60.4757 15.2891 59.7726 14.6094 58.8116 14.6094ZM74.2943 10.5312V20.9492H73.3685V10.5312H74.2943ZM71.2122 11.668C71.2005 14.668 69.806 17.3164 66.3138 18.9922L65.8099 18.2422C68.6282 16.9062 70.0638 14.9082 70.2747 12.418H66.2903V11.668H71.2122Z" fill="#005258"/>
</g>
<defs>
<filter id="filter0_d_905_2821" x="0" y="0" width="89" height="34" filterUnits="userSpaceOnUse" color-interpolation-filters="sRGB">
<feFlood flood-opacity="0" result="BackgroundImageFix"/>
<feColorMatrix in="SourceAlpha" type="matrix" values="0 0 0 0 0 0 0 0 0 0 0 0 0 0 0 0 0 0 127 0" result="hardAlpha"/>
<feOffset dy="1"/>
<feGaussianBlur stdDeviation="0.7"/>
<feComposite in2="hardAlpha" operator="out"/>
<feColorMatrix type="matrix" values="0 0 0 0 0 0 0 0 0 0.321569 0 0 0 0 0.345098 0 0 0 0.10 0"/>
<feBlend mode="normal" in2="BackgroundImageFix" result="effect1_dropShadow_905_2821"/>
<feBlend mode="normal" in="SourceGraphic" in2="effect1_dropShadow_905_2821" result="shape"/>
</filter>
</defs>
</svg>
