<svg width="69" height="30" viewBox="0 0 69 30" fill="none" xmlns="http://www.w3.org/2000/svg">
<rect width="69" height="30" rx="4" fill="#F1F5F4"/>
<path d="M15.5638 9.7041V12.5859H17.2015V13.5762H15.5638V16.4199H14.3451V9.7041H15.5638ZM11.8822 16.6357C14.2054 16.6357 15.6527 17.4482 15.6527 18.8447C15.6527 20.2412 14.2054 21.0664 11.8822 21.0537C9.53357 21.0664 8.06091 20.2412 8.06091 18.8447C8.06091 17.4482 9.53357 16.6357 11.8822 16.6357ZM11.8822 17.6133C10.2318 17.6006 9.24158 18.0576 9.25427 18.8447C9.24158 19.6318 10.2318 20.0889 11.8822 20.0889C13.4945 20.0889 14.4847 19.6318 14.4974 18.8447C14.4847 18.0576 13.4945 17.6006 11.8822 17.6133ZM12.1742 10.542V11.5195H8.28943V14.6172C10.5302 14.6108 11.7933 14.541 13.2279 14.249L13.3422 15.2266C11.8187 15.5439 10.4603 15.5947 7.99744 15.5947H7.09607V10.542H12.1742ZM27.8385 16.458V17.4102H25.2232V21.0791H24.0045V17.4102H21.2623V21.0791H20.0562V17.4102H17.4283V16.458H27.8385ZM26.607 10.1104V13.1572H19.9039V14.4141H26.8482V15.3916H18.6978V12.2559H25.3756V11.1006H18.6597V10.1104H26.607ZM34.9189 10.8086V20H33.5098V12.2051H33.459L31.2627 13.6396V12.3066L33.5479 10.8086H34.9189ZM40.0461 20.127C37.9133 20.127 36.6691 18.4131 36.6691 15.4043C36.6691 12.4209 37.9387 10.6816 40.0461 10.6816C42.1535 10.6816 43.4231 12.4209 43.4231 15.4043C43.4231 18.4131 42.1662 20.127 40.0461 20.127ZM40.0461 18.9209C41.2902 18.9209 42.0266 17.7021 42.0266 15.4043C42.0266 13.1191 41.2775 11.8623 40.0461 11.8623C38.8147 11.8623 38.0656 13.1191 38.0656 15.4043C38.0656 17.7021 38.802 18.9209 40.0461 18.9209ZM47.3695 22.7295C45.6303 22.7295 44.4877 21.9551 44.3608 20.6729H45.7445C45.8715 21.3203 46.4809 21.6377 47.3822 21.6377C48.4613 21.6377 49.1469 21.1807 49.1469 20.1016V18.7432H49.058C48.8168 19.1875 48.3217 19.8984 47.0522 19.8984C45.4272 19.8984 44.1703 18.6797 44.1703 16.4834C44.1703 14.2871 45.4018 13.0176 47.0649 13.0176C48.3471 13.0176 48.8168 13.792 49.0707 14.2236H49.1596V13.1064H50.4799V20.1523C50.4799 21.917 49.1469 22.7295 47.3695 22.7295ZM47.3568 18.7812C48.5121 18.7812 49.1596 17.9307 49.1596 16.5088C49.1596 15.1123 48.5248 14.1729 47.3568 14.1729C46.1508 14.1729 45.5541 15.1885 45.5541 16.5088C45.5541 17.8545 46.1762 18.7812 47.3568 18.7812ZM57.4352 10.8086V17.8545L60.1139 15.1631L60.9391 15.9756L56.8512 20.0508L52.7633 15.9756L53.5758 15.1631L56.2672 17.8545V10.8086H57.4352Z" fill="#2B5F5F"/>
</svg>
