<svg width="70" height="30" viewBox="0 0 70 30" fill="none" xmlns="http://www.w3.org/2000/svg">
<rect width="70" height="30" rx="4" fill="#F1F5F4"/>
<path d="M15.9678 10.7959V11.9131C15.9678 13.3223 15.9678 14.8965 15.5361 17.2197L14.3174 17.0928C14.7617 14.8965 14.7617 13.2842 14.7617 11.9131V11.7734H7.85545V10.7959H15.9678ZM17.1357 18.54V19.543H6.76365V18.54H10.7119V14.5283H11.9053V18.54H17.1357ZM26.5285 9.69141V12.9922H28.1916V13.9951H26.5285V17.9307H25.3224V9.69141H26.5285ZM23.1769 10.6689V11.6465H19.2922V14.96C21.5075 14.9663 22.758 14.8965 24.1799 14.6045L24.3195 15.582C22.7834 15.8867 21.4377 15.9629 19.0002 15.9629H18.0988V10.6689H23.1769ZM27.0109 19.8604V20.8379H19.3176V17.0801H20.5236V19.8604H27.0109ZM30.0434 10.4277V12.167H32.2396V10.4277H33.3568V15.7979H28.9008V10.4277H30.0434ZM30.0434 14.8203H32.2396V13.1064H30.0434V14.8203ZM38.1176 9.7168V16.5469H36.975V13.6016H35.642V16.4707H34.5248V9.91992H35.642V12.6113H36.975V9.7168H38.1176ZM38.1176 17.1816V21.0791H36.9242V18.1592H30.3861V17.1816H38.1176ZM46.1502 11.3418C46.1375 12.916 47.2166 14.3506 48.9686 14.9346L48.3592 15.8867C47.0452 15.4233 46.055 14.4966 45.5408 13.3096C45.033 14.5854 44.0364 15.5947 42.6844 16.0771L42.075 15.1377C43.8524 14.5029 44.9188 12.9668 44.9188 11.3418V10.25H46.1502V11.3418ZM51.4442 17.0801V21.0791H50.2381V18.0576H43.7381V17.0801H51.4442ZM51.4442 9.7041V16.5342H50.2381V9.7041H51.4442ZM61.7764 9.69141V12.9922H63.4395V13.9951H61.7764V17.9307H60.5703V9.69141H61.7764ZM58.4248 10.6689V11.6465H54.5401V14.96C56.7554 14.9663 58.0059 14.8965 59.4278 14.6045L59.5674 15.582C58.0313 15.8867 56.6856 15.9629 54.2481 15.9629H53.3467V10.6689H58.4248ZM62.2588 19.8604V20.8379H54.5654V17.0801H55.7715V19.8604H62.2588Z" fill="#2B5F5F"/>
</svg>
