<svg width="81" height="30" viewBox="0 0 81 30" fill="none" xmlns="http://www.w3.org/2000/svg">
<rect width="81" height="30" rx="4" fill="#F1F5F4"/>
<path d="M9.55408 10.4023C11.0648 10.4023 12.1693 11.5322 12.1693 13.1318C12.1693 14.7314 11.0648 15.8232 9.55408 15.8232C8.03064 15.8232 6.93884 14.7314 6.95154 13.1318C6.93884 11.5322 8.03064 10.4023 9.55408 10.4023ZM9.55408 11.4434C8.66541 11.4434 8.03064 12.1162 8.03064 13.1318C8.03064 14.1221 8.66541 14.8203 9.55408 14.8076C10.4301 14.8203 11.0648 14.1221 11.0775 13.1318C11.0648 12.1162 10.4301 11.4434 9.55408 11.4434ZM16.5492 9.7168V16.4961H15.4066V13.5635H14.0863V16.4199H12.9564V9.91992H14.0863V12.5859H15.4066V9.7168H16.5492ZM16.5492 17.0801V21.0791H15.3558V18.0449H8.81775V17.0801H16.5492ZM21.6002 11.5195C21.6002 13.0176 22.6412 14.4014 24.3424 14.96L23.6949 15.9121C22.4508 15.4741 21.5177 14.5854 21.0289 13.4619C20.5274 14.7378 19.5626 15.7344 18.2359 16.2295L17.5885 15.2646C19.3658 14.6299 20.3941 13.1191 20.4068 11.418V10.3008H21.6002V11.5195ZM26.6148 9.7041V12.5605H28.2652V13.5762H26.6148V16.5723H25.4088V9.7041H26.6148ZM22.9459 16.8389C25.2818 16.8389 26.7164 17.6133 26.7164 18.9463C26.7164 20.292 25.2818 21.0664 22.9459 21.0537C20.5846 21.0664 19.1246 20.292 19.1246 18.9463C19.1246 17.6133 20.5846 16.8389 22.9459 16.8389ZM22.9459 17.791C21.2955 17.791 20.318 18.2227 20.3306 18.9463C20.318 19.6953 21.2955 20.1016 22.9459 20.1143C24.5836 20.1016 25.5357 19.6953 25.5357 18.9463C25.5357 18.2227 24.5836 17.791 22.9459 17.791ZM34.8396 10.9229V11.6211C34.8396 12.5732 34.8396 14.0459 34.5096 16.0771L33.3162 15.9883C33.6018 14.1665 33.6336 12.8525 33.6463 11.9004H29.0252V10.9229H34.8396ZM31.9197 14.1729V17.5752C33.1321 17.5371 34.3636 17.4546 35.4998 17.3086L35.5633 18.21C33.1892 18.5908 30.5486 18.6416 28.5301 18.6289L28.3904 17.6514C29.1014 17.645 29.8948 17.6387 30.7264 17.6133V14.1729H31.9197ZM37.366 9.7041V14.4014H39.1053V15.4297H37.366V21.0791H36.1473V9.7041H37.366ZM48.2822 9.7041V12.5859H49.9199V13.5762H48.2822V16.4199H47.0635V9.7041H48.2822ZM44.6006 16.6357C46.9238 16.6357 48.3711 17.4482 48.3711 18.8447C48.3711 20.2412 46.9238 21.0664 44.6006 21.0537C42.252 21.0664 40.7793 20.2412 40.7793 18.8447C40.7793 17.4482 42.252 16.6357 44.6006 16.6357ZM44.6006 17.6133C42.9502 17.6006 41.96 18.0576 41.9727 18.8447C41.96 19.6318 42.9502 20.0889 44.6006 20.0889C46.2129 20.0889 47.2031 19.6318 47.2158 18.8447C47.2031 18.0576 46.2129 17.6006 44.6006 17.6133ZM44.8926 10.542V11.5195H41.0078V14.6172C43.2485 14.6108 44.5117 14.541 45.9463 14.249L46.0605 15.2266C44.5371 15.5439 43.1787 15.5947 40.7158 15.5947H39.8145V10.542H44.8926ZM62.6879 9.7041V21.0791H61.5326V9.7041H62.6879ZM60.3774 9.94531V20.5078H59.2348V14.7188H57.4701V13.7285H59.2348V9.94531H60.3774ZM56.3529 12.8779C56.3529 14.8203 57.1401 16.7627 58.7397 17.6895L58.016 18.5781C56.9306 17.9307 56.1816 16.7817 55.7943 15.4043C55.3818 16.8896 54.6073 18.1528 53.4965 18.8447L52.7602 17.9434C54.3725 16.9658 55.1977 14.8965 55.1977 12.8779V11.9639H53.1029V10.9863H58.308V11.9639H56.3529V12.8779ZM67.4596 10.4277C69.2623 10.4277 70.5446 11.5322 70.5573 13.1318C70.5446 14.5474 69.5416 15.5757 68.0563 15.7852V17.5879C69.129 17.5371 70.2208 17.4482 71.2428 17.2959L71.3317 18.1719C68.7545 18.6543 65.9996 18.667 63.9684 18.667L63.816 17.6768C64.7111 17.6768 65.7521 17.6768 66.8502 17.6387V15.7852C65.3776 15.5693 64.3492 14.541 64.3619 13.1318C64.3492 11.5322 65.6696 10.4277 67.4596 10.4277ZM67.4596 11.4688C66.3551 11.4688 65.5426 12.1162 65.5553 13.1318C65.5426 14.1348 66.3551 14.8076 67.4596 14.7949C68.5641 14.8076 69.3766 14.1348 69.3766 13.1318C69.3766 12.1162 68.5641 11.4688 67.4596 11.4688ZM73.1598 9.7041V21.1045H71.9537V9.7041H73.1598Z" fill="#2B5F5F"/>
</svg>
