<svg width="7" height="12" viewBox="0 0 7 12" fill="none" xmlns="http://www.w3.org/2000/svg">
<path d="M0.901744 0.142854L6.83714 5.63817C6.94156 5.73472 7 5.86428 7 5.99919C7 6.1341 6.94156 6.26367 6.83714 6.36022L0.901744 11.8571C0.853338 11.9023 0.795352 11.9383 0.731236 11.9628C0.667121 11.9874 0.598189 12 0.528544 12C0.4589 12 0.389968 11.9874 0.325852 11.9628C0.261737 11.9383 0.203751 11.9023 0.155345 11.8571C0.0557392 11.7649 0 11.6411 0 11.5123C0 11.3834 0.0557392 11.2597 0.155345 11.1674L5.73634 5.99839L0.157134 0.832595C0.0575287 0.740301 0.00178951 0.616558 0.00178951 0.487724C0.00178951 0.35889 0.0575287 0.235147 0.157134 0.142854C0.20554 0.0976663 0.263527 0.0617319 0.327643 0.0371899C0.391758 0.0126478 0.46069 0 0.530334 0C0.599978 0 0.668911 0.0126478 0.733026 0.0371899C0.797141 0.0617319 0.855128 0.0976663 0.903534 0.142854" fill="#005258"/>
</svg>
